<svg width="135" height="41" viewBox="0 0 135 41" fill="none" xmlns="http://www.w3.org/2000/svg">
<rect y="0.06427" width="135" height="40" rx="6.74289" fill="white"/>
<path d="M32.5019 20.7448C32.5125 19.9241 32.7305 19.1193 33.1356 18.4055C33.5408 17.6916 34.1199 17.0918 34.8192 16.6619C34.375 16.0275 33.789 15.5054 33.1077 15.1371C32.4264 14.7688 31.6686 14.5644 30.8945 14.5402C29.2433 14.3669 27.6425 15.5283 26.801 15.5283C25.9433 15.5283 24.6477 14.5574 23.2526 14.5861C22.3503 14.6153 21.4708 14.8777 20.7 15.3478C19.9292 15.8179 19.2933 16.4796 18.8543 17.2685C16.9525 20.5612 18.371 25.4002 20.1928 28.0617C21.1042 29.365 22.1695 30.8208 23.5633 30.7691C24.9272 30.7126 25.4366 29.8994 27.083 29.8994C28.7142 29.8994 29.1921 30.7691 30.6142 30.7363C32.0778 30.7125 32.9999 29.4272 33.8794 28.1116C34.5342 27.183 35.0382 26.1567 35.3725 25.0707C34.5222 24.711 33.7966 24.1091 33.2861 23.3398C32.7756 22.5705 32.5029 21.668 32.5019 20.7448Z" fill="black"/>
<path d="M29.8157 12.7902C30.6137 11.8322 31.0069 10.6009 30.9117 9.35773C29.6925 9.48578 28.5663 10.0685 27.7576 10.9897C27.3621 11.4397 27.0593 11.9633 26.8663 12.5304C26.6733 13.0976 26.594 13.6972 26.6329 14.2951C27.2427 14.3013 27.846 14.1692 28.3973 13.9085C28.9486 13.6478 29.4336 13.2654 29.8157 12.7902Z" fill="black"/>
<path d="M50.9829 26.1368H46.3284L45.2106 29.4373H43.2391L47.6478 17.2263H49.6961L54.1048 29.4373H52.0997L50.9829 26.1368ZM46.8104 24.6138H50.4999L48.6811 19.2573H48.6302L46.8104 24.6138Z" fill="black"/>
<path d="M63.6261 24.9866C63.6261 27.7532 62.1453 29.5307 59.9107 29.5307C59.3446 29.5603 58.7817 29.4299 58.2863 29.1544C57.7909 28.8789 57.3831 28.4695 57.1095 27.9731H57.0673V32.3827H55.2398V20.5347H57.0087V22.0154H57.0423C57.3284 21.5213 57.7431 21.1141 58.2423 20.8369C58.7415 20.5598 59.3064 20.4231 59.8771 20.4415C62.1366 20.4415 63.6261 22.2277 63.6261 24.9866ZM61.7477 24.9866C61.7477 23.1841 60.8162 21.9991 59.395 21.9991C57.9988 21.9991 57.0596 23.2091 57.0596 24.9866C57.0596 26.7804 57.9988 27.9817 59.395 27.9817C60.8163 27.9817 61.7477 26.8054 61.7477 24.9866Z" fill="black"/>
<path d="M73.4249 24.9866C73.4249 27.7532 71.9441 29.5307 69.7095 29.5307C69.1435 29.5603 68.5805 29.4299 68.0851 29.1544C67.5897 28.8789 67.1819 28.4695 66.9084 27.973H66.8661V32.3827H65.0386V20.5347H66.8075V22.0154H66.8411C67.1272 21.5213 67.5419 21.1141 68.0411 20.8369C68.5403 20.5598 69.1052 20.4231 69.6759 20.4415C71.9355 20.4415 73.4249 22.2277 73.4249 24.9866ZM71.5465 24.9866C71.5465 23.1841 70.6151 21.9991 69.1938 21.9991C67.7976 21.9991 66.8584 23.2091 66.8584 24.9866C66.8584 26.7804 67.7976 27.9817 69.1938 27.9817C70.6151 27.9817 71.5465 26.8054 71.5465 24.9866Z" fill="black"/>
<path d="M79.9011 26.0356C80.0365 27.2465 81.2129 28.0416 82.8204 28.0416C84.3607 28.0416 85.4689 27.2465 85.4689 26.1546C85.4689 25.2068 84.8005 24.6393 83.2179 24.2504L81.6354 23.8691C79.3931 23.3275 78.3522 22.2789 78.3522 20.5773C78.3522 18.4704 80.1882 17.0232 82.7954 17.0232C85.3757 17.0232 87.1446 18.4704 87.2041 20.5773H85.3594C85.2489 19.3587 84.2416 18.6231 82.7695 18.6231C81.2973 18.6231 80.29 19.3673 80.29 20.4505C80.29 21.3138 80.9334 21.8218 82.5073 22.2107L83.8527 22.541C86.358 23.1335 87.399 24.1399 87.399 25.926C87.399 28.2106 85.5793 29.6414 82.6849 29.6414C79.9769 29.6414 78.1485 28.2442 78.0304 26.0355L79.9011 26.0356Z" fill="black"/>
<path d="M91.3429 18.4277V20.5345H93.0359V21.9817H91.3429V26.8897C91.3429 27.6522 91.6819 28.0075 92.4261 28.0075C92.6271 28.004 92.8278 27.9899 93.0273 27.9652V29.4037C92.6927 29.4662 92.3526 29.4946 92.0123 29.4882C90.2098 29.4882 89.5069 28.8112 89.5069 27.0846V21.9817H88.2124V20.5345H89.5068V18.4277H91.3429Z" fill="black"/>
<path d="M94.0164 24.9868C94.0164 22.1857 95.6662 20.4255 98.2388 20.4255C100.82 20.4255 102.462 22.1856 102.462 24.9868C102.462 27.7957 100.829 29.5482 98.2388 29.5482C95.6498 29.5482 94.0164 27.7957 94.0164 24.9868ZM100.6 24.9868C100.6 23.0653 99.7196 21.9312 98.2388 21.9312C96.758 21.9312 95.8784 23.074 95.8784 24.9868C95.8784 26.9161 96.758 28.0415 98.2388 28.0415C99.7196 28.0415 100.6 26.9161 100.6 24.9868Z" fill="black"/>
<path d="M103.969 20.5346H105.712V22.0499H105.754C105.872 21.5766 106.149 21.1584 106.539 20.8655C106.929 20.5726 107.408 20.4228 107.895 20.4414C108.106 20.4407 108.316 20.4636 108.521 20.5096V22.2189C108.256 22.1377 107.978 22.1004 107.7 22.1085C107.435 22.0977 107.17 22.1445 106.925 22.2457C106.679 22.3469 106.458 22.5 106.277 22.6946C106.096 22.8892 105.96 23.1206 105.877 23.373C105.794 23.6254 105.766 23.8928 105.796 24.1568V29.4374H103.969L103.969 20.5346Z" fill="black"/>
<path d="M116.947 26.8229C116.701 28.4391 115.127 29.5482 113.114 29.5482C110.524 29.5482 108.916 27.813 108.916 25.0291C108.916 22.2366 110.532 20.4255 113.037 20.4255C115.5 20.4255 117.049 22.1175 117.049 24.8169V25.443H110.761V25.5534C110.732 25.8811 110.773 26.2111 110.881 26.5217C110.99 26.8323 111.163 27.1163 111.389 27.3548C111.616 27.5933 111.89 27.7809 112.195 27.9051C112.5 28.0293 112.827 28.0872 113.156 28.0751C113.588 28.1156 114.021 28.0156 114.391 27.79C114.762 27.5643 115.05 27.2252 115.212 26.8229L116.947 26.8229ZM110.77 24.1658H115.22C115.237 23.8712 115.192 23.5764 115.089 23.2999C114.986 23.0233 114.827 22.7711 114.622 22.5589C114.417 22.3467 114.171 22.1792 113.898 22.0669C113.625 21.9546 113.332 21.8999 113.037 21.9062C112.739 21.9045 112.444 21.9616 112.169 22.0745C111.893 22.1873 111.643 22.3536 111.432 22.5636C111.222 22.7737 111.054 23.0234 110.941 23.2984C110.827 23.5734 110.769 23.8682 110.77 24.1658Z" fill="black"/>
<path d="M46.5815 8.03532C46.9646 8.00783 47.3491 8.06571 47.7071 8.20478C48.0651 8.34386 48.3879 8.56067 48.652 8.83956C48.9161 9.11846 49.115 9.4525 49.2344 9.81758C49.3538 10.1827 49.3906 10.5697 49.3423 10.9508C49.3423 12.8252 48.3292 13.9027 46.5815 13.9027H44.4621V8.03532H46.5815ZM45.3734 13.0729H46.4797C46.7535 13.0893 47.0274 13.0444 47.2817 12.9416C47.5359 12.8387 47.764 12.6804 47.9493 12.4783C48.1347 12.2761 48.2726 12.0352 48.3531 11.773C48.4336 11.5109 48.4547 11.234 48.4147 10.9627C48.4518 10.6925 48.4286 10.4173 48.3469 10.1571C48.2651 9.89684 48.1268 9.65789 47.9419 9.45736C47.757 9.25682 47.53 9.09968 47.2772 8.99718C47.0244 8.89468 46.7521 8.84936 46.4797 8.86448H45.3734V13.0729Z" fill="black"/>
<path d="M50.3718 11.6864C50.344 11.3954 50.3773 11.1018 50.4696 10.8244C50.5618 10.547 50.7111 10.292 50.9077 10.0757C51.1043 9.85939 51.3439 9.68655 51.6113 9.56828C51.8786 9.45001 52.1677 9.38892 52.46 9.38892C52.7523 9.38892 53.0414 9.45001 53.3087 9.56828C53.576 9.68655 53.8157 9.85939 54.0123 10.0757C54.2089 10.292 54.3581 10.547 54.4504 10.8244C54.5427 11.1018 54.576 11.3954 54.5481 11.6864C54.5765 11.9776 54.5436 12.2716 54.4516 12.5495C54.3595 12.8273 54.2104 13.0828 54.0137 13.2995C53.8171 13.5162 53.5773 13.6894 53.3097 13.808C53.0421 13.9265 52.7527 13.9877 52.46 13.9877C52.1673 13.9877 51.8779 13.9265 51.6103 13.808C51.3427 13.6894 51.1029 13.5162 50.9062 13.2995C50.7096 13.0828 50.5604 12.8273 50.4684 12.5495C50.3764 12.2716 50.3435 11.9776 50.3718 11.6864ZM53.6493 11.6864C53.6493 10.7266 53.2181 10.1653 52.4614 10.1653C51.7018 10.1653 51.2745 10.7266 51.2745 11.6864C51.2745 12.6539 51.7019 13.2108 52.4614 13.2108C53.2181 13.2108 53.6493 12.65 53.6493 11.6864Z" fill="black"/>
<path d="M60.0994 13.9022H59.1929L58.2778 10.6411H58.2086L57.2973 13.9022H56.3994L55.1789 9.47431H56.0653L56.8585 12.8531H56.9238L57.8341 9.47431H58.6725L59.5828 12.8531H59.6519L60.4413 9.47431H61.3152L60.0994 13.9022Z" fill="black"/>
<path d="M62.3417 9.47491H63.1829V10.1783H63.2483C63.359 9.92568 63.5459 9.71389 63.7827 9.57248C64.0196 9.43107 64.2947 9.36708 64.5696 9.38943C64.7851 9.37324 65.0014 9.40572 65.2026 9.48448C65.4038 9.56324 65.5847 9.68626 65.7318 9.84443C65.879 10.0026 65.9888 10.1918 66.0529 10.3982C66.117 10.6045 66.1338 10.8226 66.1022 11.0363V13.9027H65.2284V11.2558C65.2284 10.5442 64.9192 10.1903 64.2729 10.1903C64.1266 10.1835 63.9806 10.2084 63.8448 10.2633C63.7091 10.3182 63.5868 10.4018 63.4864 10.5084C63.3859 10.615 63.3097 10.742 63.263 10.8808C63.2163 11.0196 63.2001 11.1668 63.2156 11.3124V13.9028H62.3417L62.3417 9.47491Z" fill="black"/>
<path d="M67.4947 7.74579H68.3685V13.9022H67.4947V7.74579Z" fill="black"/>
<path d="M69.5832 11.6864C69.5554 11.3954 69.5887 11.1018 69.681 10.8244C69.7733 10.5471 69.9225 10.292 70.1192 10.0757C70.3158 9.8594 70.5555 9.68656 70.8228 9.56828C71.0902 9.45001 71.3793 9.38892 71.6716 9.38892C71.9639 9.38892 72.253 9.45001 72.5204 9.56828C72.7877 9.68656 73.0274 9.8594 73.224 10.0757C73.4206 10.292 73.5699 10.5471 73.6622 10.8244C73.7545 11.1018 73.7878 11.3954 73.76 11.6864C73.7883 11.9777 73.7554 12.2717 73.6633 12.5496C73.5713 12.8274 73.4221 13.0829 73.2254 13.2996C73.0287 13.5163 72.7889 13.6895 72.5213 13.808C72.2537 13.9266 71.9643 13.9878 71.6716 13.9878C71.3789 13.9878 71.0895 13.9266 70.8219 13.808C70.5543 13.6895 70.3144 13.5163 70.1178 13.2996C69.9211 13.0829 69.7719 12.8274 69.6799 12.5496C69.5878 12.2717 69.5549 11.9777 69.5832 11.6864ZM72.8607 11.6864C72.8607 10.7266 72.4295 10.1654 71.6728 10.1654C70.9132 10.1654 70.4859 10.7266 70.4859 11.6865C70.4859 12.6539 70.9132 13.2109 71.6728 13.2109C72.4295 13.2109 72.8607 12.6501 72.8607 11.6864Z" fill="black"/>
<path d="M74.68 12.6501C74.68 11.853 75.2734 11.3935 76.3269 11.3282L77.5263 11.2591V10.8769C77.5263 10.4092 77.2171 10.1451 76.6198 10.1451C76.1319 10.1451 75.7939 10.3242 75.6969 10.6373H74.8509C74.9402 9.87674 75.6556 9.38892 76.6601 9.38892C77.7702 9.38892 78.3963 9.94155 78.3963 10.8769V13.9023H77.5551V13.28H77.4859C77.3456 13.5032 77.1485 13.6852 76.9149 13.8073C76.6812 13.9295 76.4193 13.9874 76.1559 13.9752C75.9701 13.9946 75.7822 13.9747 75.6044 13.917C75.4267 13.8593 75.263 13.765 75.1239 13.6401C74.9849 13.5153 74.8735 13.3626 74.7971 13.1921C74.7206 13.0216 74.6807 12.8369 74.68 12.6501ZM77.5263 12.2717V11.9015L76.445 11.9706C75.8352 12.0115 75.5586 12.2189 75.5586 12.6092C75.5586 13.0077 75.9043 13.2397 76.3797 13.2397C76.519 13.2538 76.6597 13.2397 76.7934 13.1983C76.9272 13.1569 77.0512 13.089 77.1582 12.9987C77.2652 12.9084 77.3529 12.7975 77.4161 12.6726C77.4793 12.5477 77.5168 12.4114 77.5263 12.2717Z" fill="black"/>
<path d="M79.5448 11.6863C79.5448 10.2872 80.2641 9.40086 81.3828 9.40086C81.6595 9.38811 81.9342 9.45439 82.1746 9.59195C82.4151 9.72952 82.6114 9.93268 82.7407 10.1777H82.806V7.74579H83.6798V13.9022H82.8424V13.2026H82.7733C82.6341 13.446 82.4309 13.6466 82.1858 13.7828C81.9407 13.919 81.663 13.9855 81.3828 13.9752C80.2564 13.9752 79.5448 13.0888 79.5448 11.6863ZM80.4475 11.6863C80.4475 12.6255 80.8902 13.1906 81.6306 13.1906C82.3671 13.1906 82.8223 12.6174 82.8223 11.6902C82.8223 10.7674 82.3623 10.1859 81.6306 10.1859C80.895 10.1859 80.4475 10.7549 80.4475 11.6863Z" fill="black"/>
<path d="M87.2953 11.6864C87.2674 11.3954 87.3007 11.1018 87.393 10.8244C87.4853 10.547 87.6345 10.292 87.8311 10.0757C88.0277 9.85939 88.2674 9.68655 88.5347 9.56828C88.802 9.45001 89.0911 9.38892 89.3834 9.38892C89.6757 9.38892 89.9648 9.45001 90.2321 9.56828C90.4994 9.68655 90.7391 9.85939 90.9357 10.0757C91.1323 10.292 91.2815 10.547 91.3738 10.8244C91.4661 11.1018 91.4994 11.3954 91.4715 11.6864C91.4999 11.9776 91.467 12.2716 91.375 12.5495C91.283 12.8273 91.1338 13.0828 90.9372 13.2995C90.7405 13.5162 90.5007 13.6894 90.2331 13.808C89.9655 13.9265 89.6761 13.9877 89.3834 13.9877C89.0907 13.9877 88.8013 13.9265 88.5337 13.808C88.2661 13.6894 88.0263 13.5162 87.8296 13.2995C87.633 13.0828 87.4838 12.8273 87.3918 12.5495C87.2998 12.2716 87.2669 11.9776 87.2953 11.6864ZM90.5727 11.6864C90.5727 10.7266 90.1415 10.1653 89.3848 10.1653C88.6253 10.1653 88.198 10.7266 88.198 11.6864C88.198 12.6539 88.6253 13.2108 89.3848 13.2108C90.1416 13.2108 90.5727 12.65 90.5727 11.6864Z" fill="black"/>
<path d="M92.644 9.47491H93.4852V10.1783H93.5505C93.6613 9.92568 93.8481 9.71389 94.085 9.57248C94.3219 9.43107 94.5969 9.36708 94.8719 9.38943C95.0873 9.37324 95.3037 9.40572 95.5049 9.48448C95.706 9.56324 95.8869 9.68626 96.0341 9.84443C96.1813 10.0026 96.291 10.1918 96.3551 10.3982C96.4193 10.6045 96.4361 10.8226 96.4045 11.0363V13.9027H95.5306V11.2558C95.5306 10.5442 95.2214 10.1903 94.5752 10.1903C94.4289 10.1835 94.2829 10.2084 94.1471 10.2633C94.0113 10.3182 93.8891 10.4018 93.7886 10.5084C93.6882 10.615 93.612 10.742 93.5653 10.8808C93.5186 11.0196 93.5024 11.1668 93.5179 11.3124V13.9028H92.644V9.47491Z" fill="black"/>
<path d="M101.342 8.37238V9.49495H102.302V10.231H101.342V12.5079C101.342 12.9717 101.533 13.1748 101.968 13.1748C102.08 13.1744 102.191 13.1677 102.302 13.1546V13.8825C102.145 13.9106 101.986 13.9255 101.826 13.9272C100.854 13.9272 100.468 13.5853 100.468 12.7316V10.231H99.7646V9.49491H100.468V8.37238H101.342Z" fill="black"/>
<path d="M103.495 7.74579H104.361V10.1859H104.431C104.547 9.93089 104.739 9.7179 104.98 9.57596C105.222 9.43402 105.501 9.37002 105.781 9.39269C105.995 9.38103 106.209 9.41681 106.408 9.49748C106.607 9.57816 106.786 9.70174 106.931 9.8594C107.077 10.0171 107.186 10.2049 107.251 10.4096C107.316 10.6143 107.334 10.8307 107.306 11.0434V13.9022H106.431V11.259C106.431 10.5517 106.102 10.1936 105.484 10.1936C105.334 10.1812 105.183 10.2019 105.041 10.2541C104.9 10.3062 104.772 10.3887 104.666 10.4956C104.559 10.6025 104.478 10.7313 104.427 10.8731C104.375 11.0148 104.356 11.166 104.369 11.3161V13.9022H103.495L103.495 7.74579Z" fill="black"/>
<path d="M112.401 12.7068C112.282 13.1115 112.025 13.4615 111.674 13.6957C111.324 13.9299 110.902 14.0333 110.482 13.9878C110.191 13.9955 109.901 13.9396 109.633 13.8241C109.365 13.7085 109.125 13.536 108.931 13.3185C108.736 13.1011 108.591 12.8439 108.506 12.5648C108.421 12.2857 108.397 11.9914 108.437 11.7023C108.398 11.4124 108.422 11.1174 108.507 10.8375C108.592 10.5576 108.736 10.2992 108.93 10.0798C109.124 9.86046 109.362 9.68526 109.629 9.56607C109.896 9.44689 110.186 9.3865 110.479 9.38899C111.711 9.38899 112.454 10.2307 112.454 11.6212V11.9261H109.327V11.9751C109.314 12.1375 109.334 12.3011 109.387 12.4552C109.44 12.6094 109.525 12.7507 109.636 12.8701C109.747 12.9896 109.882 13.0845 110.032 13.1488C110.182 13.2131 110.343 13.2454 110.506 13.2436C110.716 13.2687 110.927 13.231 111.115 13.1354C111.302 13.0398 111.457 12.8906 111.56 12.7068L112.401 12.7068ZM109.327 11.2798H111.564C111.575 11.1312 111.555 10.9819 111.504 10.8416C111.454 10.7012 111.375 10.5729 111.273 10.4649C111.17 10.3569 111.046 10.2715 110.908 10.2143C110.771 10.1571 110.623 10.1293 110.474 10.1327C110.323 10.1308 110.173 10.1592 110.033 10.2162C109.893 10.2732 109.766 10.3576 109.659 10.4645C109.552 10.5714 109.467 10.6986 109.411 10.8386C109.354 10.9787 109.325 11.1287 109.327 11.2798Z" fill="black"/>
</svg>
