<svg width="14" height="15" viewBox="0 0 14 15" fill="none" xmlns="http://www.w3.org/2000/svg">
<path d="M5.58594 14.3221C5.25 14.3221 5.00781 14.1736 4.77344 13.869L0.71875 8.7049C0.570312 8.5174 0.492188 8.31427 0.492188 8.13458C0.492188 7.7049 0.796875 7.40021 1.24219 7.40021C1.52344 7.40021 1.71875 7.50958 1.91406 7.78302L5.55469 12.5486L12.5703 1.36896C12.7578 1.07208 12.9297 0.97052 13.2422 0.97052C13.6719 0.97052 13.9531 1.25177 13.9531 1.68146C13.9531 1.86115 13.8984 2.03302 13.7578 2.25958L6.375 13.8846C6.1875 14.1736 5.92188 14.3221 5.58594 14.3221Z" fill="#BCA0EC"/>
</svg>
