<svg width="135" height="41" viewBox="0 0 135 41" fill="none" xmlns="http://www.w3.org/2000/svg">
<rect y="0.06427" width="135" height="40" rx="6.74289" fill="white"/>
<path d="M11.0811 7.74481C10.7861 8.03981 10.5894 8.53148 10.5894 9.12148V30.8532C10.5894 31.4432 10.7861 31.9349 11.0811 32.2299L11.1794 32.3282L23.3728 20.1348V20.0365V19.9382L11.0811 7.74481Z" fill="url(#paint0_linear_264_11089)"/>
<path d="M27.4045 24.2647L23.3729 20.233V20.0364V19.938L27.4045 15.9064L27.5029 16.0047L32.3212 18.758C33.6979 19.5447 33.6979 20.823 32.3212 21.6097L27.4045 24.2647Z" fill="url(#paint1_linear_264_11089)"/>
<path d="M27.5028 24.1666L23.3728 20.0366L11.0811 32.3283C11.5728 32.8199 12.2611 32.8199 13.1461 32.4266L27.5028 24.1666Z" fill="url(#paint2_linear_264_11089)"/>
<path d="M27.5028 15.9062L13.1461 7.74451C12.2611 7.25284 11.5728 7.35118 11.0811 7.84285L23.3728 20.0362L27.5028 15.9062Z" fill="url(#paint3_linear_264_11089)"/>
<path opacity="0.2" d="M27.4045 24.0683L13.1461 32.1317C12.3595 32.6233 11.6711 32.525 11.1794 32.1317L11.0811 32.23L11.1794 32.3283C11.6711 32.7217 12.3595 32.82 13.1461 32.3283L27.4045 24.0683Z" fill="black"/>
<path opacity="0.12" d="M11.0811 32.1315C10.7861 31.8365 10.6877 31.3448 10.6877 30.7548V30.8532C10.6877 31.4432 10.8844 31.9348 11.1794 32.2298V32.1315H11.0811Z" fill="black"/>
<path opacity="0.12" d="M32.321 21.3149L27.4044 24.0682L27.5027 24.1666L32.321 21.4132C33.0094 21.0199 33.3044 20.5282 33.3044 20.0366C33.3044 20.5282 32.911 20.9216 32.321 21.3149Z" fill="black"/>
<path opacity="0.25" d="M13.1461 7.84347L32.3211 18.7585C32.9111 19.1518 33.3045 19.5452 33.3045 20.0368C33.3045 19.5452 33.0095 19.0535 32.3211 18.6602L13.1461 7.74513C11.7694 6.95847 10.6877 7.6468 10.6877 9.22014V9.31847C10.6877 7.74513 11.7694 7.0568 13.1461 7.84347Z" fill="black"/>
<path d="M47.4154 9.98536C47.4154 10.772 47.2188 11.4604 46.7271 11.952C46.1371 12.542 45.4488 12.837 44.5638 12.837C43.6787 12.837 42.9904 12.542 42.4004 11.952C41.8104 11.362 41.5154 10.6737 41.5154 9.7887C41.5154 8.90369 41.8104 8.21536 42.4004 7.62536C42.9904 7.03536 43.6787 6.74036 44.5638 6.74036C44.9571 6.74036 45.3504 6.83869 45.7438 7.03536C46.1371 7.23203 46.4321 7.42869 46.6288 7.72369L46.1371 8.21536C45.7438 7.72369 45.2521 7.52703 44.5638 7.52703C43.9738 7.52703 43.3838 7.72369 42.9904 8.21536C42.4987 8.60869 42.3021 9.1987 42.3021 9.88703C42.3021 10.5754 42.4987 11.1654 42.9904 11.5587C43.4821 11.952 43.9738 12.247 44.5638 12.247C45.2521 12.247 45.7438 12.0504 46.2354 11.5587C46.5304 11.2637 46.7271 10.8704 46.7271 10.3787H44.5638V9.69036H47.4154C47.4154 9.69036 47.4154 9.88703 47.4154 9.98536Z" fill="black"/>
<path d="M51.9388 7.5267H49.2837V9.39504H51.7421V10.0834H49.2837V11.9517H51.9388V12.7384H48.4971V6.83837H51.9388V7.5267Z" fill="black"/>
<path d="M55.1839 12.7384H54.3972V7.5267H52.7255V6.83837H56.8555V7.5267H55.1839V12.7384Z" fill="black"/>
<path d="M59.7072 12.7384V6.83837H60.4938V12.7384H59.7072Z" fill="black"/>
<path d="M63.837 12.7384H63.0504V7.5267H61.3787V6.83837H65.4104V7.5267H63.7387V12.7384H63.837Z" fill="black"/>
<path d="M73.1788 11.952C72.5888 12.542 71.9005 12.837 71.0155 12.837C70.1305 12.837 69.4421 12.542 68.8521 11.952C68.2621 11.362 67.9671 10.6737 67.9671 9.7887C67.9671 8.90369 68.2621 8.21536 68.8521 7.62536C69.4421 7.03536 70.1305 6.74036 71.0155 6.74036C71.9005 6.74036 72.5888 7.03536 73.1788 7.62536C73.7688 8.21536 74.0638 8.90369 74.0638 9.7887C74.0638 10.6737 73.7688 11.362 73.1788 11.952ZM69.4421 11.4604C69.8355 11.8537 70.4255 12.1487 71.0155 12.1487C71.6055 12.1487 72.1955 11.952 72.5888 11.4604C72.9821 11.067 73.2771 10.477 73.2771 9.7887C73.2771 9.10036 73.0805 8.51036 72.5888 8.11703C72.1955 7.72369 71.6055 7.42869 71.0155 7.42869C70.4255 7.42869 69.8355 7.62536 69.4421 8.11703C69.0488 8.51036 68.7538 9.10036 68.7538 9.7887C68.7538 10.477 68.9505 11.067 69.4421 11.4604Z" fill="black"/>
<path d="M75.1454 12.7384V6.83837H76.0304L78.8821 11.46V6.83837H79.6688V12.7384H78.8821L75.8338 7.92004V12.7384H75.1454Z" fill="black"/>
<path d="M67.7705 21.3913C65.4104 21.3913 63.5421 23.1613 63.5421 25.6197C63.5421 27.9797 65.4104 29.848 67.7705 29.848C70.1305 29.848 71.9988 28.078 71.9988 25.6197C71.9988 23.063 70.1305 21.3913 67.7705 21.3913ZM67.7705 28.078C66.4921 28.078 65.4104 26.9963 65.4104 25.5213C65.4104 24.0463 66.4921 22.9647 67.7705 22.9647C69.0488 22.9647 70.1305 23.948 70.1305 25.5213C70.1305 26.9963 69.0488 28.078 67.7705 28.078ZM58.6254 21.3913C56.2654 21.3913 54.3971 23.1613 54.3971 25.6197C54.3971 27.9797 56.2654 29.848 58.6254 29.848C60.9854 29.848 62.8538 28.078 62.8538 25.6197C62.8538 23.063 60.9854 21.3913 58.6254 21.3913ZM58.6254 28.078C57.3471 28.078 56.2654 26.9963 56.2654 25.5213C56.2654 24.0463 57.3471 22.9647 58.6254 22.9647C59.9038 22.9647 60.9854 23.948 60.9854 25.5213C60.9854 26.9963 59.9038 28.078 58.6254 28.078ZM47.7104 22.6697V24.4397H51.9388C51.8404 25.423 51.4471 26.2097 50.9554 26.7013C50.3654 27.2913 49.3821 27.9797 47.7104 27.9797C45.0554 27.9797 43.0887 25.9147 43.0887 23.2597C43.0887 20.6046 45.1537 18.5396 47.7104 18.5396C49.0871 18.5396 50.1688 19.1296 50.9554 19.818L52.2338 18.5396C51.1521 17.5563 49.7754 16.7696 47.8087 16.7696C44.2687 16.7696 41.2204 19.7196 41.2204 23.2597C41.2204 26.7997 44.2687 29.7497 47.8087 29.7497C49.7754 29.7497 51.1521 29.1597 52.3321 27.8813C53.5121 26.7013 53.9054 25.0297 53.9054 23.7513C53.9054 23.358 53.9054 22.9647 53.8071 22.6697H47.7104ZM92.3538 24.0463C91.9605 23.063 90.9772 21.3913 88.8138 21.3913C86.6505 21.3913 84.8805 23.063 84.8805 25.6197C84.8805 27.9797 86.6505 29.848 89.0105 29.848C90.8788 29.848 92.0588 28.668 92.4522 27.9797L91.0755 26.9963C90.5838 27.6847 89.9938 28.1763 89.0105 28.1763C88.0272 28.1763 87.4372 27.783 86.9455 26.898L92.5505 24.538L92.3538 24.0463ZM86.6505 25.423C86.6505 23.8497 87.9288 22.9647 88.8138 22.9647C89.5022 22.9647 90.1905 23.358 90.3872 23.8497L86.6505 25.423ZM82.0288 29.4547H83.8972V17.163H82.0288V29.4547ZM79.0788 22.2763C78.5871 21.7847 77.8005 21.293 76.8171 21.293C74.7521 21.293 72.7855 23.1613 72.7855 25.5213C72.7855 27.8813 74.6538 29.6513 76.8171 29.6513C77.8005 29.6513 78.5871 29.1597 78.9805 28.668H79.0788V29.258C79.0788 30.8313 78.1938 31.7163 76.8171 31.7163C75.7355 31.7163 74.9488 30.9297 74.7521 30.2413L73.1788 30.9297C73.6705 32.0113 74.8505 33.388 76.9155 33.388C79.0788 33.388 80.8488 32.1097 80.8488 29.0613V21.588H79.0788V22.2763ZM76.9155 28.078C75.6371 28.078 74.5555 26.9963 74.5555 25.5213C74.5555 24.0463 75.6371 22.9647 76.9155 22.9647C78.1938 22.9647 79.1771 24.0463 79.1771 25.5213C79.1771 26.9963 78.1938 28.078 76.9155 28.078ZM100.909 17.163H96.4839V29.4547H98.3522V24.833H100.909C102.974 24.833 104.941 23.358 104.941 20.998C104.941 18.638 102.974 17.163 100.909 17.163ZM101.007 23.063H98.3522V18.8346H101.007C102.384 18.8346 103.171 20.0146 103.171 20.8996C103.072 21.9813 102.286 23.063 101.007 23.063ZM112.316 21.293C110.939 21.293 109.562 21.883 109.071 23.1613L110.742 23.8497C111.136 23.1613 111.726 22.9647 112.414 22.9647C113.397 22.9647 114.282 23.5547 114.381 24.538V24.6363C114.086 24.4397 113.299 24.1447 112.512 24.1447C110.742 24.1447 108.972 25.128 108.972 26.898C108.972 28.5697 110.447 29.6513 112.021 29.6513C113.299 29.6513 113.889 29.0613 114.381 28.4713H114.479V29.4547H116.249V24.7347C116.052 22.5713 114.381 21.293 112.316 21.293ZM112.119 28.078C111.529 28.078 110.644 27.783 110.644 26.9963C110.644 26.013 111.726 25.718 112.611 25.718C113.397 25.718 113.791 25.9147 114.282 26.1113C114.086 27.2913 113.102 28.078 112.119 28.078ZM122.444 21.588L120.379 26.898H120.281L118.117 21.588H116.151L119.396 29.0613L117.527 33.1913H119.396L124.411 21.588H122.444ZM105.924 29.4547H107.792V17.163H105.924V29.4547Z" fill="black"/>
<defs>
<linearGradient id="paint0_linear_264_11089" x1="22.2908" y1="8.93435" x2="5.78808" y2="25.4371" gradientUnits="userSpaceOnUse">
<stop stop-color="#00A0FF"/>
<stop offset="0.00657445" stop-color="#00A1FF"/>
<stop offset="0.2601" stop-color="#00BEFF"/>
<stop offset="0.5122" stop-color="#00D2FF"/>
<stop offset="0.7604" stop-color="#00DFFF"/>
<stop offset="1" stop-color="#00E3FF"/>
</linearGradient>
<linearGradient id="paint1_linear_264_11089" x1="34.125" y1="20.0378" x2="10.3314" y2="20.0378" gradientUnits="userSpaceOnUse">
<stop stop-color="#FFE000"/>
<stop offset="0.4087" stop-color="#FFBD00"/>
<stop offset="0.7754" stop-color="#FFA500"/>
<stop offset="1" stop-color="#FF9C00"/>
</linearGradient>
<linearGradient id="paint2_linear_264_11089" x1="25.2677" y1="22.2944" x2="2.88866" y2="44.6734" gradientUnits="userSpaceOnUse">
<stop stop-color="#FF3A44"/>
<stop offset="1" stop-color="#C31162"/>
</linearGradient>
<linearGradient id="paint3_linear_264_11089" x1="8.03012" y1="0.54276" x2="18.0234" y2="10.5359" gradientUnits="userSpaceOnUse">
<stop stop-color="#32A071"/>
<stop offset="0.0685" stop-color="#2DA771"/>
<stop offset="0.4762" stop-color="#15CF74"/>
<stop offset="0.8009" stop-color="#06E775"/>
<stop offset="1" stop-color="#00F076"/>
</linearGradient>
</defs>
</svg>
