<svg width="72" height="65" viewBox="0 0 72 65" fill="none" xmlns="http://www.w3.org/2000/svg">
<path d="M63.2511 0.0868598C63.5091 -0.142111 63.8395 0.118153 63.7247 0.443305L62.3976 4.19526C59.7659 10.3494 54.1924 24.5995 52.9484 32.3632C52.9067 32.6235 52.8647 32.8832 52.8234 33.1425C57.9314 33.6399 63.1267 34.4121 68.2677 35.5361C71.0646 36.1964 74.9802 37.5635 68.2677 37.7499C65.7854 37.8189 59.6467 37.8889 52.0919 37.955C51.0042 45.6515 50.4488 53.2895 51.9913 62.5419C52.071 63.1337 51.871 64.3408 50.4357 64.4355C49.0102 64.5295 45.1086 64.4759 43.297 64.4365C43.2707 64.4359 43.2458 64.438 43.2198 64.4423C42.6104 64.5439 41.464 64.3026 41.464 62.5419C41.464 60.7486 42.4563 46.6101 44.4952 38.0165C37.1392 38.0722 29.2233 38.121 22.3468 38.1601C21.2782 45.7874 20.7447 53.3717 22.2736 62.5419C22.3533 63.1337 22.1543 64.3408 20.7189 64.4355C19.2936 64.5295 15.3919 64.4759 13.5802 64.4365C13.5539 64.4359 13.529 64.438 13.503 64.4423C12.8936 64.5439 11.7472 64.3026 11.7472 62.5419C11.7472 60.7614 12.724 46.811 14.7335 38.2011C13.8531 38.2056 13.0114 38.2119 12.214 38.2158C5.14417 38.2158 -6.31531 37.6802 4.40539 35.5361C7.21399 34.8992 11.2478 34.1948 16.1495 33.6142C16.2745 33.3306 16.4019 33.0701 16.5323 32.8359C20.1265 23.553 28.2937 4.73814 33.5343 0.0868598C33.7923 -0.141985 34.1226 0.118208 34.0079 0.443305L32.6808 4.19526C30.0491 10.3494 24.4746 24.5995 23.2306 32.3632C23.2001 32.5536 23.1691 32.7437 23.1388 32.9335C30.015 32.4029 37.9625 32.1875 46.3224 32.6484C49.9529 23.3019 58.0456 4.70704 63.2511 0.0868598Z" fill="white"/>
</svg>
