<svg width="1230" height="224" viewBox="0 0 1230 224" fill="none" xmlns="http://www.w3.org/2000/svg">
<path d="M13 161.187L3.13574 161.187L3.13574 159.655L7.30566 159.655L7.30566 154.59L3.13574 154.59L3.13574 153.059L13 153.059L13 154.59L8.63184 154.59L8.63184 159.655L13 159.655L13 161.187ZM13.1436 148.215C13.1436 150.328 11.7012 151.606 9.43164 151.606L9.4248 151.606C7.17578 151.606 5.67187 150.307 5.67187 148.291C5.67187 146.274 7.12109 145.037 9.28125 145.037L9.78027 145.037L9.78027 150.13C11.1406 150.102 11.9336 149.357 11.9336 148.181C11.9336 147.306 11.4824 146.725 10.9424 146.541L10.8877 146.52L10.8877 145.119L10.9629 145.132C12.1045 145.365 13.1436 146.472 13.1436 148.215ZM6.88184 148.284C6.88184 149.241 7.53125 149.979 8.73437 150.109L8.73437 146.5C7.49023 146.623 6.88184 147.32 6.88184 148.284ZM13.1299 141.636C13.1299 143.072 12.248 144.035 10.9561 144.035L10.9424 144.035C9.69141 144.035 8.92578 143.065 8.82324 141.363L8.70703 139.407L8.16699 139.407C7.37402 139.407 6.89551 139.92 6.89551 140.836C6.89551 141.691 7.29883 142.217 7.87305 142.34L7.93457 142.354L7.93457 143.748L7.85937 143.741C6.62207 143.639 5.67187 142.566 5.67187 140.795C5.67187 139.038 6.60156 137.924 8.04394 137.924L13 137.924L13 139.407L11.8652 139.407L11.8652 139.435C12.6377 139.852 13.1299 140.686 13.1299 141.636ZM10.9219 142.545C11.5508 142.545 11.9473 142.026 11.9473 141.233C11.9473 140.194 11.2432 139.407 10.3066 139.407L9.74609 139.407L9.85547 141.164C9.91016 142.053 10.2998 142.545 10.9082 142.545L10.9219 142.545ZM13 136.294L3.13574 136.294L3.13574 134.817L13 134.817L13 136.294ZM13.1436 130.637C13.1436 132.059 12.542 132.743 11.1064 132.743L6.98437 132.743L6.98437 133.775L5.80859 133.775L5.80859 132.743L3.93555 132.743L3.93555 131.232L5.80859 131.232L5.80859 129.885L6.98437 129.885L6.98437 131.232L11.0176 131.232C11.749 131.232 11.9678 130.904 11.9678 130.282C11.9678 130.125 11.9541 129.995 11.9404 129.885L13.082 129.885C13.1094 130.056 13.1436 130.336 13.1436 130.637ZM13 128.467L3.13574 128.467L3.13574 126.99L6.99121 126.99L6.99121 126.956C6.15723 126.573 5.67187 125.801 5.67187 124.728C5.67187 123.19 6.82031 122.178 8.55664 122.178L13 122.178L13 123.654L8.83691 123.654C7.64746 123.654 6.93652 124.256 6.93652 125.295C6.93652 126.314 7.71582 126.99 8.83691 126.99L13 126.99L13 128.467ZM13.1641 114.078C13.1641 116.292 12.1113 117.755 10.375 117.878L10.2725 117.885L10.2725 116.395L10.3613 116.381C11.2705 116.245 11.8379 115.335 11.8379 114.016C11.8379 112.697 11.2432 111.863 10.3203 111.863L10.3135 111.863C9.52051 111.863 9.08984 112.403 8.80273 113.708L8.57715 114.782C8.16699 116.716 7.27832 117.653 5.81543 117.653L5.80859 117.653C4.12695 117.646 2.97168 116.163 2.97168 114.078C2.97168 112.02 4.09277 110.612 5.74707 110.509L5.86328 110.502L5.86328 111.993L5.76758 111.999C4.85156 112.136 4.29785 112.929 4.29785 114.098C4.30469 115.322 4.88574 116.101 5.74707 116.101L5.7539 116.101C6.49219 116.101 6.94336 115.541 7.20996 114.31L7.43554 113.23C7.86621 111.193 8.69336 110.318 10.2178 110.318L10.2246 110.318C12.0225 110.318 13.1641 111.74 13.1641 114.078ZM13.1436 105.885C13.1436 107.984 11.7012 109.296 9.39746 109.296L9.39062 109.296C7.11426 109.296 5.67187 107.956 5.67187 105.905C5.67187 104.053 6.86133 102.932 8.21484 102.809L8.26269 102.802L8.26269 104.21L8.20801 104.224C7.5039 104.381 6.90918 104.928 6.90918 105.892C6.90918 107.04 7.86621 107.785 9.40429 107.785L9.41113 107.785C10.9834 107.785 11.9062 107.026 11.9062 105.885C11.9062 104.976 11.3799 104.395 10.6006 104.217L10.5459 104.21L10.5459 102.788L10.5937 102.795C12.0361 102.952 13.1436 104.155 13.1436 105.885ZM13.1436 98.5125C13.1436 100.577 11.7148 101.924 9.40429 101.924L9.39062 101.924C7.09375 101.924 5.67187 100.563 5.67187 98.5193C5.67187 96.4685 7.08691 95.1013 9.39062 95.1013L9.40429 95.1013C11.7217 95.1013 13.1436 96.4548 13.1436 98.5125ZM11.9062 98.5056C11.9062 97.3504 10.9902 96.6121 9.40429 96.6121L9.39062 96.6121C7.81836 96.6121 6.90918 97.364 6.90918 98.5193C6.90918 99.6541 7.81836 100.413 9.39062 100.413L9.40429 100.413C10.9971 100.413 11.9062 99.6609 11.9062 98.5056ZM13 93.8197L5.80859 93.8197L5.80859 92.3432L7.03906 92.3432L7.03906 92.309C6.19824 92.0766 5.67187 91.475 5.67187 90.6547C5.67187 90.4428 5.70605 90.2582 5.72656 90.142L7.10058 90.142C7.05273 90.2582 7.01855 90.518 7.01855 90.8051C7.01855 91.7553 7.64062 92.3432 8.71386 92.3432L13 92.3432L13 93.8197ZM13.1436 86.3311C13.1436 88.4434 11.7012 89.7217 9.43164 89.7217L9.4248 89.7217C7.17578 89.7217 5.67187 88.4229 5.67187 86.4063C5.67187 84.3897 7.12109 83.1524 9.28125 83.1524L9.78027 83.1524L9.78027 88.2452C11.1406 88.2178 11.9336 87.4727 11.9336 86.2969C11.9336 85.4219 11.4824 84.8409 10.9424 84.6563L10.8877 84.6358L10.8877 83.2344L10.9629 83.2481C12.1045 83.4805 13.1436 84.5879 13.1436 86.3311ZM6.88183 86.3995C6.88183 87.3565 7.53125 88.0948 8.73437 88.2246L8.73437 84.6153C7.49023 84.7383 6.88183 85.4356 6.88183 86.3995Z" fill="#381C59"/>
<path d="M1049.96 8.73633C1048.06 8.73633 1046.8 7.83398 1046.7 6.3457L1046.69 6.25781H1047.97L1047.98 6.33398C1048.1 7.11328 1048.88 7.59961 1050.01 7.59961C1051.14 7.59961 1051.86 7.08984 1051.86 6.29883V6.29297C1051.86 5.61328 1051.39 5.24414 1050.27 4.99805L1049.35 4.80469C1047.7 4.45312 1046.89 3.69141 1046.89 2.4375V2.43164C1046.9 0.990234 1048.17 0 1049.96 0C1051.72 0 1052.93 0.960938 1053.02 2.37891L1053.02 2.47852H1051.74L1051.74 2.39648C1051.62 1.61133 1050.94 1.13672 1049.94 1.13672C1048.89 1.14258 1048.22 1.64062 1048.22 2.37891V2.38477C1048.22 3.01758 1048.7 3.4043 1049.76 3.63281L1050.68 3.82617C1052.43 4.19531 1053.18 4.9043 1053.18 6.21094V6.2168C1053.18 7.75781 1051.96 8.73633 1049.96 8.73633ZM1056.98 8.71875C1055.18 8.71875 1054.06 7.48242 1054.06 5.50781V5.50195C1054.06 3.55078 1055.2 2.31445 1056.96 2.31445C1058.55 2.31445 1059.51 3.33398 1059.62 4.49414L1059.62 4.53516H1058.41L1058.4 4.48828C1058.27 3.88477 1057.8 3.375 1056.97 3.375C1055.99 3.375 1055.35 4.19531 1055.35 5.51367V5.51953C1055.35 6.86719 1056 7.6582 1056.98 7.6582C1057.76 7.6582 1058.26 7.20703 1058.41 6.53906L1058.41 6.49219H1059.63L1059.63 6.5332C1059.49 7.76953 1058.46 8.71875 1056.98 8.71875ZM1063.3 8.71875C1061.53 8.71875 1060.37 7.49414 1060.37 5.51367V5.50195C1060.37 3.5332 1061.54 2.31445 1063.29 2.31445C1065.05 2.31445 1066.22 3.52734 1066.22 5.50195V5.51367C1066.22 7.5 1065.06 8.71875 1063.3 8.71875ZM1063.3 7.6582C1064.29 7.6582 1064.93 6.87305 1064.93 5.51367V5.50195C1064.93 4.1543 1064.28 3.375 1063.29 3.375C1062.32 3.375 1061.67 4.1543 1061.67 5.50195V5.51367C1061.67 6.87891 1062.31 7.6582 1063.3 7.6582ZM1067.32 8.5957V2.43164H1068.59V3.48633H1068.62C1068.82 2.76563 1069.33 2.31445 1070.03 2.31445C1070.22 2.31445 1070.37 2.34375 1070.47 2.36133V3.53906C1070.37 3.49805 1070.15 3.46875 1069.9 3.46875C1069.09 3.46875 1068.59 4.00195 1068.59 4.92188V8.5957H1067.32ZM1073.74 8.71875C1071.93 8.71875 1070.83 7.48242 1070.83 5.53711V5.53125C1070.83 3.60352 1071.95 2.31445 1073.68 2.31445C1075.4 2.31445 1076.46 3.55664 1076.46 5.4082V5.83594L1072.1 5.83594C1072.12 7.00195 1072.76 7.68164 1073.77 7.68164C1074.52 7.68164 1075.02 7.29492 1075.18 6.83203L1075.19 6.78516H1076.39L1076.38 6.84961C1076.18 7.82813 1075.23 8.71875 1073.74 8.71875ZM1073.68 3.35156C1072.86 3.35156 1072.23 3.9082 1072.12 4.93945H1075.21C1075.1 3.87305 1074.51 3.35156 1073.68 3.35156ZM1080.62 8.5957L1084.38 1.27734V1.24805L1079.92 1.24805V0.140625L1085.68 0.140625V1.27734L1082 8.5957H1080.62ZM1090 8.73633C1088.13 8.73633 1086.81 7.73438 1086.81 6.30469V6.29297C1086.81 5.22656 1087.58 4.38281 1088.68 4.14258V4.11328C1087.73 3.84375 1087.12 3.14063 1087.12 2.24414V2.23242C1087.12 0.943359 1088.32 0 1090 0C1091.68 0 1092.89 0.943359 1092.89 2.23242V2.24414C1092.89 3.14063 1092.28 3.84375 1091.33 4.11328V4.14258C1092.43 4.38281 1093.2 5.22656 1093.2 6.29297V6.30469C1093.2 7.73438 1091.88 8.73633 1090 8.73633ZM1090 3.67383C1090.95 3.67383 1091.59 3.12891 1091.59 2.36133V2.34961C1091.59 1.57617 1090.94 1.03711 1090 1.03711C1089.06 1.03711 1088.42 1.57617 1088.42 2.34961V2.36133C1088.42 3.12891 1089.06 3.67383 1090 3.67383ZM1090 7.6875C1091.08 7.6875 1091.85 7.07227 1091.85 6.2168V6.20508C1091.85 5.34375 1091.09 4.72266 1090 4.72266C1088.92 4.72266 1088.16 5.34375 1088.16 6.20508V6.2168C1088.16 7.07227 1088.92 7.6875 1090 7.6875Z" fill="#381C59" fill-opacity="0.5"/>
<path d="M67 169.596C119.297 135.319 275.667 68.2341 482.764 74.1099C741.635 81.4546 780.858 84.602 906.371 60.4683C1006.78 41.1613 1162.63 25.842 1228 20.5957" stroke="#381C59" stroke-width="4" stroke-linecap="round"/>
<mask id="path-4-inside-1_1_557" fill="white">
<path d="M67 194.596H1228V223.596H67V194.596Z"/>
</mask>
<path d="M67 194.596V195.596H1228V194.596V193.596H67V194.596Z" fill="#381C59" fill-opacity="0.15" mask="url(#path-4-inside-1_1_557)"/>
<path d="M69.6309 220.736C68.166 220.736 67.3398 219.828 67.252 218.615L67.2461 218.533H68.3008L68.3066 218.592C68.3711 219.23 68.7871 219.764 69.625 219.764C70.5625 219.764 71.0664 219.207 71.0664 218.176V212.141H72.1211V218.188C72.1211 219.787 71.1953 220.736 69.6309 220.736ZM75.3876 220.713C74.1747 220.713 73.3602 219.98 73.3602 218.873V218.861C73.3602 217.824 74.1688 217.174 75.5692 217.092L77.3153 216.992V216.482C77.3153 215.738 76.829 215.287 75.9794 215.287C75.1942 215.287 74.702 215.662 74.5848 216.207L74.5731 216.26H73.5887L73.5946 216.195C73.6825 215.193 74.5555 214.385 75.9911 214.385C77.4325 214.385 78.3348 215.164 78.3348 216.383V220.596H77.3153V219.605H77.2919C76.9345 220.273 76.202 220.713 75.3876 220.713ZM74.4032 218.873C74.4032 219.459 74.8837 219.828 75.6161 219.828C76.577 219.828 77.3153 219.166 77.3153 218.281V217.783L75.6864 217.883C74.872 217.93 74.4032 218.293 74.4032 218.861V218.873ZM79.7498 220.596V214.502H80.7693V215.369H80.7927C81.1209 214.801 81.742 214.385 82.6677 214.385C84.0037 214.385 84.7771 215.252 84.7771 216.641V220.596H83.7576V216.822C83.7576 215.832 83.2947 215.287 82.3572 215.287C81.3962 215.287 80.7693 215.973 80.7693 217.01V220.596H79.7498Z" fill="#381C59" fill-opacity="0.64"/>
<path d="M295.22 220.596V212.141H300.353V213.09H296.275V215.996H300.019V216.934H296.275V220.596H295.22ZM303.795 220.713C302.043 220.713 300.989 219.488 300.989 217.572V217.566C300.989 215.68 302.067 214.385 303.731 214.385C305.395 214.385 306.409 215.621 306.409 217.449V217.824H302.02C302.043 219.078 302.735 219.811 303.819 219.811C304.592 219.811 305.137 219.424 305.313 218.902L305.331 218.85H306.332L306.321 218.908C306.122 219.916 305.125 220.713 303.795 220.713ZM303.725 215.287C302.84 215.287 302.149 215.891 302.038 217.027H305.372C305.272 215.844 304.616 215.287 303.725 215.287ZM310.589 220.713C309.716 220.713 309.036 220.273 308.656 219.564H308.632V220.596H307.613V212.141H308.632V215.521H308.656C309.036 214.818 309.745 214.385 310.607 214.385C312.136 214.385 313.179 215.621 313.179 217.543V217.549C313.179 219.471 312.148 220.713 310.589 220.713ZM310.39 219.811C311.468 219.811 312.136 218.949 312.136 217.549V217.543C312.136 216.154 311.468 215.287 310.39 215.287C309.365 215.287 308.626 216.184 308.626 217.543V217.549C308.626 218.914 309.359 219.811 310.39 219.811Z" fill="#381C59" fill-opacity="0.64"/>
<path d="M523.62 220.596V212.141H524.839L527.769 219.266H527.804L530.734 212.141H531.952V220.596H530.968V214.062H530.933L528.232 220.596H527.341L524.64 214.062H524.605V220.596H523.62ZM535.16 220.713C533.947 220.713 533.133 219.98 533.133 218.873V218.861C533.133 217.824 533.941 217.174 535.342 217.092L537.088 216.992V216.482C537.088 215.738 536.602 215.287 535.752 215.287C534.967 215.287 534.475 215.662 534.357 216.207L534.346 216.26H533.361L533.367 216.195C533.455 215.193 534.328 214.385 535.764 214.385C537.205 214.385 538.107 215.164 538.107 216.383V220.596H537.088V219.605H537.065C536.707 220.273 535.975 220.713 535.16 220.713ZM534.176 218.873C534.176 219.459 534.656 219.828 535.389 219.828C536.35 219.828 537.088 219.166 537.088 218.281V217.783L535.459 217.883C534.645 217.93 534.176 218.293 534.176 218.861V218.873ZM539.522 220.596V214.502H540.542V215.533H540.565C540.77 214.83 541.298 214.385 541.983 214.385C542.159 214.385 542.311 214.414 542.394 214.426V215.416C542.311 215.387 542.095 215.357 541.849 215.357C541.058 215.357 540.542 215.908 540.542 216.834V220.596H539.522Z" fill="#381C59" fill-opacity="0.64"/>
<path d="M751.346 220.596L754.493 212.141H755.536L758.677 220.596H757.569L756.714 218.176H753.309L752.454 220.596H751.346ZM755.003 213.406L753.632 217.279H756.397L755.026 213.406H755.003ZM759.611 222.646V214.502H760.63V215.533H760.654C761.035 214.824 761.714 214.385 762.588 214.385C764.146 214.385 765.177 215.627 765.177 217.549V217.555C765.177 219.477 764.134 220.713 762.605 220.713C761.744 220.713 761.035 220.279 760.654 219.576H760.63V222.646H759.611ZM762.388 219.811C763.466 219.811 764.134 218.943 764.134 217.555V217.549C764.134 216.148 763.466 215.287 762.388 215.287C761.357 215.287 760.625 216.184 760.625 217.549V217.555C760.625 218.914 761.363 219.811 762.388 219.811ZM766.329 220.596V214.502H767.348V215.533H767.372C767.577 214.83 768.104 214.385 768.79 214.385C768.965 214.385 769.118 214.414 769.2 214.426V215.416C769.118 215.387 768.901 215.357 768.655 215.357C767.864 215.357 767.348 215.908 767.348 216.834V220.596H766.329Z" fill="#381C59" fill-opacity="0.64"/>
<path d="M979.42 220.596V212.141H980.639L983.569 219.266H983.604L986.534 212.141H987.752V220.596H986.768V214.062H986.733L984.032 220.596H983.141L980.44 214.062H980.405V220.596H979.42ZM990.96 220.713C989.747 220.713 988.933 219.98 988.933 218.873V218.861C988.933 217.824 989.741 217.174 991.142 217.092L992.888 216.992V216.482C992.888 215.738 992.402 215.287 991.552 215.287C990.767 215.287 990.275 215.662 990.157 216.207L990.146 216.26H989.161L989.167 216.195C989.255 215.193 990.128 214.385 991.564 214.385C993.005 214.385 993.907 215.164 993.907 216.383V220.596H992.888V219.605H992.865C992.507 220.273 991.775 220.713 990.96 220.713ZM989.976 218.873C989.976 219.459 990.456 219.828 991.189 219.828C992.15 219.828 992.888 219.166 992.888 218.281V217.783L991.259 217.883C990.445 217.93 989.976 218.293 989.976 218.861V218.873ZM995.908 222.646C995.709 222.646 995.492 222.623 995.363 222.6V221.768C995.451 221.785 995.568 221.803 995.692 221.803C996.336 221.803 996.693 221.639 996.94 220.947L997.063 220.602L994.801 214.502H995.891L997.572 219.576H997.596L999.283 214.502H1000.36L997.977 220.977C997.543 222.143 997.01 222.646 995.908 222.646Z" fill="#381C59" fill-opacity="0.64"/>
<path d="M1211.63 220.736C1210.17 220.736 1209.34 219.828 1209.25 218.615L1209.25 218.533H1210.3L1210.31 218.592C1210.37 219.23 1210.79 219.764 1211.62 219.764C1212.56 219.764 1213.07 219.207 1213.07 218.176V212.141H1214.12V218.188C1214.12 219.787 1213.2 220.736 1211.63 220.736ZM1217.8 220.713C1216.47 220.713 1215.69 219.846 1215.69 218.457V214.502H1216.71V218.275C1216.71 219.266 1217.18 219.811 1218.11 219.811C1219.08 219.811 1219.7 219.125 1219.7 218.088V214.502H1220.72V220.596H1219.7V219.729H1219.68C1219.35 220.297 1218.73 220.713 1217.8 220.713ZM1222.17 220.596V214.502H1223.19V215.369H1223.21C1223.54 214.801 1224.16 214.385 1225.09 214.385C1226.43 214.385 1227.2 215.252 1227.2 216.641V220.596H1226.18V216.822C1226.18 215.832 1225.72 215.287 1224.78 215.287C1223.82 215.287 1223.19 215.973 1223.19 217.01V220.596H1222.17Z" fill="#381C59" fill-opacity="0.64"/>
<circle cx="474.6" cy="74.5957" r="7" fill="white" stroke="#381C59" stroke-width="4"/>
<circle cx="665.9" cy="79.5957" r="7" fill="white" stroke="#381C59" stroke-width="4"/>
<circle cx="863.2" cy="69.5957" r="7" fill="white" stroke="#381C59" stroke-width="4"/>
<circle cx="1070" cy="34.7441" r="7" fill="white" stroke="#381C59" stroke-width="4"/>
<circle cx="273.6" cy="92.3711" r="7" fill="white" stroke="#381C59" stroke-width="4"/>
<circle cx="67" cy="169.596" r="7" fill="white" stroke="#381C59" stroke-width="4"/>
<path d="M46.6621 141.736C44.7637 141.736 43.5098 140.834 43.4043 139.346L43.3984 139.258H44.6758L44.6875 139.334C44.8047 140.113 45.584 140.6 46.7148 140.6C47.8457 140.6 48.5605 140.09 48.5605 139.299V139.293C48.5605 138.613 48.0977 138.244 46.9785 137.998L46.0586 137.805C44.4004 137.453 43.5977 136.691 43.5977 135.438V135.432C43.6035 133.99 44.875 133 46.6621 133C48.4258 133 49.6328 133.961 49.7207 135.379L49.7266 135.479H48.4492L48.4434 135.396C48.3262 134.611 47.6465 134.137 46.6445 134.137C45.5957 134.143 44.9277 134.641 44.9277 135.379V135.385C44.9277 136.018 45.4082 136.404 46.4629 136.633L47.3887 136.826C49.1348 137.195 49.8848 137.904 49.8848 139.211V139.217C49.8848 140.758 48.666 141.736 46.6621 141.736ZM53.6845 141.719C51.8856 141.719 50.7606 140.482 50.7606 138.508V138.502C50.7606 136.551 51.9091 135.314 53.6669 135.314C55.2548 135.314 56.2157 136.334 56.3212 137.494L56.327 137.535H55.12L55.1083 137.488C54.9735 136.885 54.5048 136.375 53.6786 136.375C52.6942 136.375 52.0555 137.195 52.0555 138.514V138.52C52.0555 139.867 52.7059 140.658 53.6845 140.658C54.4637 140.658 54.9618 140.207 55.1141 139.539L55.12 139.492H56.3387L56.3329 139.533C56.1981 140.77 55.1669 141.719 53.6845 141.719ZM60.0037 141.719C58.2341 141.719 57.0798 140.494 57.0798 138.514V138.502C57.0798 136.533 58.2459 135.314 59.9978 135.314C61.7556 135.314 62.9275 136.527 62.9275 138.502V138.514C62.9275 140.5 61.7673 141.719 60.0037 141.719ZM60.0095 140.658C60.9998 140.658 61.6326 139.873 61.6326 138.514V138.502C61.6326 137.154 60.988 136.375 59.9978 136.375C59.0252 136.375 58.3748 137.154 58.3748 138.502V138.514C58.3748 139.879 59.0193 140.658 60.0095 140.658ZM64.026 141.596V135.432H65.2916V136.486H65.3209C65.5202 135.766 66.0358 135.314 66.7389 135.314C66.9205 135.314 67.0788 135.344 67.1784 135.361V136.539C67.0788 136.498 66.8561 136.469 66.61 136.469C65.7955 136.469 65.2916 137.002 65.2916 137.922V141.596H64.026ZM70.4448 141.719C68.6343 141.719 67.5386 140.482 67.5386 138.537V138.531C67.5386 136.604 68.6519 135.314 70.3804 135.314C72.1089 135.314 73.1695 136.557 73.1695 138.408V138.836H68.8042C68.8277 140.002 69.4663 140.682 70.4741 140.682C71.2241 140.682 71.7222 140.295 71.8804 139.832L71.898 139.785H73.0991L73.0874 139.85C72.8882 140.828 71.939 141.719 70.4448 141.719ZM70.3862 136.352C69.5659 136.352 68.9331 136.908 68.8218 137.939H71.9155C71.8101 136.873 71.2124 136.352 70.3862 136.352ZM80.8802 141.596V139.914H76.6497V138.771L80.2415 133.141H82.1399V138.812H83.3059V139.914H82.1399V141.596H80.8802ZM77.8684 138.83H80.8919V134.178H80.8567L77.8684 138.795V138.83ZM87.4455 141.736C85.7521 141.736 84.5744 140.711 84.4572 139.316L84.4513 139.246H85.7052L85.7111 139.293C85.8224 140.055 86.5138 140.641 87.4572 140.641C88.5236 140.641 89.2677 139.902 89.2677 138.854V138.842C89.2619 137.805 88.5177 137.072 87.4689 137.072C86.9474 137.072 86.4963 137.225 86.1564 137.529C85.9982 137.664 85.8634 137.828 85.7521 138.016H84.6037L85.0197 133.141H90.0588V134.248H86.0802L85.8224 136.926H85.8517C86.2326 136.357 86.9357 136.035 87.7677 136.035C89.3849 136.035 90.5509 137.201 90.5509 138.818V138.83C90.5509 140.547 89.2677 141.736 87.4455 141.736Z" fill="#381C59" fill-opacity="0.5"/>
<path d="M238.462 56.8848C236.563 56.8848 235.31 55.9824 235.204 54.4941L235.198 54.4062H236.476L236.487 54.4824C236.604 55.2617 237.384 55.748 238.515 55.748C239.646 55.748 240.36 55.2383 240.36 54.4473V54.4414C240.36 53.7617 239.897 53.3926 238.778 53.1465L237.858 52.9531C236.2 52.6016 235.397 51.8398 235.397 50.5859V50.5801C235.403 49.1387 236.675 48.1484 238.462 48.1484C240.226 48.1484 241.433 49.1094 241.521 50.5273L241.526 50.627H240.249L240.243 50.5449C240.126 49.7598 239.446 49.2852 238.444 49.2852C237.396 49.291 236.728 49.7891 236.728 50.5273V50.5332C236.728 51.166 237.208 51.5527 238.263 51.7812L239.188 51.9746C240.935 52.3438 241.685 53.0527 241.685 54.3594V54.3652C241.685 55.9062 240.466 56.8848 238.462 56.8848ZM244.998 56.8672C243.779 56.8672 243.193 56.3516 243.193 55.1211V51.5879H242.308V50.5801H243.193V48.9746H244.488V50.5801H245.642V51.5879H244.488V55.0449C244.488 55.6719 244.769 55.8594 245.303 55.8594C245.437 55.8594 245.549 55.8477 245.642 55.8359V56.8145C245.496 56.8379 245.256 56.8672 244.998 56.8672ZM248.528 56.8555C247.298 56.8555 246.471 56.0996 246.471 54.9922V54.9805C246.471 53.9082 247.303 53.252 248.762 53.1641L250.438 53.0645V52.6016C250.438 51.9219 249.999 51.5117 249.214 51.5117C248.481 51.5117 248.03 51.8574 247.925 52.3496L247.913 52.4023H246.718L246.723 52.3379C246.811 51.2773 247.731 50.4629 249.249 50.4629C250.755 50.4629 251.71 51.2598 251.71 52.4961V56.7441H250.438V55.7715H250.415C250.057 56.4336 249.343 56.8555 248.528 56.8555ZM247.749 54.9629C247.749 55.502 248.194 55.8418 248.874 55.8418C249.764 55.8418 250.438 55.2383 250.438 54.4355V53.9551L248.932 54.0488C248.171 54.0957 247.749 54.4297 247.749 54.9512V54.9629ZM253.06 56.7441V50.5801H254.326V51.6348H254.355C254.554 50.9141 255.07 50.4629 255.773 50.4629C255.955 50.4629 256.113 50.4922 256.213 50.5098V51.6875C256.113 51.6465 255.89 51.6172 255.644 51.6172C254.83 51.6172 254.326 52.1504 254.326 53.0703V56.7441H253.06ZM259.549 56.8672C258.331 56.8672 257.745 56.3516 257.745 55.1211V51.5879H256.86V50.5801H257.745V48.9746L259.04 48.9746V50.5801L260.194 50.5801V51.5879L259.04 51.5879V55.0449C259.04 55.6719 259.321 55.8594 259.854 55.8594C259.989 55.8594 260.1 55.8477 260.194 55.8359V56.8145C260.047 56.8379 259.807 56.8672 259.549 56.8672ZM264.073 56.7441V48.2891H265.59L268.326 55.0391H268.362L271.104 48.2891H272.616V56.7441H271.42V50.5039H271.379L268.83 56.7441H267.858L265.309 50.5039H265.268V56.7441H264.073ZM274.827 49.6309C274.417 49.6309 274.089 49.3027 274.089 48.9043C274.089 48.5 274.417 48.1719 274.827 48.1719C275.243 48.1719 275.566 48.5 275.566 48.9043C275.566 49.3027 275.243 49.6309 274.827 49.6309ZM274.194 56.7441V50.5801H275.46V56.7441H274.194ZM276.887 56.7441V50.5801H278.152V51.5117H278.182C278.504 50.8848 279.137 50.4629 280.068 50.4629C281.422 50.4629 282.201 51.3359 282.201 52.7539V56.7441H280.93V52.9941C280.93 52.0684 280.496 51.5469 279.617 51.5469C278.727 51.5469 278.152 52.1914 278.152 53.1523V56.7441H276.887ZM286.194 56.8672C284.425 56.8672 283.27 55.6426 283.27 53.6621V53.6504C283.27 51.6816 284.436 50.4629 286.188 50.4629C287.946 50.4629 289.118 51.6758 289.118 53.6504V53.6621C289.118 55.6484 287.958 56.8672 286.194 56.8672ZM286.2 55.8066C287.19 55.8066 287.823 55.0215 287.823 53.6621V53.6504C287.823 52.3027 287.179 51.5234 286.188 51.5234C285.216 51.5234 284.565 52.3027 284.565 53.6504V53.6621C284.565 55.0273 285.21 55.8066 286.2 55.8066ZM289.332 56.7441L291.371 53.668L289.361 50.5801H290.785L292.127 52.8125H292.156L293.48 50.5801H294.881L292.853 53.627L294.857 56.7441H293.463L292.097 54.4766H292.068L290.703 56.7441H289.332ZM296.483 49.6309C296.073 49.6309 295.745 49.3027 295.745 48.9043C295.745 48.5 296.073 48.1719 296.483 48.1719C296.899 48.1719 297.221 48.5 297.221 48.9043C297.221 49.3027 296.899 49.6309 296.483 49.6309ZM295.85 56.7441V50.5801H297.116V56.7441H295.85ZM300.845 56.8672C299.275 56.8672 298.267 55.625 298.267 53.6621V53.6563C298.267 51.6934 299.287 50.4629 300.834 50.4629C301.707 50.4629 302.41 50.9023 302.779 51.6289H302.802V48.2891H304.074V56.7441H302.802V55.7012H302.779C302.41 56.4219 301.73 56.8672 300.845 56.8672ZM301.179 55.7773C302.134 55.7773 302.808 54.9453 302.808 53.6621V53.6563C302.808 52.3789 302.128 51.5469 301.179 51.5469C300.183 51.5469 299.562 52.3555 299.562 53.6563V53.6621C299.562 54.9746 300.177 55.7773 301.179 55.7773ZM306.18 49.6309C305.77 49.6309 305.442 49.3027 305.442 48.9043C305.442 48.5 305.77 48.1719 306.18 48.1719C306.596 48.1719 306.918 48.5 306.918 48.9043C306.918 49.3027 306.596 49.6309 306.18 49.6309ZM305.547 56.7441V50.5801H306.813V56.7441H305.547ZM308.286 56.7441V48.2891H309.552V56.7441H308.286Z" fill="#381C59" fill-opacity="0.5"/>
<path d="M437.502 38.7441V30.2891H439.019L441.756 37.0391H441.791L444.533 30.2891H446.045V38.7441H444.849V32.5039H444.808L442.26 38.7441H441.287L438.738 32.5039H438.697V38.7441H437.502ZM448.257 31.6309C447.846 31.6309 447.518 31.3027 447.518 30.9043C447.518 30.5 447.846 30.1719 448.257 30.1719C448.673 30.1719 448.995 30.5 448.995 30.9043C448.995 31.3027 448.673 31.6309 448.257 31.6309ZM447.624 38.7441V32.5801H448.889V38.7441H447.624ZM452.964 38.8672C451.166 38.8672 450.041 37.6309 450.041 35.6562V35.6504C450.041 33.6992 451.189 32.4629 452.947 32.4629C454.535 32.4629 455.496 33.4824 455.601 34.6426L455.607 34.6836H454.4L454.388 34.6367C454.253 34.0332 453.785 33.5234 452.959 33.5234C451.974 33.5234 451.335 34.3438 451.335 35.6621V35.668C451.335 37.0156 451.986 37.8066 452.964 37.8066C453.744 37.8066 454.242 37.3555 454.394 36.6875L454.4 36.6406H455.619L455.613 36.6816C455.478 37.918 454.447 38.8672 452.964 38.8672ZM456.635 38.7441V32.5801H457.901V33.6348H457.93C458.129 32.9141 458.645 32.4629 459.348 32.4629C459.53 32.4629 459.688 32.4922 459.788 32.5098V33.6875C459.688 33.6465 459.465 33.6172 459.219 33.6172C458.405 33.6172 457.901 34.1504 457.901 35.0703V38.7441H456.635ZM463.072 38.8672C461.302 38.8672 460.148 37.6426 460.148 35.6621V35.6504C460.148 33.6816 461.314 32.4629 463.066 32.4629C464.824 32.4629 465.995 33.6758 465.995 35.6504V35.6621C465.995 37.6484 464.835 38.8672 463.072 38.8672ZM463.077 37.8066C464.068 37.8066 464.7 37.0215 464.7 35.6621V35.6504C464.7 34.3027 464.056 33.5234 463.066 33.5234C462.093 33.5234 461.443 34.3027 461.443 35.6504V35.6621C461.443 37.0273 462.087 37.8066 463.077 37.8066ZM469.651 38.7441V32.5801H470.917V33.5117H470.946C471.269 32.8848 471.901 32.4629 472.833 32.4629C474.187 32.4629 474.966 33.3359 474.966 34.7539V38.7441H473.694V34.9941C473.694 34.0684 473.261 33.5469 472.382 33.5469C471.491 33.5469 470.917 34.1914 470.917 35.1523V38.7441H469.651ZM478.941 38.8672C477.131 38.8672 476.035 37.6309 476.035 35.6855V35.6797C476.035 33.752 477.148 32.4629 478.877 32.4629C480.605 32.4629 481.666 33.7051 481.666 35.5566V35.9844H477.301C477.324 37.1504 477.963 37.8301 478.971 37.8301C479.721 37.8301 480.219 37.4434 480.377 36.9805L480.394 36.9336H481.596L481.584 36.998C481.385 37.9766 480.435 38.8672 478.941 38.8672ZM478.883 33.5C478.062 33.5 477.43 34.0566 477.318 35.0879H480.412C480.307 34.0215 479.709 33.5 478.883 33.5ZM485.401 38.8672C483.591 38.8672 482.495 37.6309 482.495 35.6855V35.6797C482.495 33.752 483.608 32.4629 485.337 32.4629C487.065 32.4629 488.126 33.7051 488.126 35.5566V35.9844H483.761C483.784 37.1504 484.423 37.8301 485.43 37.8301C486.18 37.8301 486.679 37.4434 486.837 36.9805L486.854 36.9336H488.055L488.044 36.998C487.845 37.9766 486.895 38.8672 485.401 38.8672ZM485.343 33.5C484.522 33.5 483.889 34.0566 483.778 35.0879H486.872C486.766 34.0215 486.169 33.5 485.343 33.5ZM491.533 38.8672C489.963 38.8672 488.955 37.625 488.955 35.6621V35.6563C488.955 33.6934 489.974 32.4629 491.521 32.4629C492.394 32.4629 493.097 32.9023 493.467 33.6289H493.49V30.2891H494.761V38.7441H493.49V37.7012H493.467C493.097 38.4219 492.418 38.8672 491.533 38.8672ZM491.867 37.7773C492.822 37.7773 493.496 36.9453 493.496 35.6621V35.6563C493.496 34.3789 492.816 33.5469 491.867 33.5469C490.871 33.5469 490.25 34.3555 490.25 35.6563V35.6621C490.25 36.9746 490.865 37.7773 491.867 37.7773ZM496.229 38.7441V30.2891H497.495V38.7441L496.229 38.7441ZM499.601 31.6309C499.191 31.6309 498.863 31.3027 498.863 30.9043C498.863 30.5 499.191 30.1719 499.601 30.1719C500.017 30.1719 500.339 30.5 500.339 30.9043C500.339 31.3027 500.017 31.6309 499.601 31.6309ZM498.968 38.7441V32.5801L500.234 32.5801V38.7441H498.968ZM501.66 38.7441V32.5801H502.926V33.5117H502.955C503.278 32.8848 503.91 32.4629 504.842 32.4629C506.196 32.4629 506.975 33.3359 506.975 34.7539V38.7441H505.703V34.9941C505.703 34.0684 505.27 33.5469 504.391 33.5469C503.5 33.5469 502.926 34.1914 502.926 35.1523V38.7441H501.66ZM511.021 40.918C509.439 40.918 508.437 40.1855 508.249 39.2422L508.243 39.1895H509.497L509.521 39.2363C509.691 39.6289 510.224 39.8984 511.015 39.8984C512.023 39.8984 512.579 39.3594 512.579 38.498V37.6543H512.55C512.198 38.3223 511.495 38.75 510.611 38.75C509.064 38.75 508.044 37.5371 508.044 35.6152V35.6094C508.044 33.6758 509.075 32.4629 510.64 32.4629C511.507 32.4629 512.187 32.9316 512.55 33.6289H512.579V32.5801H513.851V38.5742C513.851 39.9805 512.761 40.918 511.021 40.918ZM510.968 37.7188C511.935 37.7188 512.579 36.9043 512.579 35.6328V35.627C512.579 34.3613 511.929 33.5469 510.968 33.5469C509.966 33.5469 509.339 34.3555 509.339 35.627V35.6328C509.339 36.9219 509.966 37.7188 510.968 37.7188ZM454.289 52.8848C452.39 52.8848 451.136 51.9824 451.031 50.4941L451.025 50.4062H452.302L452.314 50.4824C452.431 51.2617 453.21 51.748 454.341 51.748C455.472 51.748 456.187 51.2383 456.187 50.4473V50.4414C456.187 49.7617 455.724 49.3926 454.605 49.1465L453.685 48.9531C452.027 48.6016 451.224 47.8398 451.224 46.5859V46.5801C451.23 45.1387 452.502 44.1484 454.289 44.1484C456.052 44.1484 457.259 45.1094 457.347 46.5273L457.353 46.627H456.076L456.07 46.5449C455.953 45.7598 455.273 45.2852 454.271 45.2852C453.222 45.291 452.554 45.7891 452.554 46.5273V46.5332C452.554 47.166 453.035 47.5527 454.089 47.7812L455.015 47.9746C456.761 48.3438 457.511 49.0527 457.511 50.3594V50.3652C457.511 51.9062 456.293 52.8848 454.289 52.8848ZM461.293 52.8672C459.483 52.8672 458.387 51.6309 458.387 49.6855V49.6797C458.387 47.752 459.5 46.4629 461.229 46.4629C462.957 46.4629 464.018 47.7051 464.018 49.5566V49.9844H459.653C459.676 51.1504 460.315 51.8301 461.323 51.8301C462.073 51.8301 462.571 51.4434 462.729 50.9805L462.747 50.9336H463.948L463.936 50.998C463.737 51.9766 462.788 52.8672 461.293 52.8672ZM461.235 47.5C460.414 47.5 459.782 48.0566 459.67 49.0879H462.764C462.659 48.0215 462.061 47.5 461.235 47.5ZM467.431 52.8672C465.89 52.8672 464.988 52.1055 464.859 50.9805L464.853 50.9277H466.107L466.118 50.9863C466.236 51.5547 466.658 51.8887 467.437 51.8887C468.199 51.8887 468.656 51.5723 468.656 51.0742V51.0684C468.656 50.6699 468.433 50.4414 467.771 50.2832L466.763 50.0547C465.591 49.7852 465.011 49.2227 465.011 48.3262V48.3203C465.011 47.2188 465.972 46.4629 467.39 46.4629C468.849 46.4629 469.728 47.2773 469.792 48.3262L469.798 48.3965L468.609 48.3965L468.603 48.3555C468.527 47.8164 468.105 47.4414 467.39 47.4414C466.71 47.4414 466.283 47.7637 466.283 48.2559V48.2617C466.283 48.6426 466.534 48.9004 467.197 49.0586L468.199 49.2871C469.458 49.5801 469.939 50.0781 469.939 50.9629V50.9688C469.939 52.0938 468.884 52.8672 467.431 52.8672ZM473.352 52.8672C471.811 52.8672 470.908 52.1055 470.779 50.9805L470.774 50.9277H472.028L472.039 50.9863C472.156 51.5547 472.578 51.8887 473.358 51.8887C474.119 51.8887 474.576 51.5723 474.576 51.0742V51.0684C474.576 50.6699 474.354 50.4414 473.692 50.2832L472.684 50.0547C471.512 49.7852 470.932 49.2227 470.932 48.3262V48.3203C470.932 47.2188 471.893 46.4629 473.311 46.4629C474.77 46.4629 475.649 47.2773 475.713 48.3262L475.719 48.3965H474.529L474.524 48.3555C474.447 47.8164 474.026 47.4414 473.311 47.4414C472.631 47.4414 472.203 47.7637 472.203 48.2559V48.2617C472.203 48.6426 472.455 48.9004 473.117 49.0586L474.119 49.2871C475.379 49.5801 475.86 50.0781 475.86 50.9629V50.9688C475.86 52.0938 474.805 52.8672 473.352 52.8672ZM477.649 45.6309C477.239 45.6309 476.911 45.3027 476.911 44.9043C476.911 44.5 477.239 44.1719 477.649 44.1719C478.065 44.1719 478.388 44.5 478.388 44.9043C478.388 45.3027 478.065 45.6309 477.649 45.6309ZM477.017 52.7441V46.5801H478.282V52.7441H477.017ZM482.357 52.8672C480.588 52.8672 479.434 51.6426 479.434 49.6621V49.6504C479.434 47.6816 480.6 46.4629 482.352 46.4629C484.109 46.4629 485.281 47.6758 485.281 49.6504V49.6621C485.281 51.6484 484.121 52.8672 482.357 52.8672ZM482.363 51.8066C483.353 51.8066 483.986 51.0215 483.986 49.6621V49.6504C483.986 48.3027 483.342 47.5234 482.352 47.5234C481.379 47.5234 480.728 48.3027 480.728 49.6504V49.6621C480.728 51.0273 481.373 51.8066 482.363 51.8066ZM486.38 52.7441V46.5801H487.645V47.5117H487.675C487.997 46.8848 488.63 46.4629 489.561 46.4629C490.915 46.4629 491.694 47.3359 491.694 48.7539V52.7441H490.423V48.9941C490.423 48.0684 489.989 47.5469 489.11 47.5469C488.22 47.5469 487.645 48.1914 487.645 49.1523V52.7441H486.38ZM497.764 52.7441V45.5898H497.735L495.526 47.1133V45.8711L497.753 44.2891H499.047V52.7441H497.764Z" fill="#381C59" fill-opacity="0.5"/>
<path d="M628.133 45.7441V37.2891H631.28C632.938 37.2891 634.086 38.4023 634.086 40.0605V40.0723C634.086 41.7246 632.938 42.8555 631.28 42.8555H629.446V45.7441H628.133ZM630.951 38.3965H629.446V41.7539H630.951C632.094 41.7539 632.75 41.1387 632.75 40.0781V40.0664C632.75 39.0117 632.094 38.3965 630.951 38.3965ZM635.355 45.7441V37.2891H638.636C640.364 37.2891 641.454 38.291 641.454 39.8789V39.8906C641.454 41.0391 640.827 41.9531 639.814 42.2988L641.706 45.7441H640.194L638.472 42.498H636.667V45.7441H635.355ZM636.667 41.4199H638.507C639.521 41.4199 640.101 40.8633 640.101 39.9023V39.8906C640.101 38.9531 639.48 38.3906 638.472 38.3906H636.667V41.4199ZM642.846 45.7441V37.2891H645.992C647.65 37.2891 648.799 38.4023 648.799 40.0605V40.0723C648.799 41.7246 647.65 42.8555 645.992 42.8555H644.158V45.7441H642.846ZM645.664 38.3965H644.158V41.7539H645.664C646.807 41.7539 647.463 41.1387 647.463 40.0781V40.0664C647.463 39.0117 646.807 38.3965 645.664 38.3965ZM654.722 45.7441V38.4199H652.133V37.2891H658.619V38.4199H656.035V45.7441H654.722ZM658.51 45.7441V39.5801H659.776V40.6348H659.805C660.005 39.9141 660.52 39.4629 661.223 39.4629C661.405 39.4629 661.563 39.4922 661.663 39.5098V40.6875C661.563 40.6465 661.34 40.6172 661.094 40.6172C660.28 40.6172 659.776 41.1504 659.776 42.0703V45.7441H658.51ZM664.929 45.8672C663.119 45.8672 662.023 44.6309 662.023 42.6855V42.6797C662.023 40.752 663.136 39.4629 664.865 39.4629C666.593 39.4629 667.654 40.7051 667.654 42.5566V42.9844H663.289C663.312 44.1504 663.951 44.8301 664.958 44.8301C665.708 44.8301 666.207 44.4434 666.365 43.9805L666.382 43.9336H667.583L667.572 43.998C667.373 44.9766 666.423 45.8672 664.929 45.8672ZM664.871 40.5C664.05 40.5 663.417 41.0566 663.306 42.0879H666.4C666.294 41.0215 665.697 40.5 664.871 40.5ZM670.569 45.8555C669.338 45.8555 668.512 45.0996 668.512 43.9922V43.9805C668.512 42.9082 669.344 42.252 670.803 42.1641L672.479 42.0645V41.6016C672.479 40.9219 672.039 40.5117 671.254 40.5117C670.522 40.5117 670.071 40.8574 669.965 41.3496L669.953 41.4023H668.758L668.764 41.3379C668.852 40.2773 669.772 39.4629 671.289 39.4629C672.795 39.4629 673.75 40.2598 673.75 41.4961V45.7441H672.479V44.7715H672.455C672.098 45.4336 671.383 45.8555 670.569 45.8555ZM669.789 43.9629C669.789 44.502 670.235 44.8418 670.914 44.8418C671.805 44.8418 672.479 44.2383 672.479 43.4355V42.9551L670.973 43.0488C670.211 43.0957 669.789 43.4297 669.789 43.9512V43.9629ZM677.263 45.8672C676.044 45.8672 675.458 45.3516 675.458 44.1211V40.5879H674.573V39.5801H675.458V37.9746H676.753V39.5801H677.907V40.5879H676.753V44.0449C676.753 44.6719 677.034 44.8594 677.568 44.8594C677.702 44.8594 677.814 44.8477 677.907 44.8359V45.8145C677.761 45.8379 677.521 45.8672 677.263 45.8672ZM679.076 45.7441V39.5801H680.342V40.5352H680.371C680.635 39.8906 681.262 39.4629 682.07 39.4629C682.92 39.4629 683.541 39.9023 683.787 40.6758H683.817C684.133 39.9258 684.86 39.4629 685.738 39.4629C686.957 39.4629 687.754 40.2715 687.754 41.5078V45.7441L686.483 45.7441V41.8125C686.483 41.0098 686.055 40.5469 685.305 40.5469C684.555 40.5469 684.033 41.1094 684.033 41.8887V45.7441H682.791V41.7188C682.791 41.0039 682.34 40.5469 681.625 40.5469C680.875 40.5469 680.342 41.1387 680.342 41.9355V45.7441H679.076ZM691.73 45.8672C689.919 45.8672 688.823 44.6309 688.823 42.6855V42.6797C688.823 40.752 689.937 39.4629 691.665 39.4629C693.394 39.4629 694.454 40.7051 694.454 42.5566V42.9844H690.089C690.112 44.1504 690.751 44.8301 691.759 44.8301C692.509 44.8301 693.007 44.4434 693.165 43.9805L693.183 43.9336H694.384L694.372 43.998C694.173 44.9766 693.224 45.8672 691.73 45.8672ZM691.671 40.5C690.851 40.5 690.218 41.0566 690.106 42.0879L693.2 42.0879C693.095 41.0215 692.497 40.5 691.671 40.5ZM695.558 45.7441V39.5801H696.824V40.5117H696.853C697.176 39.8848 697.808 39.4629 698.74 39.4629C700.094 39.4629 700.873 40.3359 700.873 41.7539V45.7441H699.601V41.9941C699.601 41.0684 699.168 40.5469 698.289 40.5469C697.398 40.5469 696.824 41.1914 696.824 42.1523V45.7441H695.558ZM704.38 45.8672C703.161 45.8672 702.575 45.3516 702.575 44.1211V40.5879H701.69V39.5801H702.575V37.9746H703.87V39.5801H705.024V40.5879H703.87V44.0449C703.87 44.6719 704.151 44.8594 704.684 44.8594C704.819 44.8594 704.93 44.8477 705.024 44.8359V45.8145C704.878 45.8379 704.637 45.8672 704.38 45.8672Z" fill="#381C59" fill-opacity="0.5"/>
<path d="M817.692 22.7363C815.888 22.7363 814.71 21.752 814.593 20.375L814.587 20.2988H815.847L815.852 20.3633C815.934 21.1133 816.643 21.6406 817.692 21.6406C818.723 21.6406 819.421 21.0664 819.421 20.2461V20.2344C819.421 19.2793 818.729 18.7461 817.598 18.7461H816.573V17.7266H817.563C818.53 17.7266 819.186 17.1582 819.186 16.373V16.3613C819.186 15.5469 818.636 15.0723 817.681 15.0723C816.743 15.0723 816.087 15.5645 816.005 16.3496L815.999 16.4023H814.768L814.774 16.3438C814.903 14.9316 816.028 14 817.681 14C819.362 14 820.464 14.8906 820.464 16.1914V16.2031C820.464 17.252 819.714 17.9551 818.682 18.1719V18.2012C819.925 18.3125 820.757 19.0625 820.757 20.2461V20.2578C820.757 21.7051 819.485 22.7363 817.692 22.7363ZM822.183 19.7363V18.5938H825.951V19.7363H822.183ZM827.571 22.5957V14.1406L829.088 14.1406L831.825 20.8906H831.86L834.602 14.1406H836.114V22.5957H834.919V16.3555H834.878L832.329 22.5957H831.356L828.807 16.3555H828.766V22.5957H827.571ZM840.289 22.7188C838.519 22.7188 837.365 21.4941 837.365 19.5137V19.502C837.365 17.5332 838.531 16.3145 840.283 16.3145C842.041 16.3145 843.212 17.5273 843.212 19.502V19.5137C843.212 21.5 842.052 22.7188 840.289 22.7188ZM840.294 21.6582C841.285 21.6582 841.917 20.873 841.917 19.5137V19.502C841.917 18.1543 841.273 17.375 840.283 17.375C839.31 17.375 838.66 18.1543 838.66 19.502V19.5137C838.66 20.8789 839.304 21.6582 840.294 21.6582ZM844.311 22.5957V16.4316H845.577V17.3633H845.606C845.928 16.7363 846.561 16.3145 847.493 16.3145C848.846 16.3145 849.625 17.1875 849.625 18.6055V22.5957H848.354V18.8457C848.354 17.9199 847.92 17.3984 847.041 17.3984C846.151 17.3984 845.577 18.043 845.577 19.0039V22.5957H844.311ZM853.132 22.7188C851.913 22.7188 851.327 22.2031 851.327 20.9727V17.4395H850.443V16.4316H851.327V14.8262H852.622V16.4316H853.777V17.4395H852.622V20.8965C852.622 21.5234 852.904 21.7109 853.437 21.7109C853.572 21.7109 853.683 21.6992 853.777 21.6875V22.666C853.63 22.6895 853.39 22.7188 853.132 22.7188ZM854.992 22.5957V14.1406H856.258V17.4453H856.287C856.615 16.7305 857.277 16.3145 858.197 16.3145C859.516 16.3145 860.383 17.2988 860.383 18.7871V22.5957H859.117V19.0273C859.117 18.0078 858.602 17.3984 857.711 17.3984C856.838 17.3984 856.258 18.0664 856.258 19.0273V22.5957H854.992ZM868.058 22.7363C865.662 22.7363 864.139 21.0488 864.139 18.3652V18.3594C864.139 15.6758 865.662 14 868.058 14C869.922 14 871.322 15.1484 871.586 16.8184L871.598 16.8711H870.297L870.262 16.7539C869.98 15.7637 869.195 15.1602 868.058 15.1602C866.488 15.1602 865.48 16.4023 865.48 18.3594V18.3652C865.48 20.3223 866.494 21.5762 868.058 21.5762C869.183 21.5762 869.963 20.9902 870.279 19.918L870.297 19.8652H871.598L871.592 19.9238C871.328 21.6055 869.928 22.7363 868.058 22.7363ZM872.802 22.5957V14.1406L874.067 14.1406V17.4453H874.096C874.425 16.7305 875.087 16.3145 876.007 16.3145C877.325 16.3145 878.192 17.2988 878.192 18.7871V22.5957H876.927V19.0273C876.927 18.0078 876.411 17.3984 875.52 17.3984C874.647 17.3984 874.067 18.0664 874.067 19.0273V22.5957H872.802ZM882.173 22.7188C880.363 22.7188 879.267 21.4824 879.267 19.5371V19.5313C879.267 17.6035 880.381 16.3145 882.109 16.3145C883.838 16.3145 884.898 17.5566 884.898 19.4082V19.8359H880.533C880.556 21.002 881.195 21.6816 882.203 21.6816C882.953 21.6816 883.451 21.2949 883.609 20.832L883.627 20.7852H884.828L884.816 20.8496C884.617 21.8281 883.668 22.7188 882.173 22.7188ZM882.115 17.3516C881.295 17.3516 880.662 17.9082 880.55 18.9395H883.644C883.539 17.873 882.941 17.3516 882.115 17.3516ZM888.651 22.7188C886.852 22.7188 885.727 21.4824 885.727 19.5078V19.502C885.727 17.5508 886.876 16.3145 888.633 16.3145C890.221 16.3145 891.182 17.334 891.288 18.4941L891.293 18.5352H890.086L890.075 18.4883C889.94 17.8848 889.471 17.375 888.645 17.375C887.661 17.375 887.022 18.1953 887.022 19.5137V19.5195C887.022 20.8672 887.672 21.6582 888.651 21.6582C889.43 21.6582 889.928 21.207 890.081 20.5391L890.086 20.4922H891.305L891.299 20.5332C891.165 21.7695 890.133 22.7188 888.651 22.7188ZM892.392 22.5957V14.1406H893.658V19.0625H893.687L896.16 16.4316H897.648L895.117 19.0918L897.747 22.5957H896.277L894.185 19.8535L893.658 20.375V22.5957H892.392ZM900.598 22.7188C899.244 22.7188 898.471 21.8457 898.471 20.4277V16.4316H899.737V20.1816C899.737 21.1133 900.17 21.6289 901.049 21.6289C901.94 21.6289 902.514 20.9902 902.514 20.0293V16.4316H903.785V22.5957H902.514V21.6699H902.485C902.162 22.291 901.535 22.7188 900.598 22.7188ZM905.159 24.6465V16.4316H906.425V17.4922H906.454C906.823 16.7598 907.503 16.3145 908.382 16.3145C909.952 16.3145 910.96 17.5449 910.96 19.5137V19.5195C910.96 21.4824 909.946 22.7188 908.4 22.7188C907.527 22.7188 906.818 22.2734 906.454 21.5586H906.425V24.6465H905.159ZM908.054 21.6289C909.05 21.6289 909.671 20.8203 909.671 19.5195V19.5137C909.671 18.2012 909.044 17.3984 908.054 17.3984C907.093 17.3984 906.419 18.2305 906.419 19.5137V19.5195C906.419 20.7969 907.099 21.6289 908.054 21.6289Z" fill="#381C59" fill-opacity="0.5"/>
</svg>
