<svg width="760" height="250" viewBox="0 0 760 250" fill="none" xmlns="http://www.w3.org/2000/svg">
<path d="M23 164.091L13.1357 164.091L13.1357 162.56L17.3057 162.56L17.3057 157.494L13.1357 157.494L13.1357 155.963L23 155.963L23 157.494L18.6318 157.494L18.6318 162.56L23 162.56L23 164.091ZM23.1436 151.12C23.1436 153.232 21.7012 154.51 19.4316 154.51L19.4248 154.51C17.1758 154.51 15.6719 153.212 15.6719 151.195C15.6719 149.178 17.1211 147.941 19.2812 147.941L19.7803 147.941L19.7803 153.034C21.1406 153.006 21.9336 152.261 21.9336 151.086C21.9336 150.211 21.4824 149.63 20.9424 149.445L20.8877 149.424L20.8877 148.023L20.9629 148.037C22.1045 148.269 23.1436 149.377 23.1436 151.12ZM16.8818 151.188C16.8818 152.145 17.5312 152.883 18.7344 153.013L18.7344 149.404C17.4902 149.527 16.8818 150.224 16.8818 151.188ZM23.1299 144.54C23.1299 145.976 22.248 146.94 20.9561 146.94L20.9424 146.94C19.6914 146.94 18.9258 145.969 18.8232 144.267L18.707 142.312L18.167 142.312C17.374 142.312 16.8955 142.824 16.8955 143.741C16.8955 144.595 17.2988 145.121 17.873 145.244L17.9346 145.258L17.9346 146.653L17.8594 146.646C16.6221 146.543 15.6719 145.47 15.6719 143.699C15.6719 141.943 16.6016 140.828 18.0439 140.828L23 140.828L23 142.312L21.8652 142.312L21.8652 142.339C22.6377 142.756 23.1299 143.59 23.1299 144.54ZM20.9219 145.449C21.5508 145.449 21.9473 144.93 21.9473 144.137C21.9473 143.098 21.2432 142.312 20.3066 142.312L19.7461 142.312L19.8555 144.069C19.9102 144.957 20.2998 145.449 20.9082 145.449L20.9219 145.449ZM23 139.198L13.1357 139.198L13.1357 137.722L23 137.722L23 139.198ZM23.1436 133.542C23.1436 134.963 22.542 135.647 21.1064 135.647L16.9844 135.647L16.9844 136.679L15.8086 136.679L15.8086 135.647L13.9355 135.647L13.9355 134.136L15.8086 134.136L15.8086 132.79L16.9844 132.79L16.9844 134.136L21.0176 134.136C21.749 134.136 21.9678 133.808 21.9678 133.186C21.9678 133.029 21.9541 132.899 21.9404 132.79L23.082 132.79C23.1094 132.961 23.1436 133.241 23.1436 133.542ZM23 131.371L13.1357 131.371L13.1357 129.895L16.9912 129.895L16.9912 129.861C16.1572 129.478 15.6719 128.705 15.6719 127.632C15.6719 126.094 16.8203 125.082 18.5566 125.082L23 125.082L23 126.559L18.8369 126.559C17.6475 126.559 16.9365 127.16 16.9365 128.199C16.9365 129.218 17.7158 129.895 18.8369 129.895L23 129.895L23 131.371ZM23.1641 116.982C23.1641 119.197 22.1113 120.66 20.375 120.783L20.2725 120.79L20.2725 119.299L20.3613 119.286C21.2705 119.149 21.8379 118.24 21.8379 116.92C21.8379 115.601 21.2432 114.767 20.3203 114.767L20.3135 114.767C19.5205 114.767 19.0898 115.307 18.8027 116.613L18.5771 117.686C18.167 119.621 17.2783 120.557 15.8154 120.557L15.8086 120.557C14.127 120.55 12.9717 119.067 12.9717 116.982C12.9717 114.924 14.0928 113.516 15.7471 113.414L15.8633 113.407L15.8633 114.897L15.7676 114.904C14.8516 115.041 14.2978 115.833 14.2978 117.002C14.3047 118.226 14.8857 119.005 15.7471 119.005L15.7539 119.005C16.4922 119.005 16.9434 118.445 17.21 117.214L17.4355 116.134C17.8662 114.097 18.6934 113.222 20.2178 113.222L20.2246 113.222C22.0225 113.222 23.1641 114.644 23.1641 116.982ZM23.1436 108.789C23.1436 110.888 21.7012 112.2 19.3975 112.2L19.3906 112.2C17.1143 112.2 15.6719 110.86 15.6719 108.81C15.6719 106.957 16.8613 105.836 18.2148 105.713L18.2627 105.706L18.2627 107.114L18.208 107.128C17.5039 107.285 16.9092 107.832 16.9092 108.796C16.9092 109.944 17.8662 110.69 19.4043 110.69L19.4111 110.69C20.9834 110.69 21.9062 109.931 21.9062 108.789C21.9062 107.88 21.3799 107.299 20.6006 107.121L20.5459 107.114L20.5459 105.693L20.5937 105.699C22.0361 105.857 23.1436 107.06 23.1436 108.789ZM23.1436 101.417C23.1436 103.481 21.7148 104.828 19.4043 104.828L19.3906 104.828C17.0937 104.828 15.6719 103.468 15.6719 101.424C15.6719 99.3728 17.0869 98.0056 19.3906 98.0056L19.4043 98.0056C21.7217 98.0056 23.1436 99.3591 23.1436 101.417ZM21.9062 101.41C21.9062 100.255 20.9902 99.5164 19.4043 99.5164L19.3906 99.5164C17.8184 99.5164 16.9092 100.268 16.9092 101.424C16.9092 102.558 17.8184 103.317 19.3906 103.317L19.4043 103.317C20.9971 103.317 21.9062 102.565 21.9062 101.41ZM23 96.724L15.8086 96.724L15.8086 95.2475L17.0391 95.2475L17.0391 95.2133C16.1982 94.9809 15.6719 94.3793 15.6719 93.559C15.6719 93.3471 15.7061 93.1625 15.7266 93.0463L17.1006 93.0463C17.0527 93.1625 17.0186 93.4223 17.0186 93.7094C17.0186 94.6596 17.6406 95.2475 18.7139 95.2475L23 95.2475L23 96.724ZM23.1436 89.2354C23.1436 91.3477 21.7012 92.626 19.4316 92.626L19.4248 92.626C17.1758 92.626 15.6719 91.3272 15.6719 89.3106C15.6719 87.294 17.1211 86.0567 19.2812 86.0567L19.7803 86.0567L19.7803 91.1495C21.1406 91.1221 21.9336 90.377 21.9336 89.2012C21.9336 88.3262 21.4824 87.7452 20.9424 87.5606L20.8877 87.5401L20.8877 86.1387L20.9629 86.1524C22.1045 86.3848 23.1436 87.4922 23.1436 89.2354ZM16.8818 89.3037C16.8818 90.2608 17.5312 90.9991 18.7344 91.1289L18.7344 87.5196C17.4902 87.6426 16.8818 88.3399 16.8818 89.3037Z" fill="#381C59"/>
<path d="M47.2627 177.5C78.9176 143.223 173.566 76.1384 298.919 82.0142C455.61 89.3589 479.351 92.5063 555.323 68.3726C616.1 49.0656 710.431 33.7463 750 28.5" stroke="#381C59" stroke-width="4" stroke-linecap="round"/>
<mask id="path-3-inside-1_1_2160" fill="white">
<path d="M32 192.5H750V221.5H32V192.5Z"/>
</mask>
<path d="M32 192.5V193.5H750V192.5V191.5H32V192.5Z" fill="#381C59" fill-opacity="0.15" mask="url(#path-3-inside-1_1_2160)"/>
<path d="M34.6309 218.641C33.166 218.641 32.3398 217.732 32.252 216.52L32.2461 216.438H33.3008L33.3066 216.496C33.3711 217.135 33.7871 217.668 34.625 217.668C35.5625 217.668 36.0664 217.111 36.0664 216.08V210.045H37.1211V216.092C37.1211 217.691 36.1953 218.641 34.6309 218.641ZM40.3876 218.617C39.1747 218.617 38.3602 217.885 38.3602 216.777V216.766C38.3602 215.729 39.1688 215.078 40.5692 214.996L42.3153 214.896V214.387C42.3153 213.643 41.829 213.191 40.9794 213.191C40.1942 213.191 39.702 213.566 39.5848 214.111L39.5731 214.164H38.5887L38.5946 214.1C38.6825 213.098 39.5555 212.289 40.9911 212.289C42.4325 212.289 43.3348 213.068 43.3348 214.287V218.5H42.3153V217.51H42.2919C41.9345 218.178 41.202 218.617 40.3876 218.617ZM39.4032 216.777C39.4032 217.363 39.8837 217.732 40.6161 217.732C41.577 217.732 42.3153 217.07 42.3153 216.186V215.688L40.6864 215.787C39.872 215.834 39.4032 216.197 39.4032 216.766V216.777ZM44.7498 218.5V212.406H45.7693V213.273H45.7927C46.1209 212.705 46.742 212.289 47.6677 212.289C49.0037 212.289 49.7771 213.156 49.7771 214.545V218.5H48.7576V214.727C48.7576 213.736 48.2947 213.191 47.3572 213.191C46.3962 213.191 45.7693 213.877 45.7693 214.914V218.5H44.7498Z" fill="#381C59" fill-opacity="0.64"/>
<path d="M171.62 218.5V210.045H176.753V210.994H172.675V213.9H176.419V214.838H172.675V218.5H171.62ZM180.195 218.617C178.443 218.617 177.389 217.393 177.389 215.477V215.471C177.389 213.584 178.467 212.289 180.131 212.289C181.795 212.289 182.809 213.525 182.809 215.354V215.729H178.42C178.443 216.982 179.135 217.715 180.219 217.715C180.992 217.715 181.537 217.328 181.713 216.807L181.731 216.754H182.733L182.721 216.812C182.522 217.82 181.526 218.617 180.195 218.617ZM180.125 213.191C179.24 213.191 178.549 213.795 178.438 214.932H181.772C181.672 213.748 181.016 213.191 180.125 213.191ZM186.989 218.617C186.116 218.617 185.437 218.178 185.056 217.469H185.032V218.5H184.013V210.045H185.032V213.426H185.056C185.437 212.723 186.146 212.289 187.007 212.289C188.536 212.289 189.579 213.525 189.579 215.447V215.453C189.579 217.375 188.548 218.617 186.989 218.617ZM186.79 217.715C187.868 217.715 188.536 216.854 188.536 215.453V215.447C188.536 214.059 187.868 213.191 186.79 213.191C185.765 213.191 185.026 214.088 185.026 215.447V215.453C185.026 216.818 185.759 217.715 186.79 217.715Z" fill="#381C59" fill-opacity="0.64"/>
<path d="M311.42 218.5V210.045H312.639L315.569 217.17H315.604L318.534 210.045H319.752V218.5H318.768V211.967H318.733L316.032 218.5H315.141L312.44 211.967H312.405V218.5H311.42ZM322.96 218.617C321.747 218.617 320.933 217.885 320.933 216.777V216.766C320.933 215.729 321.742 215.078 323.142 214.996L324.888 214.896V214.387C324.888 213.643 324.402 213.191 323.552 213.191C322.767 213.191 322.275 213.566 322.158 214.111L322.146 214.164H321.162L321.167 214.1C321.255 213.098 322.128 212.289 323.564 212.289C325.005 212.289 325.908 213.068 325.908 214.287V218.5H324.888V217.51H324.865C324.507 218.178 323.775 218.617 322.96 218.617ZM321.976 216.777C321.976 217.363 322.456 217.732 323.189 217.732C324.15 217.732 324.888 217.07 324.888 216.186V215.688L323.259 215.787C322.445 215.834 321.976 216.197 321.976 216.766V216.777ZM327.323 218.5V212.406H328.342V213.438H328.365C328.571 212.734 329.098 212.289 329.783 212.289C329.959 212.289 330.112 212.318 330.194 212.33V213.32C330.112 213.291 329.895 213.262 329.649 213.262C328.858 213.262 328.342 213.812 328.342 214.738V218.5H327.323Z" fill="#381C59" fill-opacity="0.64"/>
<path d="M450.546 218.5L453.693 210.045H454.736L457.876 218.5H456.769L455.914 216.08H452.509L451.654 218.5H450.546ZM454.203 211.311L452.832 215.184H455.597L454.226 211.311H454.203ZM458.811 220.551V212.406H459.83V213.438H459.854C460.235 212.729 460.914 212.289 461.787 212.289C463.346 212.289 464.377 213.531 464.377 215.453V215.459C464.377 217.381 463.334 218.617 461.805 218.617C460.944 218.617 460.235 218.184 459.854 217.48H459.83V220.551H458.811ZM461.588 217.715C462.666 217.715 463.334 216.848 463.334 215.459V215.453C463.334 214.053 462.666 213.191 461.588 213.191C460.557 213.191 459.825 214.088 459.825 215.453V215.459C459.825 216.818 460.563 217.715 461.588 217.715ZM465.529 218.5V212.406H466.548V213.438H466.572C466.777 212.734 467.304 212.289 467.99 212.289C468.165 212.289 468.318 212.318 468.4 212.33V213.32C468.318 213.291 468.101 213.262 467.855 213.262C467.064 213.262 466.548 213.812 466.548 214.738V218.5H465.529Z" fill="#381C59" fill-opacity="0.64"/>
<path d="M590.02 218.5V210.045H591.239L594.169 217.17H594.204L597.134 210.045H598.352V218.5H597.368V211.967H597.333L594.632 218.5H593.741L591.04 211.967H591.005V218.5H590.02ZM601.56 218.617C600.347 218.617 599.533 217.885 599.533 216.777V216.766C599.533 215.729 600.341 215.078 601.742 214.996L603.488 214.896V214.387C603.488 213.643 603.002 213.191 602.152 213.191C601.367 213.191 600.875 213.566 600.757 214.111L600.746 214.164H599.761L599.767 214.1C599.855 213.098 600.728 212.289 602.164 212.289C603.605 212.289 604.507 213.068 604.507 214.287V218.5H603.488V217.51H603.464C603.107 218.178 602.375 218.617 601.56 218.617ZM600.576 216.777C600.576 217.363 601.056 217.732 601.789 217.732C602.75 217.732 603.488 217.07 603.488 216.186V215.688L601.859 215.787C601.045 215.834 600.576 216.197 600.576 216.766V216.777ZM606.508 220.551C606.309 220.551 606.092 220.527 605.963 220.504V219.672C606.051 219.689 606.168 219.707 606.292 219.707C606.936 219.707 607.293 219.543 607.54 218.852L607.663 218.506L605.401 212.406H606.491L608.172 217.48H608.196L609.883 212.406H610.956L608.577 218.881C608.143 220.047 607.61 220.551 606.508 220.551Z" fill="#381C59" fill-opacity="0.64"/>
<path d="M733.631 218.641C732.166 218.641 731.34 217.732 731.252 216.52L731.246 216.438H732.301L732.307 216.496C732.371 217.135 732.787 217.668 733.625 217.668C734.562 217.668 735.066 217.111 735.066 216.08V210.045H736.121V216.092C736.121 217.691 735.195 218.641 733.631 218.641ZM739.804 218.617C738.468 218.617 737.694 217.75 737.694 216.361V212.406H738.714V216.18C738.714 217.17 739.177 217.715 740.114 217.715C741.075 217.715 741.702 217.029 741.702 215.992V212.406H742.722V218.5H741.702V217.633H741.679C741.35 218.201 740.729 218.617 739.804 218.617ZM744.172 218.5V212.406H745.191V213.273H745.215C745.543 212.705 746.164 212.289 747.09 212.289C748.426 212.289 749.199 213.156 749.199 214.545V218.5H748.179V214.727C748.179 213.736 747.717 213.191 746.779 213.191C745.818 213.191 745.191 213.877 745.191 214.914V218.5H744.172Z" fill="#381C59" fill-opacity="0.64"/>
<path d="M687.262 20.6406C685.364 20.6406 684.11 19.7383 684.004 18.25L683.999 18.1621H685.276L685.288 18.2383C685.405 19.0176 686.184 19.5039 687.315 19.5039C688.446 19.5039 689.161 18.9941 689.161 18.2031V18.1973C689.161 17.5176 688.698 17.1484 687.579 16.9023L686.659 16.709C685 16.3574 684.198 15.5957 684.198 14.3418V14.3359C684.204 12.8945 685.475 11.9043 687.262 11.9043C689.026 11.9043 690.233 12.8652 690.321 14.2832L690.327 14.3828H689.049L689.043 14.3008C688.926 13.5156 688.247 13.041 687.245 13.041C686.196 13.0469 685.528 13.5449 685.528 14.2832V14.2891C685.528 14.9219 686.008 15.3086 687.063 15.5371L687.989 15.7305C689.735 16.0996 690.485 16.8086 690.485 18.1152V18.1211C690.485 19.6621 689.266 20.6406 687.262 20.6406ZM694.285 20.623C692.486 20.623 691.361 19.3867 691.361 17.4121V17.4062C691.361 15.4551 692.509 14.2188 694.267 14.2188C695.855 14.2188 696.816 15.2383 696.921 16.3984L696.927 16.4395H695.72L695.708 16.3926C695.574 15.7891 695.105 15.2793 694.279 15.2793C693.294 15.2793 692.656 16.0996 692.656 17.418V17.4238C692.656 18.7715 693.306 19.5625 694.285 19.5625C695.064 19.5625 695.562 19.1113 695.714 18.4434L695.72 18.3965H696.939L696.933 18.4375C696.798 19.6738 695.767 20.623 694.285 20.623ZM700.604 20.623C698.834 20.623 697.68 19.3984 697.68 17.418V17.4063C697.68 15.4375 698.846 14.2188 700.598 14.2188C702.356 14.2188 703.528 15.4316 703.528 17.4063V17.418C703.528 19.4043 702.367 20.623 700.604 20.623ZM700.61 19.5625C701.6 19.5625 702.233 18.7773 702.233 17.418V17.4063C702.233 16.0586 701.588 15.2793 700.598 15.2793C699.625 15.2793 698.975 16.0586 698.975 17.4063V17.418C698.975 18.7832 699.619 19.5625 700.61 19.5625ZM704.626 20.5V14.3359H705.892V15.3906H705.921C706.12 14.6699 706.636 14.2188 707.339 14.2188C707.521 14.2188 707.679 14.248 707.778 14.2656V15.4434C707.679 15.4023 707.456 15.373 707.21 15.373C706.396 15.373 705.892 15.9063 705.892 16.8262V20.5H704.626ZM711.045 20.623C709.234 20.623 708.139 19.3867 708.139 17.4414V17.4355C708.139 15.5078 709.252 14.2188 710.98 14.2188C712.709 14.2188 713.77 15.4609 713.77 17.3125V17.7402L709.404 17.7402C709.428 18.9063 710.066 19.5859 711.074 19.5859C711.824 19.5859 712.322 19.1992 712.48 18.7363L712.498 18.6895H713.699L713.688 18.7539C713.488 19.7324 712.539 20.623 711.045 20.623ZM710.986 15.2559C710.166 15.2559 709.533 15.8125 709.422 16.8438H712.516C712.41 15.7773 711.813 15.2559 710.986 15.2559ZM717.929 20.5L721.685 13.1816V13.1523L717.226 13.1523V12.0449L722.98 12.0449V13.1816L719.306 20.5H717.929ZM727.307 20.6406C725.438 20.6406 724.114 19.6387 724.114 18.209V18.1973C724.114 17.1309 724.882 16.2871 725.983 16.0469V16.0176C725.04 15.748 724.424 15.0449 724.424 14.1484V14.1367C724.424 12.8477 725.626 11.9043 727.307 11.9043C728.989 11.9043 730.196 12.8477 730.196 14.1367V14.1484C730.196 15.0449 729.581 15.748 728.637 16.0176V16.0469C729.739 16.2871 730.501 17.1309 730.501 18.1973V18.209C730.501 19.6387 729.182 20.6406 727.307 20.6406ZM727.307 15.5781C728.251 15.5781 728.895 15.0332 728.895 14.2656V14.2539C728.895 13.4805 728.245 12.9414 727.307 12.9414C726.37 12.9414 725.725 13.4805 725.725 14.2539V14.2656C725.725 15.0332 726.37 15.5781 727.307 15.5781ZM727.307 19.5918C728.385 19.5918 729.153 18.9766 729.153 18.1211V18.1094C729.153 17.248 728.391 16.627 727.307 16.627C726.223 16.627 725.462 17.248 725.462 18.1094V18.1211C725.462 18.9766 726.229 19.5918 727.307 19.5918Z" fill="#381C59" fill-opacity="0.5"/>
<circle cx="459.9" cy="85.5" r="7" fill="white" stroke="#381C59" stroke-width="4"/>
<circle cx="180.8" cy="98" r="7" fill="white" stroke="#381C59" stroke-width="4"/>
<circle cx="747.236" cy="28.5" r="7" fill="white" stroke="#381C59" stroke-width="4"/>
<circle cx="600.2" cy="55.0347" r="7" fill="white" stroke="#381C59" stroke-width="4"/>
<circle cx="320.6" cy="82.5" r="7" fill="white" stroke="#381C59" stroke-width="4"/>
<circle cx="42.2627" cy="177.5" r="7" fill="white" stroke="#381C59" stroke-width="4"/>
<path d="M60.4092 181.641C58.5107 181.641 57.2568 180.738 57.1514 179.25L57.1455 179.162H58.4229L58.4346 179.238C58.5518 180.018 59.3311 180.504 60.4619 180.504C61.5928 180.504 62.3076 179.994 62.3076 179.203V179.197C62.3076 178.518 61.8447 178.148 60.7256 177.902L59.8057 177.709C58.1475 177.357 57.3447 176.596 57.3447 175.342V175.336C57.3506 173.895 58.6221 172.904 60.4092 172.904C62.1729 172.904 63.3799 173.865 63.4678 175.283L63.4736 175.383H62.1963L62.1904 175.301C62.0732 174.516 61.3936 174.041 60.3916 174.041C59.3428 174.047 58.6748 174.545 58.6748 175.283V175.289C58.6748 175.922 59.1553 176.309 60.21 176.537L61.1357 176.73C62.8818 177.1 63.6318 177.809 63.6318 179.115V179.121C63.6318 180.662 62.4131 181.641 60.4092 181.641ZM67.4315 181.623C65.6327 181.623 64.5077 180.387 64.5077 178.412V178.406C64.5077 176.455 65.6561 175.219 67.4139 175.219C69.0018 175.219 69.9628 176.238 70.0682 177.398L70.0741 177.439H68.8671L68.8554 177.393C68.7206 176.789 68.2518 176.279 67.4257 176.279C66.4413 176.279 65.8026 177.1 65.8026 178.418V178.424C65.8026 179.771 66.453 180.562 67.4315 180.562C68.2108 180.562 68.7089 180.111 68.8612 179.443L68.8671 179.396H70.0858L70.08 179.438C69.9452 180.674 68.9139 181.623 67.4315 181.623ZM73.7507 181.623C71.9812 181.623 70.8269 180.398 70.8269 178.418V178.406C70.8269 176.438 71.9929 175.219 73.7449 175.219C75.5027 175.219 76.6746 176.432 76.6746 178.406V178.418C76.6746 180.404 75.5144 181.623 73.7507 181.623ZM73.7566 180.562C74.7468 180.562 75.3796 179.777 75.3796 178.418V178.406C75.3796 177.059 74.7351 176.279 73.7449 176.279C72.7722 176.279 72.1218 177.059 72.1218 178.406V178.418C72.1218 179.783 72.7664 180.562 73.7566 180.562ZM77.7731 181.5V175.336H79.0387V176.391H79.068C79.2672 175.67 79.7829 175.219 80.486 175.219C80.6676 175.219 80.8258 175.248 80.9254 175.266V176.443C80.8258 176.402 80.6032 176.373 80.3571 176.373C79.5426 176.373 79.0387 176.906 79.0387 177.826V181.5H77.7731ZM84.1919 181.623C82.3814 181.623 81.2857 180.387 81.2857 178.441V178.436C81.2857 176.508 82.3989 175.219 84.1275 175.219C85.856 175.219 86.9165 176.461 86.9165 178.312V178.74H82.5513C82.5747 179.906 83.2134 180.586 84.2212 180.586C84.9712 180.586 85.4693 180.199 85.6275 179.736L85.645 179.689H86.8462L86.8345 179.754C86.6353 180.732 85.6861 181.623 84.1919 181.623ZM84.1333 176.256C83.313 176.256 82.6802 176.812 82.5689 177.844H85.6626C85.5571 176.777 84.9595 176.256 84.1333 176.256ZM94.6272 181.5V179.818H90.3968V178.676L93.9886 173.045H95.887V178.717H97.053V179.818H95.887V181.5H94.6272ZM91.6155 178.734H94.6389V174.082H94.6038L91.6155 178.699V178.734ZM101.193 181.641C99.4992 181.641 98.3214 180.615 98.2043 179.221L98.1984 179.15H99.4523L99.4582 179.197C99.5695 179.959 100.261 180.545 101.204 180.545C102.271 180.545 103.015 179.807 103.015 178.758V178.746C103.009 177.709 102.265 176.977 101.216 176.977C100.694 176.977 100.243 177.129 99.9035 177.434C99.7453 177.568 99.6105 177.732 99.4992 177.92H98.3507L98.7668 173.045H103.806V174.152H99.8273L99.5695 176.83H99.5988C99.9796 176.262 100.683 175.939 101.515 175.939C103.132 175.939 104.298 177.105 104.298 178.723V178.734C104.298 180.451 103.015 181.641 101.193 181.641Z" fill="#381C59" fill-opacity="0.5"/>
<path d="M160.962 61.1753C159.063 61.1753 157.81 60.2729 157.704 58.7847L157.698 58.6968H158.976L158.987 58.7729C159.104 59.5522 159.884 60.0386 161.015 60.0386C162.146 60.0386 162.86 59.5288 162.86 58.7378V58.7319C162.86 58.0522 162.397 57.6831 161.278 57.437L160.358 57.2437C158.7 56.8921 157.897 56.1304 157.897 54.8765V54.8706C157.903 53.4292 159.175 52.439 160.962 52.439C162.726 52.439 163.933 53.3999 164.021 54.8179L164.026 54.9175H162.749L162.743 54.8354C162.626 54.0503 161.946 53.5757 160.944 53.5757C159.896 53.5815 159.228 54.0796 159.228 54.8179V54.8237C159.228 55.4565 159.708 55.8433 160.763 56.0718L161.688 56.2651C163.435 56.6343 164.185 57.3433 164.185 58.6499V58.6558C164.185 60.1968 162.966 61.1753 160.962 61.1753ZM167.498 61.1577C166.279 61.1577 165.693 60.6421 165.693 59.4116V55.8784H164.808V54.8706H165.693V53.2651H166.988V54.8706H168.142V55.8784H166.988V59.3354C166.988 59.9624 167.269 60.1499 167.803 60.1499C167.937 60.1499 168.049 60.1382 168.142 60.1265V61.105C167.996 61.1284 167.756 61.1577 167.498 61.1577ZM171.028 61.146C169.798 61.146 168.971 60.3901 168.971 59.2827V59.271C168.971 58.1987 169.803 57.5425 171.262 57.4546L172.938 57.355V56.8921C172.938 56.2124 172.499 55.8022 171.714 55.8022C170.981 55.8022 170.53 56.1479 170.425 56.6401L170.413 56.6929H169.218L169.223 56.6284C169.311 55.5679 170.231 54.7534 171.749 54.7534C173.255 54.7534 174.21 55.5503 174.21 56.7866V61.0347H172.938V60.062H172.915C172.557 60.7241 171.843 61.146 171.028 61.146ZM170.249 59.2534C170.249 59.7925 170.694 60.1323 171.374 60.1323C172.264 60.1323 172.938 59.5288 172.938 58.7261V58.2456L171.432 58.3394C170.671 58.3862 170.249 58.7202 170.249 59.2417V59.2534ZM175.56 61.0347V54.8706H176.826V55.9253H176.855C177.054 55.2046 177.57 54.7534 178.273 54.7534C178.455 54.7534 178.613 54.7827 178.713 54.8003V55.978C178.613 55.937 178.39 55.9077 178.144 55.9077C177.33 55.9077 176.826 56.4409 176.826 57.3608V61.0347H175.56ZM182.049 61.1577C180.831 61.1577 180.245 60.6421 180.245 59.4116V55.8784H179.36V54.8706H180.245V53.2651L181.54 53.2651V54.8706L182.694 54.8706V55.8784L181.54 55.8784V59.3354C181.54 59.9624 181.821 60.1499 182.354 60.1499C182.489 60.1499 182.6 60.1382 182.694 60.1265V61.105C182.547 61.1284 182.307 61.1577 182.049 61.1577ZM158.079 75.0347V66.5796H159.597L162.333 73.3296H162.368L165.11 66.5796H166.622V75.0347H165.427V68.7944H165.386L162.837 75.0347H161.864L159.315 68.7944H159.274V75.0347H158.079ZM168.834 67.9214C168.424 67.9214 168.096 67.5933 168.096 67.1948C168.096 66.7905 168.424 66.4624 168.834 66.4624C169.25 66.4624 169.572 66.7905 169.572 67.1948C169.572 67.5933 169.25 67.9214 168.834 67.9214ZM168.201 75.0347V68.8706H169.467V75.0347H168.201ZM170.893 75.0347V68.8706H172.159V69.8022H172.188C172.511 69.1753 173.143 68.7534 174.075 68.7534C175.428 68.7534 176.208 69.6265 176.208 71.0444V75.0347H174.936V71.2847C174.936 70.3589 174.503 69.8374 173.624 69.8374C172.733 69.8374 172.159 70.4819 172.159 71.4429V75.0347H170.893ZM180.201 75.1577C178.431 75.1577 177.277 73.9331 177.277 71.9526V71.9409C177.277 69.9722 178.443 68.7534 180.195 68.7534C181.953 68.7534 183.125 69.9663 183.125 71.9409V71.9526C183.125 73.939 181.964 75.1577 180.201 75.1577ZM180.207 74.0972C181.197 74.0972 181.83 73.312 181.83 71.9526V71.9409C181.83 70.5933 181.185 69.814 180.195 69.814C179.222 69.814 178.572 70.5933 178.572 71.9409V71.9526C178.572 73.3179 179.216 74.0972 180.207 74.0972ZM183.338 75.0347L185.377 71.9585L183.368 68.8706H184.792L186.133 71.103H186.163L187.487 68.8706H188.887L186.86 71.9175L188.864 75.0347H187.469L186.104 72.7671H186.075L184.709 75.0347H183.338ZM190.49 67.9214C190.079 67.9214 189.751 67.5933 189.751 67.1948C189.751 66.7905 190.079 66.4624 190.49 66.4624C190.906 66.4624 191.228 66.7905 191.228 67.1948C191.228 67.5933 190.906 67.9214 190.49 67.9214ZM189.857 75.0347V68.8706H191.122V75.0347H189.857ZM194.852 75.1577C193.282 75.1577 192.274 73.9155 192.274 71.9526V71.9468C192.274 69.9839 193.293 68.7534 194.84 68.7534C195.713 68.7534 196.416 69.1929 196.785 69.9194H196.809V66.5796H198.08V75.0347H196.809V73.9917H196.785C196.416 74.7124 195.737 75.1577 194.852 75.1577ZM195.186 74.0679C196.141 74.0679 196.815 73.2358 196.815 71.9526V71.9468C196.815 70.6694 196.135 69.8374 195.186 69.8374C194.19 69.8374 193.569 70.646 193.569 71.9468V71.9526C193.569 73.2651 194.184 74.0679 195.186 74.0679ZM200.187 67.9214C199.777 67.9214 199.448 67.5933 199.448 67.1948C199.448 66.7905 199.777 66.4624 200.187 66.4624C200.603 66.4624 200.925 66.7905 200.925 67.1948C200.925 67.5933 200.603 67.9214 200.187 67.9214ZM199.554 75.0347V68.8706H200.819V75.0347H199.554ZM202.293 75.0347V66.5796H203.559V75.0347H202.293Z" fill="#381C59" fill-opacity="0.5"/>
<path d="M301.379 115V106.545H302.897L305.633 113.295H305.668L308.411 106.545H309.922V115H308.727V108.76H308.686L306.137 115H305.165L302.616 108.76H302.575V115H301.379ZM312.134 107.887C311.724 107.887 311.396 107.559 311.396 107.16C311.396 106.756 311.724 106.428 312.134 106.428C312.55 106.428 312.872 106.756 312.872 107.16C312.872 107.559 312.55 107.887 312.134 107.887ZM311.501 115V108.836H312.767V115H311.501ZM316.842 115.123C315.043 115.123 313.918 113.887 313.918 111.912V111.906C313.918 109.955 315.067 108.719 316.824 108.719C318.412 108.719 319.373 109.738 319.479 110.898L319.485 110.939H318.278L318.266 110.893C318.131 110.289 317.662 109.779 316.836 109.779C315.852 109.779 315.213 110.6 315.213 111.918V111.924C315.213 113.271 315.864 114.062 316.842 114.062C317.621 114.062 318.119 113.611 318.272 112.943L318.278 112.896H319.496L319.49 112.938C319.356 114.174 318.324 115.123 316.842 115.123ZM320.513 115V108.836H321.778V109.891H321.808C322.007 109.17 322.523 108.719 323.226 108.719C323.407 108.719 323.566 108.748 323.665 108.766V109.943C323.566 109.902 323.343 109.873 323.097 109.873C322.282 109.873 321.778 110.406 321.778 111.326V115H320.513ZM326.949 115.123C325.18 115.123 324.025 113.898 324.025 111.918V111.906C324.025 109.938 325.191 108.719 326.943 108.719C328.701 108.719 329.873 109.932 329.873 111.906V111.918C329.873 113.904 328.713 115.123 326.949 115.123ZM326.955 114.062C327.945 114.062 328.578 113.277 328.578 111.918V111.906C328.578 110.559 327.934 109.779 326.943 109.779C325.971 109.779 325.32 110.559 325.32 111.906V111.918C325.32 113.283 325.965 114.062 326.955 114.062ZM301.227 129V122.836H302.493V123.768H302.522C302.844 123.141 303.477 122.719 304.409 122.719C305.762 122.719 306.542 123.592 306.542 125.01V129H305.27V125.25C305.27 124.324 304.836 123.803 303.958 123.803C303.067 123.803 302.493 124.447 302.493 125.408V129H301.227ZM310.517 129.123C308.706 129.123 307.611 127.887 307.611 125.941V125.936C307.611 124.008 308.724 122.719 310.453 122.719C312.181 122.719 313.242 123.961 313.242 125.812V126.24H308.876C308.9 127.406 309.538 128.086 310.546 128.086C311.296 128.086 311.794 127.699 311.953 127.236L311.97 127.189H313.171L313.16 127.254C312.96 128.232 312.011 129.123 310.517 129.123ZM310.458 123.756C309.638 123.756 309.005 124.312 308.894 125.344H311.988C311.882 124.277 311.285 123.756 310.458 123.756ZM316.977 129.123C315.166 129.123 314.071 127.887 314.071 125.941V125.936C314.071 124.008 315.184 122.719 316.912 122.719C318.641 122.719 319.701 123.961 319.701 125.812V126.24H315.336C315.36 127.406 315.998 128.086 317.006 128.086C317.756 128.086 318.254 127.699 318.412 127.236L318.43 127.189H319.631L319.619 127.254C319.42 128.232 318.471 129.123 316.977 129.123ZM316.918 123.756C316.098 123.756 315.465 124.312 315.354 125.344H318.448C318.342 124.277 317.744 123.756 316.918 123.756ZM323.109 129.123C321.538 129.123 320.53 127.881 320.53 125.918V125.912C320.53 123.949 321.55 122.719 323.097 122.719C323.97 122.719 324.673 123.158 325.042 123.885H325.066V120.545H326.337V129H325.066V127.957H325.042C324.673 128.678 323.993 129.123 323.109 129.123ZM323.443 128.033C324.398 128.033 325.071 127.201 325.071 125.918V125.912C325.071 124.635 324.392 123.803 323.443 123.803C322.446 123.803 321.825 124.611 321.825 125.912V125.918C321.825 127.23 322.441 128.033 323.443 128.033ZM327.805 129V120.545H329.07V129H327.805ZM331.177 121.887C330.767 121.887 330.438 121.559 330.438 121.16C330.438 120.756 330.767 120.428 331.177 120.428C331.593 120.428 331.915 120.756 331.915 121.16C331.915 121.559 331.593 121.887 331.177 121.887ZM330.544 129V122.836H331.809V129H330.544ZM333.236 129V122.836H334.502V123.768H334.531C334.853 123.141 335.486 122.719 336.418 122.719C337.771 122.719 338.551 123.592 338.551 125.01V129H337.279V125.25C337.279 124.324 336.845 123.803 335.967 123.803C335.076 123.803 334.502 124.447 334.502 125.408V129H333.236ZM342.596 131.174C341.014 131.174 340.012 130.441 339.825 129.498L339.819 129.445H341.073L341.096 129.492C341.266 129.885 341.799 130.154 342.59 130.154C343.598 130.154 344.155 129.615 344.155 128.754V127.91H344.126C343.774 128.578 343.071 129.006 342.186 129.006C340.639 129.006 339.62 127.793 339.62 125.871V125.865C339.62 123.932 340.651 122.719 342.215 122.719C343.083 122.719 343.762 123.188 344.126 123.885H344.155V122.836H345.426V128.83C345.426 130.236 344.337 131.174 342.596 131.174ZM342.544 127.975C343.51 127.975 344.155 127.16 344.155 125.889V125.883C344.155 124.617 343.505 123.803 342.544 123.803C341.542 123.803 340.915 124.611 340.915 125.883V125.889C340.915 127.178 341.542 127.975 342.544 127.975ZM304.262 143.141C302.364 143.141 301.11 142.238 301.004 140.75L300.999 140.662H302.276L302.288 140.738C302.405 141.518 303.184 142.004 304.315 142.004C305.446 142.004 306.161 141.494 306.161 140.703V140.697C306.161 140.018 305.698 139.648 304.579 139.402L303.659 139.209C302 138.857 301.198 138.096 301.198 136.842V136.836C301.204 135.395 302.475 134.404 304.262 134.404C306.026 134.404 307.233 135.365 307.321 136.783L307.327 136.883H306.049L306.043 136.801C305.926 136.016 305.247 135.541 304.245 135.541C303.196 135.547 302.528 136.045 302.528 136.783V136.789C302.528 137.422 303.008 137.809 304.063 138.037L304.989 138.23C306.735 138.6 307.485 139.309 307.485 140.615V140.621C307.485 142.162 306.266 143.141 304.262 143.141ZM311.267 143.123C309.456 143.123 308.361 141.887 308.361 139.941V139.936C308.361 138.008 309.474 136.719 311.203 136.719C312.931 136.719 313.992 137.961 313.992 139.812V140.24H309.626C309.65 141.406 310.288 142.086 311.296 142.086C312.046 142.086 312.544 141.699 312.703 141.236L312.72 141.189H313.921L313.91 141.254C313.71 142.232 312.761 143.123 311.267 143.123ZM311.208 137.756C310.388 137.756 309.755 138.312 309.644 139.344H312.738C312.632 138.277 312.035 137.756 311.208 137.756ZM317.405 143.123C315.864 143.123 314.961 142.361 314.832 141.236L314.826 141.184H316.08L316.092 141.242C316.209 141.811 316.631 142.145 317.41 142.145C318.172 142.145 318.629 141.828 318.629 141.33V141.324C318.629 140.926 318.407 140.697 317.744 140.539L316.737 140.311C315.565 140.041 314.985 139.479 314.985 138.582V138.576C314.985 137.475 315.946 136.719 317.364 136.719C318.823 136.719 319.701 137.533 319.766 138.582L319.772 138.652H318.582L318.576 138.611C318.5 138.072 318.078 137.697 317.364 137.697C316.684 137.697 316.256 138.02 316.256 138.512V138.518C316.256 138.898 316.508 139.156 317.17 139.314L318.172 139.543C319.432 139.836 319.912 140.334 319.912 141.219V141.225C319.912 142.35 318.858 143.123 317.405 143.123ZM323.325 143.123C321.784 143.123 320.882 142.361 320.753 141.236L320.747 141.184H322.001L322.013 141.242C322.13 141.811 322.552 142.145 323.331 142.145C324.093 142.145 324.55 141.828 324.55 141.33V141.324C324.55 140.926 324.327 140.697 323.665 140.539L322.657 140.311C321.485 140.041 320.905 139.479 320.905 138.582V138.576C320.905 137.475 321.866 136.719 323.284 136.719C324.743 136.719 325.622 137.533 325.687 138.582L325.693 138.652H324.503L324.497 138.611C324.421 138.072 323.999 137.697 323.284 137.697C322.605 137.697 322.177 138.02 322.177 138.512V138.518C322.177 138.898 322.429 139.156 323.091 139.314L324.093 139.543C325.353 139.836 325.833 140.334 325.833 141.219V141.225C325.833 142.35 324.778 143.123 323.325 143.123ZM327.623 135.887C327.213 135.887 326.885 135.559 326.885 135.16C326.885 134.756 327.213 134.428 327.623 134.428C328.039 134.428 328.361 134.756 328.361 135.16C328.361 135.559 328.039 135.887 327.623 135.887ZM326.99 143V136.836H328.256V143H326.99ZM332.331 143.123C330.561 143.123 329.407 141.898 329.407 139.918V139.906C329.407 137.938 330.573 136.719 332.325 136.719C334.083 136.719 335.255 137.932 335.255 139.906V139.918C335.255 141.904 334.095 143.123 332.331 143.123ZM332.337 142.062C333.327 142.062 333.96 141.277 333.96 139.918V139.906C333.96 138.559 333.315 137.779 332.325 137.779C331.352 137.779 330.702 138.559 330.702 139.906V139.918C330.702 141.283 331.347 142.062 332.337 142.062ZM336.353 143V136.836H337.619V137.768H337.648C337.97 137.141 338.603 136.719 339.535 136.719C340.888 136.719 341.668 137.592 341.668 139.01V143H340.396V139.25C340.396 138.324 339.963 137.803 339.084 137.803C338.193 137.803 337.619 138.447 337.619 139.408V143H336.353ZM347.738 143V135.846H347.709L345.5 137.369V136.127L347.726 134.545H349.021V143H347.738Z" fill="#381C59" fill-opacity="0.5"/>
<path d="M433.865 49.0347V40.5796H437.012C438.67 40.5796 439.818 41.6929 439.818 43.3511V43.3628C439.818 45.0151 438.67 46.146 437.012 46.146H435.178V49.0347H433.865ZM436.684 41.687H435.178V45.0444H436.684C437.826 45.0444 438.482 44.4292 438.482 43.3687V43.3569C438.482 42.3022 437.826 41.687 436.684 41.687ZM441.087 49.0347V40.5796H444.368C446.097 40.5796 447.186 41.5815 447.186 43.1694V43.1812C447.186 44.3296 446.559 45.2437 445.546 45.5894L447.438 49.0347H445.927L444.204 45.7886H442.399V49.0347H441.087ZM442.399 44.7104H444.239C445.253 44.7104 445.833 44.1538 445.833 43.1929V43.1812C445.833 42.2437 445.212 41.6812 444.204 41.6812H442.399V44.7104ZM448.578 49.0347V40.5796H451.724C453.383 40.5796 454.531 41.6929 454.531 43.3511V43.3628C454.531 45.0151 453.383 46.146 451.724 46.146H449.89V49.0347H448.578ZM451.396 41.687H449.89V45.0444H451.396C452.539 45.0444 453.195 44.4292 453.195 43.3687V43.3569C453.195 42.3022 452.539 41.687 451.396 41.687ZM435.963 63.0347V55.7104H433.373V54.5796H439.859V55.7104H437.275V63.0347H435.963ZM439.751 63.0347V56.8706H441.016V57.9253H441.046C441.245 57.2046 441.761 56.7534 442.464 56.7534C442.645 56.7534 442.804 56.7827 442.903 56.8003V57.978C442.804 57.937 442.581 57.9077 442.335 57.9077C441.52 57.9077 441.016 58.4409 441.016 59.3608V63.0347H439.751ZM446.17 63.1577C444.359 63.1577 443.263 61.9214 443.263 59.9761V59.9702C443.263 58.0425 444.377 56.7534 446.105 56.7534C447.834 56.7534 448.894 57.9956 448.894 59.8472V60.2749H444.529C444.552 61.4409 445.191 62.1206 446.199 62.1206C446.949 62.1206 447.447 61.7339 447.605 61.271L447.623 61.2241H448.824L448.812 61.2886C448.613 62.2671 447.664 63.1577 446.17 63.1577ZM446.111 57.7905C445.291 57.7905 444.658 58.3472 444.547 59.3784H447.64C447.535 58.312 446.937 57.7905 446.111 57.7905ZM451.809 63.146C450.579 63.146 449.753 62.3901 449.753 61.2827V61.271C449.753 60.1987 450.585 59.5425 452.044 59.4546L453.719 59.355V58.8921C453.719 58.2124 453.28 57.8022 452.495 57.8022C451.762 57.8022 451.311 58.1479 451.206 58.6401L451.194 58.6929H449.999L450.005 58.6284C450.092 57.5679 451.012 56.7534 452.53 56.7534C454.036 56.7534 454.991 57.5503 454.991 58.7866V63.0347H453.719V62.062H453.696C453.339 62.7241 452.624 63.146 451.809 63.146ZM451.03 61.2534C451.03 61.7925 451.475 62.1323 452.155 62.1323C453.046 62.1323 453.719 61.5288 453.719 60.7261V60.2456L452.214 60.3394C451.452 60.3862 451.03 60.7202 451.03 61.2417V61.2534ZM458.503 63.1577C457.285 63.1577 456.699 62.6421 456.699 61.4116V57.8784H455.814V56.8706H456.699V55.2651H457.994V56.8706H459.148V57.8784H457.994V61.3354C457.994 61.9624 458.275 62.1499 458.808 62.1499C458.943 62.1499 459.054 62.1382 459.148 62.1265V63.105C459.001 63.1284 458.761 63.1577 458.503 63.1577ZM460.317 63.0347V56.8706H461.582V57.8257H461.612C461.875 57.1812 462.502 56.7534 463.311 56.7534C464.161 56.7534 464.782 57.1929 465.028 57.9663H465.057C465.373 57.2163 466.1 56.7534 466.979 56.7534C468.198 56.7534 468.995 57.562 468.995 58.7983V63.0347H467.723V59.103C467.723 58.3003 467.295 57.8374 466.545 57.8374C465.795 57.8374 465.274 58.3999 465.274 59.1792V63.0347H464.032V59.0093C464.032 58.2944 463.58 57.8374 462.866 57.8374C462.116 57.8374 461.582 58.4292 461.582 59.2261V63.0347H460.317ZM472.97 63.1577C471.159 63.1577 470.064 61.9214 470.064 59.9761V59.9702C470.064 58.0425 471.177 56.7534 472.906 56.7534C474.634 56.7534 475.695 57.9956 475.695 59.8472V60.2749H471.329C471.353 61.4409 471.991 62.1206 472.999 62.1206C473.749 62.1206 474.247 61.7339 474.406 61.271L474.423 61.2241H475.624L475.613 61.2886C475.413 62.2671 474.464 63.1577 472.97 63.1577ZM472.911 57.7905C472.091 57.7905 471.458 58.3472 471.347 59.3784H474.441C474.335 58.312 473.738 57.7905 472.911 57.7905ZM476.799 63.0347V56.8706H478.065V57.8022H478.094C478.416 57.1753 479.049 56.7534 479.981 56.7534C481.334 56.7534 482.113 57.6265 482.113 59.0444V63.0347H480.842V59.2847C480.842 58.3589 480.408 57.8374 479.529 57.8374C478.639 57.8374 478.065 58.4819 478.065 59.4429V63.0347H476.799ZM485.62 63.1577C484.401 63.1577 483.815 62.6421 483.815 61.4116V57.8784H482.931V56.8706H483.815V55.2651H485.11V56.8706H486.265V57.8784H485.11V61.3354C485.11 61.9624 485.392 62.1499 485.925 62.1499C486.06 62.1499 486.171 62.1382 486.265 62.1265V63.105C486.118 63.1284 485.878 63.1577 485.62 63.1577Z" fill="#381C59" fill-opacity="0.5"/>
<path d="M587.209 98.6406C585.404 98.6406 584.227 97.6562 584.109 96.2793L584.104 96.2031H585.363L585.369 96.2676C585.451 97.0176 586.16 97.5449 587.209 97.5449C588.24 97.5449 588.938 96.9707 588.938 96.1504V96.1387C588.938 95.1836 588.246 94.6504 587.115 94.6504H586.09V93.6309H587.08C588.047 93.6309 588.703 93.0625 588.703 92.2773V92.2656C588.703 91.4512 588.152 90.9766 587.197 90.9766C586.26 90.9766 585.604 91.4688 585.521 92.2539L585.516 92.3066H584.285L584.291 92.248C584.42 90.8359 585.545 89.9043 587.197 89.9043C588.879 89.9043 589.98 90.7949 589.98 92.0957V92.1074C589.98 93.1562 589.23 93.8594 588.199 94.0762V94.1055C589.441 94.2168 590.273 94.9668 590.273 96.1504V96.1621C590.273 97.6094 589.002 98.6406 587.209 98.6406ZM591.7 95.6406V94.498H595.468V95.6406H591.7ZM597.088 98.5V90.0449H598.605L601.342 96.7949H601.377L604.119 90.0449H605.631V98.5H604.435V92.2598H604.394L601.845 98.5H600.873L598.324 92.2598H598.283V98.5H597.088ZM609.805 98.623C608.036 98.623 606.881 97.3984 606.881 95.418V95.4062C606.881 93.4375 608.048 92.2188 609.799 92.2188C611.557 92.2188 612.729 93.4316 612.729 95.4062V95.418C612.729 97.4043 611.569 98.623 609.805 98.623ZM609.811 97.5625C610.801 97.5625 611.434 96.7773 611.434 95.418V95.4062C611.434 94.0586 610.79 93.2793 609.799 93.2793C608.827 93.2793 608.176 94.0586 608.176 95.4062V95.418C608.176 96.7832 608.821 97.5625 609.811 97.5625ZM613.828 98.5V92.3359H615.093V93.2676H615.123C615.445 92.6406 616.078 92.2188 617.009 92.2188C618.363 92.2188 619.142 93.0918 619.142 94.5098V98.5H617.871V94.75C617.871 93.8242 617.437 93.3027 616.558 93.3027C615.667 93.3027 615.093 93.9473 615.093 94.9082V98.5H613.828ZM622.649 98.623C621.43 98.623 620.844 98.1074 620.844 96.877V93.3438H619.959V92.3359H620.844V90.7305H622.139V92.3359H623.293V93.3438H622.139V96.8008C622.139 97.4277 622.42 97.6152 622.954 97.6152C623.088 97.6152 623.2 97.6035 623.293 97.5918V98.5703C623.147 98.5938 622.907 98.623 622.649 98.623ZM624.509 98.5V90.0449H625.775V93.3496H625.804C626.132 92.6348 626.794 92.2188 627.714 92.2188C629.033 92.2188 629.9 93.2031 629.9 94.6914V98.5H628.634V94.9316C628.634 93.9121 628.118 93.3027 627.228 93.3027C626.355 93.3027 625.775 93.9707 625.775 94.9316V98.5H624.509ZM587.994 112.641C585.598 112.641 584.074 110.953 584.074 108.27V108.264C584.074 105.58 585.598 103.904 587.994 103.904C589.857 103.904 591.258 105.053 591.521 106.723L591.533 106.775H590.232L590.197 106.658C589.916 105.668 589.131 105.064 587.994 105.064C586.424 105.064 585.416 106.307 585.416 108.264V108.27C585.416 110.227 586.43 111.48 587.994 111.48C589.119 111.48 589.898 110.895 590.215 109.822L590.232 109.77H591.533L591.527 109.828C591.264 111.51 589.863 112.641 587.994 112.641ZM592.737 112.5V104.045H594.003V107.35H594.032C594.36 106.635 595.022 106.219 595.942 106.219C597.261 106.219 598.128 107.203 598.128 108.691V112.5H596.862V108.932C596.862 107.912 596.347 107.303 595.456 107.303C594.583 107.303 594.003 107.971 594.003 108.932V112.5H592.737ZM602.109 112.623C600.299 112.623 599.203 111.387 599.203 109.441V109.436C599.203 107.508 600.316 106.219 602.045 106.219C603.773 106.219 604.834 107.461 604.834 109.312V109.74H600.469C600.492 110.906 601.131 111.586 602.138 111.586C602.888 111.586 603.386 111.199 603.545 110.736L603.562 110.689H604.763L604.752 110.754C604.552 111.732 603.603 112.623 602.109 112.623ZM602.051 107.256C601.23 107.256 600.597 107.812 600.486 108.844H603.58C603.474 107.777 602.877 107.256 602.051 107.256ZM608.587 112.623C606.788 112.623 605.663 111.387 605.663 109.412V109.406C605.663 107.455 606.811 106.219 608.569 106.219C610.157 106.219 611.118 107.238 611.223 108.398L611.229 108.439H610.022L610.01 108.393C609.876 107.789 609.407 107.279 608.581 107.279C607.596 107.279 606.958 108.1 606.958 109.418V109.424C606.958 110.771 607.608 111.562 608.587 111.562C609.366 111.562 609.864 111.111 610.016 110.443L610.022 110.396H611.241L611.235 110.438C611.1 111.674 610.069 112.623 608.587 112.623ZM612.328 112.5V104.045H613.593V108.967H613.623L616.095 106.336H617.584L615.052 108.996L617.683 112.5H616.212L614.121 109.758L613.593 110.279V112.5H612.328ZM620.534 112.623C619.18 112.623 618.407 111.75 618.407 110.332V106.336H619.672V110.086C619.672 111.018 620.106 111.533 620.985 111.533C621.875 111.533 622.45 110.895 622.45 109.934V106.336H623.721V112.5H622.45V111.574H622.42C622.098 112.195 621.471 112.623 620.534 112.623ZM625.095 114.551V106.336H626.361V107.396H626.39C626.759 106.664 627.439 106.219 628.318 106.219C629.888 106.219 630.896 107.449 630.896 109.418V109.424C630.896 111.387 629.882 112.623 628.335 112.623C627.462 112.623 626.753 112.178 626.39 111.463H626.361V114.551H625.095ZM627.99 111.533C628.986 111.533 629.607 110.725 629.607 109.424V109.418C629.607 108.105 628.98 107.303 627.99 107.303C627.029 107.303 626.355 108.135 626.355 109.418V109.424C626.355 110.701 627.034 111.533 627.99 111.533Z" fill="#381C59" fill-opacity="0.5"/>
</svg>
