<svg width="345" height="250" viewBox="0 0 345 250" fill="none" xmlns="http://www.w3.org/2000/svg">
<path d="M23 156.091L13.1357 156.091L13.1357 154.56L17.3057 154.56L17.3057 149.494L13.1357 149.494L13.1357 147.963L23 147.963L23 149.494L18.6318 149.494L18.6318 154.56L23 154.56L23 156.091ZM23.1299 144.268C23.1299 145.704 22.248 146.668 20.9561 146.668L20.9424 146.668C19.6914 146.668 18.9258 145.697 18.8232 143.995L18.707 142.04L18.167 142.04C17.374 142.04 16.8955 142.552 16.8955 143.468C16.8955 144.323 17.2988 144.849 17.873 144.972L17.9346 144.986L17.9346 146.381L17.8594 146.374C16.6221 146.271 15.6719 145.198 15.6719 143.427C15.6719 141.671 16.6016 140.556 18.0439 140.556L23 140.556L23 142.04L21.8652 142.04L21.8652 142.067C22.6377 142.484 23.1299 143.318 23.1299 144.268ZM20.9219 145.177C21.5508 145.177 21.9473 144.658 21.9473 143.865C21.9473 142.826 21.2432 142.04 20.3066 142.04L19.7461 142.04L19.8555 143.797C19.9102 144.685 20.2998 145.177 20.9082 145.177L20.9219 145.177ZM14.7012 138.181C14.7012 138.659 14.3184 139.042 13.8535 139.042C13.3818 139.042 12.999 138.659 12.999 138.181C12.999 137.696 13.3818 137.32 13.8535 137.32C14.3184 137.32 14.7012 137.696 14.7012 138.181ZM23 138.919L15.8086 138.919L15.8086 137.443L23 137.443L23 138.919ZM23 135.778L15.8086 135.778L15.8086 134.302L17.0391 134.302L17.0391 134.267C16.1982 134.035 15.6719 133.434 15.6719 132.613C15.6719 132.401 15.7061 132.217 15.7266 132.101L17.1006 132.101C17.0527 132.217 17.0186 132.476 17.0186 132.764C17.0186 133.714 17.6406 134.302 18.7139 134.302L23 134.302L23 135.778ZM23.1641 124.52C23.1641 126.735 22.1113 128.197 20.375 128.321L20.2725 128.327L20.2725 126.837L20.3613 126.823C21.2705 126.687 21.8379 125.778 21.8379 124.458C21.8379 123.139 21.2432 122.305 20.3203 122.305L20.3135 122.305C19.5205 122.305 19.0898 122.845 18.8027 124.151L18.5771 125.224C18.167 127.158 17.2783 128.095 15.8154 128.095L15.8086 128.095C14.127 128.088 12.9717 126.605 12.9717 124.52C12.9717 122.462 14.0928 121.054 15.7471 120.951L15.8633 120.945L15.8633 122.435L15.7676 122.442C14.8516 122.578 14.2979 123.371 14.2979 124.54C14.3047 125.764 14.8857 126.543 15.7471 126.543L15.7539 126.543C16.4922 126.543 16.9434 125.983 17.21 124.752L17.4355 123.672C17.8662 121.635 18.6934 120.76 20.2178 120.76L20.2246 120.76C22.0225 120.76 23.1641 122.182 23.1641 124.52ZM23.1436 116.327C23.1436 118.426 21.7012 119.738 19.3975 119.738L19.3906 119.738C17.1143 119.738 15.6719 118.398 15.6719 116.347C15.6719 114.495 16.8613 113.374 18.2148 113.251L18.2627 113.244L18.2627 114.652L18.208 114.666C17.5039 114.823 16.9092 115.37 16.9092 116.334C16.9092 117.482 17.8662 118.227 19.4043 118.227L19.4111 118.227C20.9834 118.227 21.9062 117.469 21.9062 116.327C21.9062 115.418 21.3799 114.837 20.6006 114.659L20.5459 114.652L20.5459 113.23L20.5937 113.237C22.0361 113.394 23.1436 114.597 23.1436 116.327ZM23.1436 108.955C23.1436 111.019 21.7148 112.366 19.4043 112.366L19.3906 112.366C17.0937 112.366 15.6719 111.005 15.6719 108.961C15.6719 106.911 17.0869 105.543 19.3906 105.543L19.4043 105.543C21.7217 105.543 23.1436 106.897 23.1436 108.955ZM21.9062 108.948C21.9062 107.792 20.9902 107.054 19.4043 107.054L19.3906 107.054C17.8184 107.054 16.9092 107.806 16.9092 108.961C16.9092 110.096 17.8184 110.855 19.3906 110.855L19.4043 110.855C20.9971 110.855 21.9062 110.103 21.9062 108.948ZM23 104.262L15.8086 104.262L15.8086 102.785L17.0391 102.785L17.0391 102.751C16.1982 102.519 15.6719 101.917 15.6719 101.097C15.6719 100.885 15.7061 100.7 15.7266 100.584L17.1006 100.584C17.0527 100.7 17.0186 100.96 17.0186 101.247C17.0186 102.197 17.6406 102.785 18.7139 102.785L23 102.785L23 104.262ZM23.1436 96.7732C23.1436 98.8855 21.7012 100.164 19.4316 100.164L19.4248 100.164C17.1758 100.164 15.6719 98.865 15.6719 96.8484C15.6719 94.8318 17.1211 93.5945 19.2812 93.5945L19.7803 93.5945L19.7803 98.6873C21.1406 98.6599 21.9336 97.9148 21.9336 96.739C21.9336 95.864 21.4824 95.283 20.9424 95.0984L20.8877 95.0779L20.8877 93.6765L20.9629 93.6902C22.1045 93.9226 23.1436 95.03 23.1436 96.7732ZM16.8818 96.8416C16.8818 97.7986 17.5312 98.5369 18.7344 98.6668L18.7344 95.0574C17.4902 95.1804 16.8818 95.8777 16.8818 96.8416Z" fill="#381C59" style="fill:#381C59;fill:color(display-p3 0.2196 0.1098 0.3490);fill-opacity:1;"/>
<path d="M44.2627 177.5C57.359 143.223 96.5169 76.1384 148.378 82.0142C213.205 89.3589 223.027 92.5063 254.458 68.3726C279.603 49.0656 318.63 33.7463 335 28.5" stroke="#381C59" style="stroke:#381C59;stroke:color(display-p3 0.2196 0.1098 0.3490);stroke-opacity:1;" stroke-width="4" stroke-linecap="round"/>
<mask id="path-3-inside-1_1_2781" fill="white">
<path d="M32 192.5H335V221.5H32V192.5Z"/>
</mask>
<path d="M32 192.5V193.5H335V192.5V191.5H32V192.5Z" fill="#381C59" fill-opacity="0.15" style="fill:#381C59;fill:color(display-p3 0.2196 0.1098 0.3490);fill-opacity:0.15;" mask="url(#path-3-inside-1_1_2781)"/>
<path d="M34.6309 218.641C33.166 218.641 32.3398 217.732 32.252 216.52L32.2461 216.438H33.3008L33.3066 216.496C33.3711 217.135 33.7871 217.668 34.625 217.668C35.5625 217.668 36.0664 217.111 36.0664 216.08V210.045H37.1211V216.092C37.1211 217.691 36.1953 218.641 34.6309 218.641ZM40.3876 218.617C39.1747 218.617 38.3602 217.885 38.3602 216.777V216.766C38.3602 215.729 39.1688 215.078 40.5692 214.996L42.3153 214.896V214.387C42.3153 213.643 41.829 213.191 40.9794 213.191C40.1942 213.191 39.702 213.566 39.5848 214.111L39.5731 214.164H38.5887L38.5946 214.1C38.6825 213.098 39.5555 212.289 40.9911 212.289C42.4325 212.289 43.3348 213.068 43.3348 214.287V218.5H42.3153V217.51H42.2919C41.9345 218.178 41.202 218.617 40.3876 218.617ZM39.4032 216.777C39.4032 217.363 39.8837 217.732 40.6161 217.732C41.577 217.732 42.3153 217.07 42.3153 216.186V215.688L40.6864 215.787C39.872 215.834 39.4032 216.197 39.4032 216.766V216.777ZM44.7498 218.5V212.406H45.7693V213.273H45.7927C46.1209 212.705 46.742 212.289 47.6677 212.289C49.0037 212.289 49.7771 213.156 49.7771 214.545V218.5H48.7576V214.727C48.7576 213.736 48.2947 213.191 47.3572 213.191C46.3962 213.191 45.7693 213.877 45.7693 214.914V218.5H44.7498Z" fill="#381C59" fill-opacity="0.64" style="fill:#381C59;fill:color(display-p3 0.2196 0.1098 0.3490);fill-opacity:0.64;"/>
<path d="M88.6204 218.5V210.045H93.7532V210.994H89.675V213.9H93.4192V214.838H89.675V218.5H88.6204ZM97.1954 218.617C95.4435 218.617 94.3888 217.393 94.3888 215.477V215.471C94.3888 213.584 95.4669 212.289 97.131 212.289C98.795 212.289 99.8087 213.525 99.8087 215.354V215.729H95.42C95.4435 216.982 96.1349 217.715 97.2189 217.715C97.9923 217.715 98.5372 217.328 98.713 216.807L98.7306 216.754H99.7325L99.7208 216.812C99.5216 217.82 98.5255 218.617 97.1954 218.617ZM97.1251 213.191C96.2404 213.191 95.549 213.795 95.4376 214.932H98.7716C98.672 213.748 98.0158 213.191 97.1251 213.191ZM103.989 218.617C103.116 218.617 102.437 218.178 102.056 217.469H102.032V218.5H101.013V210.045H102.032V213.426H102.056C102.437 212.723 103.146 212.289 104.007 212.289C105.536 212.289 106.579 213.525 106.579 215.447V215.453C106.579 217.375 105.548 218.617 103.989 218.617ZM103.79 217.715C104.868 217.715 105.536 216.854 105.536 215.453V215.447C105.536 214.059 104.868 213.191 103.79 213.191C102.765 213.191 102.026 214.088 102.026 215.447V215.453C102.026 216.818 102.759 217.715 103.79 217.715Z" fill="#381C59" fill-opacity="0.64" style="fill:#381C59;fill:color(display-p3 0.2196 0.1098 0.3490);fill-opacity:0.64;"/>
<path d="M145.42 218.5V210.045H146.639L149.569 217.17H149.604L152.534 210.045H153.752V218.5H152.768V211.967H152.733L150.032 218.5H149.141L146.44 211.967H146.405V218.5H145.42ZM156.96 218.617C155.747 218.617 154.933 217.885 154.933 216.777V216.766C154.933 215.729 155.742 215.078 157.142 214.996L158.888 214.896V214.387C158.888 213.643 158.402 213.191 157.552 213.191C156.767 213.191 156.275 213.566 156.158 214.111L156.146 214.164H155.162L155.167 214.1C155.255 213.098 156.128 212.289 157.564 212.289C159.005 212.289 159.908 213.068 159.908 214.287V218.5H158.888V217.51H158.865C158.507 218.178 157.775 218.617 156.96 218.617ZM155.976 216.777C155.976 217.363 156.456 217.732 157.189 217.732C158.15 217.732 158.888 217.07 158.888 216.186V215.688L157.259 215.787C156.445 215.834 155.976 216.197 155.976 216.766V216.777ZM161.323 218.5V212.406H162.342V213.438H162.365C162.571 212.734 163.098 212.289 163.783 212.289C163.959 212.289 164.112 212.318 164.194 212.33V213.32C164.112 213.291 163.895 213.262 163.649 213.262C162.858 213.262 162.342 213.812 162.342 214.738V218.5H161.323Z" fill="#381C59" fill-opacity="0.64" style="fill:#381C59;fill:color(display-p3 0.2196 0.1098 0.3490);fill-opacity:0.64;"/>
<path d="M201.546 218.5L204.693 210.045H205.736L208.876 218.5H207.769L206.914 216.08H203.509L202.654 218.5H201.546ZM205.203 211.311L203.832 215.184H206.597L205.226 211.311H205.203ZM209.811 220.551V212.406H210.83V213.438H210.854C211.235 212.729 211.914 212.289 212.787 212.289C214.346 212.289 215.377 213.531 215.377 215.453V215.459C215.377 217.381 214.334 218.617 212.805 218.617C211.944 218.617 211.235 218.184 210.854 217.48H210.83V220.551H209.811ZM212.588 217.715C213.666 217.715 214.334 216.848 214.334 215.459V215.453C214.334 214.053 213.666 213.191 212.588 213.191C211.557 213.191 210.825 214.088 210.825 215.453V215.459C210.825 216.818 211.563 217.715 212.588 217.715ZM216.529 218.5V212.406H217.548V213.438H217.572C217.777 212.734 218.304 212.289 218.99 212.289C219.165 212.289 219.318 212.318 219.4 212.33V213.32C219.318 213.291 219.101 213.262 218.855 213.262C218.064 213.262 217.548 213.812 217.548 214.738V218.5H216.529Z" fill="#381C59" fill-opacity="0.64" style="fill:#381C59;fill:color(display-p3 0.2196 0.1098 0.3490);fill-opacity:0.64;"/>
<path d="M258.02 218.5V210.045H259.239L262.169 217.17H262.204L265.134 210.045H266.352V218.5H265.368V211.967H265.333L262.632 218.5H261.741L259.04 211.967H259.005V218.5H258.02ZM269.56 218.617C268.347 218.617 267.533 217.885 267.533 216.777V216.766C267.533 215.729 268.341 215.078 269.742 214.996L271.488 214.896V214.387C271.488 213.643 271.002 213.191 270.152 213.191C269.367 213.191 268.875 213.566 268.757 214.111L268.746 214.164H267.761L267.767 214.1C267.855 213.098 268.728 212.289 270.164 212.289C271.605 212.289 272.507 213.068 272.507 214.287V218.5H271.488V217.51H271.464C271.107 218.178 270.375 218.617 269.56 218.617ZM268.576 216.777C268.576 217.363 269.056 217.732 269.789 217.732C270.75 217.732 271.488 217.07 271.488 216.186V215.688L269.859 215.787C269.045 215.834 268.576 216.197 268.576 216.766V216.777ZM274.508 220.551C274.309 220.551 274.092 220.527 273.963 220.504V219.672C274.051 219.689 274.168 219.707 274.292 219.707C274.936 219.707 275.293 219.543 275.54 218.852L275.663 218.506L273.401 212.406H274.491L276.172 217.48H276.196L277.883 212.406H278.956L276.577 218.881C276.143 220.047 275.61 220.551 274.508 220.551Z" fill="#381C59" fill-opacity="0.64" style="fill:#381C59;fill:color(display-p3 0.2196 0.1098 0.3490);fill-opacity:0.64;"/>
<path d="M318.631 218.641C317.166 218.641 316.34 217.732 316.252 216.52L316.246 216.438H317.301L317.307 216.496C317.371 217.135 317.787 217.668 318.625 217.668C319.562 217.668 320.066 217.111 320.066 216.08V210.045H321.121V216.092C321.121 217.691 320.195 218.641 318.631 218.641ZM324.804 218.617C323.468 218.617 322.694 217.75 322.694 216.361V212.406H323.714V216.18C323.714 217.17 324.177 217.715 325.114 217.715C326.075 217.715 326.702 217.029 326.702 215.992V212.406H327.722V218.5H326.702V217.633H326.679C326.35 218.201 325.729 218.617 324.804 218.617ZM329.172 218.5V212.406H330.191V213.273H330.215C330.543 212.705 331.164 212.289 332.09 212.289C333.426 212.289 334.199 213.156 334.199 214.545V218.5H333.179V214.727C333.179 213.736 332.717 213.191 331.779 213.191C330.818 213.191 330.191 213.877 330.191 214.914V218.5H329.172Z" fill="#381C59" fill-opacity="0.64" style="fill:#381C59;fill:color(display-p3 0.2196 0.1098 0.3490);fill-opacity:0.64;"/>
<path d="M272.262 20.6406C270.364 20.6406 269.11 19.7383 269.004 18.25L268.999 18.1621H270.276L270.288 18.2383C270.405 19.0176 271.184 19.5039 272.315 19.5039C273.446 19.5039 274.161 18.9941 274.161 18.2031V18.1973C274.161 17.5176 273.698 17.1484 272.579 16.9023L271.659 16.709C270 16.3574 269.198 15.5957 269.198 14.3418V14.3359C269.204 12.8945 270.475 11.9043 272.262 11.9043C274.026 11.9043 275.233 12.8652 275.321 14.2832L275.327 14.3828H274.049L274.043 14.3008C273.926 13.5156 273.247 13.041 272.245 13.041C271.196 13.0469 270.528 13.5449 270.528 14.2832V14.2891C270.528 14.9219 271.008 15.3086 272.063 15.5371L272.989 15.7305C274.735 16.0996 275.485 16.8086 275.485 18.1152V18.1211C275.485 19.6621 274.266 20.6406 272.262 20.6406ZM279.285 20.623C277.486 20.623 276.361 19.3867 276.361 17.4121V17.4062C276.361 15.4551 277.509 14.2188 279.267 14.2188C280.855 14.2188 281.816 15.2383 281.921 16.3984L281.927 16.4395H280.72L280.708 16.3926C280.574 15.7891 280.105 15.2793 279.279 15.2793C278.294 15.2793 277.656 16.0996 277.656 17.418V17.4238C277.656 18.7715 278.306 19.5625 279.285 19.5625C280.064 19.5625 280.562 19.1113 280.714 18.4434L280.72 18.3965H281.939L281.933 18.4375C281.798 19.6738 280.767 20.623 279.285 20.623ZM285.604 20.623C283.834 20.623 282.68 19.3984 282.68 17.418V17.4063C282.68 15.4375 283.846 14.2188 285.598 14.2188C287.356 14.2188 288.528 15.4316 288.528 17.4063V17.418C288.528 19.4043 287.367 20.623 285.604 20.623ZM285.61 19.5625C286.6 19.5625 287.233 18.7773 287.233 17.418V17.4063C287.233 16.0586 286.588 15.2793 285.598 15.2793C284.625 15.2793 283.975 16.0586 283.975 17.4063V17.418C283.975 18.7832 284.619 19.5625 285.61 19.5625ZM289.626 20.5V14.3359H290.892V15.3906H290.921C291.12 14.6699 291.636 14.2188 292.339 14.2188C292.521 14.2188 292.679 14.248 292.778 14.2656V15.4434C292.679 15.4023 292.456 15.373 292.21 15.373C291.396 15.373 290.892 15.9063 290.892 16.8262V20.5H289.626ZM296.045 20.623C294.234 20.623 293.139 19.3867 293.139 17.4414V17.4355C293.139 15.5078 294.252 14.2188 295.98 14.2188C297.709 14.2188 298.77 15.4609 298.77 17.3125V17.7402L294.404 17.7402C294.428 18.9063 295.066 19.5859 296.074 19.5859C296.824 19.5859 297.322 19.1992 297.48 18.7363L297.498 18.6895H298.699L298.688 18.7539C298.488 19.7324 297.539 20.623 296.045 20.623ZM295.986 15.2559C295.166 15.2559 294.533 15.8125 294.422 16.8438H297.516C297.41 15.7773 296.813 15.2559 295.986 15.2559ZM302.929 20.5L306.685 13.1816V13.1523L302.226 13.1523V12.0449L307.98 12.0449V13.1816L304.306 20.5H302.929ZM312.307 20.6406C310.438 20.6406 309.114 19.6387 309.114 18.209V18.1973C309.114 17.1309 309.882 16.2871 310.983 16.0469V16.0176C310.04 15.748 309.424 15.0449 309.424 14.1484V14.1367C309.424 12.8477 310.626 11.9043 312.307 11.9043C313.989 11.9043 315.196 12.8477 315.196 14.1367V14.1484C315.196 15.0449 314.581 15.748 313.637 16.0176V16.0469C314.739 16.2871 315.501 17.1309 315.501 18.1973V18.209C315.501 19.6387 314.182 20.6406 312.307 20.6406ZM312.307 15.5781C313.251 15.5781 313.895 15.0332 313.895 14.2656V14.2539C313.895 13.4805 313.245 12.9414 312.307 12.9414C311.37 12.9414 310.725 13.4805 310.725 14.2539V14.2656C310.725 15.0332 311.37 15.5781 312.307 15.5781ZM312.307 19.5918C313.385 19.5918 314.153 18.9766 314.153 18.1211V18.1094C314.153 17.248 313.391 16.627 312.307 16.627C311.223 16.627 310.462 17.248 310.462 18.1094V18.1211C310.462 18.9766 311.229 19.5918 312.307 19.5918Z" fill="#381C59" fill-opacity="0.5" style="fill:#381C59;fill:color(display-p3 0.2196 0.1098 0.3490);fill-opacity:0.5;"/>
<circle cx="210.2" cy="85.5" r="7" fill="white" stroke="#381C59" style="fill:white;fill-opacity:1;stroke:#381C59;stroke:color(display-p3 0.2196 0.1098 0.3490);stroke-opacity:1;" stroke-width="4"/>
<circle cx="97.3999" cy="98.5" r="7" fill="white" stroke="#381C59" style="fill:white;fill-opacity:1;stroke:#381C59;stroke:color(display-p3 0.2196 0.1098 0.3490);stroke-opacity:1;" stroke-width="4"/>
<circle cx="332.236" cy="28.5" r="7" fill="white" stroke="#381C59" style="fill:white;fill-opacity:1;stroke:#381C59;stroke:color(display-p3 0.2196 0.1098 0.3490);stroke-opacity:1;" stroke-width="4"/>
<circle cx="268.6" cy="58.0347" r="7" fill="white" stroke="#381C59" style="fill:white;fill-opacity:1;stroke:#381C59;stroke:color(display-p3 0.2196 0.1098 0.3490);stroke-opacity:1;" stroke-width="4"/>
<circle cx="153.8" cy="82.5" r="7" fill="white" stroke="#381C59" style="fill:white;fill-opacity:1;stroke:#381C59;stroke:color(display-p3 0.2196 0.1098 0.3490);stroke-opacity:1;" stroke-width="4"/>
<circle cx="42.2627" cy="177.5" r="7" fill="white" stroke="#381C59" style="fill:white;fill-opacity:1;stroke:#381C59;stroke:color(display-p3 0.2196 0.1098 0.3490);stroke-opacity:1;" stroke-width="4"/>
<path d="M60.4092 181.641C58.5107 181.641 57.2568 180.738 57.1514 179.25L57.1455 179.162H58.4229L58.4346 179.238C58.5518 180.018 59.3311 180.504 60.4619 180.504C61.5928 180.504 62.3076 179.994 62.3076 179.203V179.197C62.3076 178.518 61.8447 178.148 60.7256 177.902L59.8057 177.709C58.1475 177.357 57.3447 176.596 57.3447 175.342V175.336C57.3506 173.895 58.6221 172.904 60.4092 172.904C62.1729 172.904 63.3799 173.865 63.4678 175.283L63.4736 175.383H62.1963L62.1904 175.301C62.0732 174.516 61.3936 174.041 60.3916 174.041C59.3428 174.047 58.6748 174.545 58.6748 175.283V175.289C58.6748 175.922 59.1553 176.309 60.21 176.537L61.1357 176.73C62.8818 177.1 63.6318 177.809 63.6318 179.115V179.121C63.6318 180.662 62.4131 181.641 60.4092 181.641ZM67.4315 181.623C65.6327 181.623 64.5077 180.387 64.5077 178.412V178.406C64.5077 176.455 65.6561 175.219 67.4139 175.219C69.0018 175.219 69.9628 176.238 70.0682 177.398L70.0741 177.439H68.8671L68.8554 177.393C68.7206 176.789 68.2518 176.279 67.4257 176.279C66.4413 176.279 65.8026 177.1 65.8026 178.418V178.424C65.8026 179.771 66.453 180.562 67.4315 180.562C68.2108 180.562 68.7089 180.111 68.8612 179.443L68.8671 179.396H70.0858L70.08 179.438C69.9452 180.674 68.9139 181.623 67.4315 181.623ZM73.7507 181.623C71.9812 181.623 70.8269 180.398 70.8269 178.418V178.406C70.8269 176.438 71.9929 175.219 73.7449 175.219C75.5027 175.219 76.6746 176.432 76.6746 178.406V178.418C76.6746 180.404 75.5144 181.623 73.7507 181.623ZM73.7566 180.562C74.7468 180.562 75.3796 179.777 75.3796 178.418V178.406C75.3796 177.059 74.7351 176.279 73.7449 176.279C72.7722 176.279 72.1218 177.059 72.1218 178.406V178.418C72.1218 179.783 72.7664 180.562 73.7566 180.562ZM77.7731 181.5V175.336H79.0387V176.391H79.068C79.2672 175.67 79.7829 175.219 80.486 175.219C80.6676 175.219 80.8258 175.248 80.9254 175.266V176.443C80.8258 176.402 80.6032 176.373 80.3571 176.373C79.5426 176.373 79.0387 176.906 79.0387 177.826V181.5H77.7731ZM84.1919 181.623C82.3814 181.623 81.2857 180.387 81.2857 178.441V178.436C81.2857 176.508 82.3989 175.219 84.1275 175.219C85.856 175.219 86.9165 176.461 86.9165 178.312V178.74H82.5513C82.5747 179.906 83.2134 180.586 84.2212 180.586C84.9712 180.586 85.4693 180.199 85.6275 179.736L85.645 179.689H86.8462L86.8345 179.754C86.6353 180.732 85.6861 181.623 84.1919 181.623ZM84.1333 176.256C83.313 176.256 82.6802 176.812 82.5689 177.844H85.6626C85.5571 176.777 84.9595 176.256 84.1333 176.256ZM94.6272 181.5V179.818H90.3968V178.676L93.9886 173.045H95.887V178.717H97.053V179.818H95.887V181.5H94.6272ZM91.6155 178.734H94.6389V174.082H94.6038L91.6155 178.699V178.734ZM101.193 181.641C99.4992 181.641 98.3214 180.615 98.2043 179.221L98.1984 179.15H99.4523L99.4582 179.197C99.5695 179.959 100.261 180.545 101.204 180.545C102.271 180.545 103.015 179.807 103.015 178.758V178.746C103.009 177.709 102.265 176.977 101.216 176.977C100.694 176.977 100.243 177.129 99.9035 177.434C99.7453 177.568 99.6105 177.732 99.4992 177.92H98.3507L98.7668 173.045H103.806V174.152H99.8273L99.5695 176.83H99.5988C99.9796 176.262 100.683 175.939 101.515 175.939C103.132 175.939 104.298 177.105 104.298 178.723V178.734C104.298 180.451 103.015 181.641 101.193 181.641Z" fill="#381C59" fill-opacity="0.5" style="fill:#381C59;fill:color(display-p3 0.2196 0.1098 0.3490);fill-opacity:0.5;"/>
<path d="M40.9248 73.6406C39.0264 73.6406 37.7725 72.7383 37.667 71.25L37.6611 71.1621H38.9385L38.9502 71.2383C39.0674 72.0176 39.8467 72.5039 40.9775 72.5039C42.1084 72.5039 42.8232 71.9941 42.8232 71.2031V71.1973C42.8232 70.5176 42.3604 70.1484 41.2412 69.9023L40.3213 69.709C38.6631 69.3574 37.8604 68.5957 37.8604 67.3418V67.3359C37.8662 65.8945 39.1377 64.9043 40.9248 64.9043C42.6885 64.9043 43.8955 65.8652 43.9834 67.2832L43.9893 67.3828H42.7119L42.7061 67.3008C42.5889 66.5156 41.9092 66.041 40.9072 66.041C39.8584 66.0469 39.1904 66.5449 39.1904 67.2832V67.2891C39.1904 67.9219 39.6709 68.3086 40.7256 68.5371L41.6514 68.7305C43.3975 69.0996 44.1475 69.8086 44.1475 71.1152V71.1211C44.1475 72.6621 42.9287 73.6406 40.9248 73.6406ZM47.4608 73.623C46.2421 73.623 45.6561 73.1074 45.6561 71.877V68.3438H44.7714V67.3359H45.6561V65.7305H46.9511V67.3359H48.1054V68.3438H46.9511V71.8008C46.9511 72.4277 47.2323 72.6152 47.7655 72.6152C47.9003 72.6152 48.0116 72.6035 48.1054 72.5918V73.5703C47.9589 73.5938 47.7186 73.623 47.4608 73.623ZM50.991 73.6113C49.7605 73.6113 48.9343 72.8555 48.9343 71.748V71.7363C48.9343 70.6641 49.7664 70.0078 51.2254 69.9199L52.9011 69.8203V69.3574C52.9011 68.6777 52.4617 68.2676 51.6765 68.2676C50.9441 68.2676 50.4929 68.6133 50.3875 69.1055L50.3757 69.1582H49.1804L49.1863 69.0938C49.2742 68.0332 50.1941 67.2188 51.7117 67.2188C53.2175 67.2188 54.1726 68.0156 54.1726 69.252V73.5H52.9011V72.5273H52.8777C52.5203 73.1895 51.8054 73.6113 50.991 73.6113ZM50.2117 71.7188C50.2117 72.2578 50.657 72.5977 51.3367 72.5977C52.2273 72.5977 52.9011 71.9941 52.9011 71.1914V70.7109L51.3953 70.8047C50.6336 70.8516 50.2117 71.1855 50.2117 71.707V71.7188ZM55.5231 73.5V67.3359H56.7887V68.3906H56.818C57.0172 67.6699 57.5329 67.2188 58.236 67.2188C58.4176 67.2188 58.5758 67.248 58.6754 67.2656V68.4434C58.5758 68.4023 58.3532 68.373 58.1071 68.373C57.2926 68.373 56.7887 68.9062 56.7887 69.8262V73.5H55.5231ZM62.0122 73.623C60.7935 73.623 60.2075 73.1074 60.2075 71.877V68.3438H59.3228V67.3359H60.2075V65.7305H61.5025V67.3359H62.6568V68.3438H61.5025V71.8008C61.5025 72.4277 61.7837 72.6152 62.3169 72.6152C62.4517 72.6152 62.563 72.6035 62.6568 72.5918V73.5703C62.5103 73.5938 62.27 73.623 62.0122 73.623ZM38.042 87.5L38.042 79.0449H39.5596L42.2959 85.7949H42.3311L45.0732 79.0449H46.585V87.5H45.3896V81.2598H45.3486L42.7998 87.5H41.8271L39.2783 81.2598H39.2373L39.2373 87.5H38.042ZM48.7968 80.3867C48.3866 80.3867 48.0585 80.0586 48.0585 79.6602C48.0585 79.2559 48.3866 78.9277 48.7968 78.9277C49.2128 78.9277 49.535 79.2559 49.535 79.6602C49.535 80.0586 49.2128 80.3867 48.7968 80.3867ZM48.1639 87.5V81.3359H49.4296V87.5H48.1639ZM50.8562 87.5V81.3359H52.1218V82.2676H52.1511C52.4734 81.6406 53.1062 81.2188 54.0379 81.2188C55.3914 81.2188 56.1707 82.0918 56.1707 83.5098V87.5H54.8992V83.75C54.8992 82.8242 54.4656 82.3027 53.5867 82.3027C52.6961 82.3027 52.1218 82.9473 52.1218 83.9082V87.5H50.8562ZM60.1637 87.623C58.3942 87.623 57.2399 86.3984 57.2399 84.418V84.4062C57.2399 82.4375 58.4059 81.2188 60.1579 81.2188C61.9157 81.2188 63.0875 82.4316 63.0875 84.4062V84.418C63.0875 86.4043 61.9274 87.623 60.1637 87.623ZM60.1696 86.5625C61.1598 86.5625 61.7926 85.7773 61.7926 84.418V84.4062C61.7926 83.0586 61.1481 82.2793 60.1579 82.2793C59.1852 82.2793 58.5348 83.0586 58.5348 84.4062V84.418C58.5348 85.7832 59.1793 86.5625 60.1696 86.5625ZM63.3013 87.5L65.3404 84.4238L63.3306 81.3359H64.7544L66.0962 83.5684H66.1255L67.4497 81.3359H68.8501L66.8228 84.3828L68.8267 87.5H67.4321L66.0669 85.2324H66.0376L64.6724 87.5H63.3013ZM70.4525 80.3867C70.0424 80.3867 69.7143 80.0586 69.7143 79.6602C69.7143 79.2559 70.0424 78.9277 70.4525 78.9277C70.8686 78.9277 71.1908 79.2559 71.1908 79.6602C71.1908 80.0586 70.8686 80.3867 70.4525 80.3867ZM69.8197 87.5V81.3359H71.0854V87.5H69.8197ZM74.8147 87.623C73.2444 87.623 72.2366 86.3809 72.2366 84.418V84.4121C72.2366 82.4492 73.2561 81.2188 74.803 81.2188C75.6761 81.2188 76.3792 81.6582 76.7483 82.3848H76.7718V79.0449H78.0432V87.5H76.7718V86.457H76.7483C76.3792 87.1777 75.6995 87.623 74.8147 87.623ZM75.1487 86.5332C76.1038 86.5332 76.7776 85.7012 76.7776 84.418V84.4121C76.7776 83.1348 76.0979 82.3027 75.1487 82.3027C74.1526 82.3027 73.5315 83.1113 73.5315 84.4121V84.418C73.5315 85.7305 74.1468 86.5332 75.1487 86.5332ZM80.1496 80.3867C79.7394 80.3867 79.4113 80.0586 79.4113 79.6602C79.4113 79.2559 79.7394 78.9277 80.1496 78.9277C80.5656 78.9277 80.8879 79.2559 80.8879 79.6602C80.8879 80.0586 80.5656 80.3867 80.1496 80.3867ZM79.5168 87.5V81.3359H80.7824V87.5H79.5168ZM82.2559 87.5V79.0449H83.5215V87.5H82.2559Z" fill="#381C59" fill-opacity="0.5" style="fill:#381C59;fill:color(display-p3 0.2196 0.1098 0.3490);fill-opacity:0.5;"/>
<path d="M132.17 109.5V101.045H133.687L136.424 107.795H136.459L139.201 101.045H140.713V109.5H139.517V103.26H139.476L136.927 109.5H135.955L133.406 103.26H133.365V109.5H132.17ZM142.924 102.387C142.514 102.387 142.186 102.059 142.186 101.66C142.186 101.256 142.514 100.928 142.924 100.928C143.34 100.928 143.663 101.256 143.663 101.66C143.663 102.059 143.34 102.387 142.924 102.387ZM142.292 109.5V103.336H143.557V109.5H142.292ZM147.632 109.623C145.834 109.623 144.709 108.387 144.709 106.412V106.406C144.709 104.455 145.857 103.219 147.615 103.219C149.203 103.219 150.164 104.238 150.269 105.398L150.275 105.439H149.068L149.056 105.393C148.921 104.789 148.453 104.279 147.626 104.279C146.642 104.279 146.003 105.1 146.003 106.418V106.424C146.003 107.771 146.654 108.562 147.632 108.562C148.412 108.562 148.91 108.111 149.062 107.443L149.068 107.396H150.287L150.281 107.438C150.146 108.674 149.115 109.623 147.632 109.623ZM151.303 109.5V103.336H152.569V104.391H152.598C152.797 103.67 153.313 103.219 154.016 103.219C154.198 103.219 154.356 103.248 154.455 103.266V104.443C154.356 104.402 154.133 104.373 153.887 104.373C153.073 104.373 152.569 104.906 152.569 105.826V109.5H151.303ZM157.74 109.623C155.97 109.623 154.816 108.398 154.816 106.418V106.406C154.816 104.438 155.982 103.219 157.734 103.219C159.491 103.219 160.663 104.432 160.663 106.406V106.418C160.663 108.404 159.503 109.623 157.74 109.623ZM157.745 108.562C158.736 108.562 159.368 107.777 159.368 106.418V106.406C159.368 105.059 158.724 104.279 157.734 104.279C156.761 104.279 156.111 105.059 156.111 106.406V106.418C156.111 107.783 156.755 108.562 157.745 108.562ZM132.017 123.5V117.336H133.283V118.268H133.312C133.635 117.641 134.267 117.219 135.199 117.219C136.552 117.219 137.332 118.092 137.332 119.51V123.5H136.06V119.75C136.06 118.824 135.627 118.303 134.748 118.303C133.857 118.303 133.283 118.947 133.283 119.908V123.5H132.017ZM141.307 123.623C139.497 123.623 138.401 122.387 138.401 120.441V120.436C138.401 118.508 139.514 117.219 141.243 117.219C142.971 117.219 144.032 118.461 144.032 120.312V120.74H139.667C139.69 121.906 140.329 122.586 141.337 122.586C142.087 122.586 142.585 122.199 142.743 121.736L142.76 121.689H143.962L143.95 121.754C143.751 122.732 142.801 123.623 141.307 123.623ZM141.249 118.256C140.428 118.256 139.796 118.812 139.684 119.844H142.778C142.672 118.777 142.075 118.256 141.249 118.256ZM147.767 123.623C145.957 123.623 144.861 122.387 144.861 120.441V120.436C144.861 118.508 145.974 117.219 147.703 117.219C149.431 117.219 150.492 118.461 150.492 120.312V120.74H146.126C146.15 121.906 146.789 122.586 147.796 122.586C148.546 122.586 149.044 122.199 149.203 121.736L149.22 121.689H150.421L150.41 121.754C150.21 122.732 149.261 123.623 147.767 123.623ZM147.709 118.256C146.888 118.256 146.255 118.812 146.144 119.844H149.238C149.132 118.777 148.535 118.256 147.709 118.256ZM153.899 123.623C152.329 123.623 151.321 122.381 151.321 120.418V120.412C151.321 118.449 152.34 117.219 153.887 117.219C154.76 117.219 155.463 117.658 155.832 118.385H155.856V115.045H157.127V123.5H155.856V122.457H155.832C155.463 123.178 154.784 123.623 153.899 123.623ZM154.233 122.533C155.188 122.533 155.862 121.701 155.862 120.418V120.412C155.862 119.135 155.182 118.303 154.233 118.303C153.237 118.303 152.616 119.111 152.616 120.412V120.418C152.616 121.73 153.231 122.533 154.233 122.533ZM158.595 123.5V115.045H159.861V123.5H158.595ZM161.967 116.387C161.557 116.387 161.229 116.059 161.229 115.66C161.229 115.256 161.557 114.928 161.967 114.928C162.383 114.928 162.705 115.256 162.705 115.66C162.705 116.059 162.383 116.387 161.967 116.387ZM161.334 123.5V117.336H162.6V123.5H161.334ZM164.026 123.5V117.336H165.292V118.268H165.321C165.644 117.641 166.276 117.219 167.208 117.219C168.562 117.219 169.341 118.092 169.341 119.51V123.5H168.069V119.75C168.069 118.824 167.636 118.303 166.757 118.303C165.866 118.303 165.292 118.947 165.292 119.908V123.5H164.026ZM173.387 125.674C171.805 125.674 170.803 124.941 170.615 123.998L170.609 123.945H171.863L171.887 123.992C172.057 124.385 172.59 124.654 173.381 124.654C174.389 124.654 174.945 124.115 174.945 123.254V122.41H174.916C174.564 123.078 173.861 123.506 172.976 123.506C171.43 123.506 170.41 122.293 170.41 120.371V120.365C170.41 118.432 171.441 117.219 173.006 117.219C173.873 117.219 174.553 117.688 174.916 118.385H174.945V117.336H176.217V123.33C176.217 124.736 175.127 125.674 173.387 125.674ZM173.334 122.475C174.301 122.475 174.945 121.66 174.945 120.389V120.383C174.945 119.117 174.295 118.303 173.334 118.303C172.332 118.303 171.705 119.111 171.705 120.383V120.389C171.705 121.678 172.332 122.475 173.334 122.475ZM135.052 137.641C133.154 137.641 131.9 136.738 131.795 135.25L131.789 135.162H133.066L133.078 135.238C133.195 136.018 133.974 136.504 135.105 136.504C136.236 136.504 136.951 135.994 136.951 135.203V135.197C136.951 134.518 136.488 134.148 135.369 133.902L134.449 133.709C132.791 133.357 131.988 132.596 131.988 131.342V131.336C131.994 129.895 133.265 128.904 135.052 128.904C136.816 128.904 138.023 129.865 138.111 131.283L138.117 131.383H136.84L136.834 131.301C136.717 130.516 136.037 130.041 135.035 130.041C133.986 130.047 133.318 130.545 133.318 131.283V131.289C133.318 131.922 133.799 132.309 134.853 132.537L135.779 132.73C137.525 133.1 138.275 133.809 138.275 135.115V135.121C138.275 136.662 137.056 137.641 135.052 137.641ZM142.057 137.623C140.247 137.623 139.151 136.387 139.151 134.441V134.436C139.151 132.508 140.264 131.219 141.993 131.219C143.721 131.219 144.782 132.461 144.782 134.312V134.74H140.417C140.44 135.906 141.079 136.586 142.087 136.586C142.837 136.586 143.335 136.199 143.493 135.736L143.51 135.689H144.712L144.7 135.754C144.501 136.732 143.551 137.623 142.057 137.623ZM141.999 132.256C141.178 132.256 140.546 132.812 140.434 133.844H143.528C143.422 132.777 142.825 132.256 141.999 132.256ZM148.195 137.623C146.654 137.623 145.751 136.861 145.623 135.736L145.617 135.684H146.871L146.882 135.742C147 136.311 147.421 136.645 148.201 136.645C148.962 136.645 149.419 136.328 149.419 135.83V135.824C149.419 135.426 149.197 135.197 148.535 135.039L147.527 134.811C146.355 134.541 145.775 133.979 145.775 133.082V133.076C145.775 131.975 146.736 131.219 148.154 131.219C149.613 131.219 150.492 132.033 150.556 133.082L150.562 133.152H149.373L149.367 133.111C149.291 132.572 148.869 132.197 148.154 132.197C147.474 132.197 147.046 132.52 147.046 133.012V133.018C147.046 133.398 147.298 133.656 147.96 133.814L148.962 134.043C150.222 134.336 150.703 134.834 150.703 135.719V135.725C150.703 136.85 149.648 137.623 148.195 137.623ZM154.116 137.623C152.575 137.623 151.672 136.861 151.543 135.736L151.537 135.684H152.791L152.803 135.742C152.92 136.311 153.342 136.645 154.121 136.645C154.883 136.645 155.34 136.328 155.34 135.83V135.824C155.34 135.426 155.118 135.197 154.455 135.039L153.448 134.811C152.276 134.541 151.696 133.979 151.696 133.082V133.076C151.696 131.975 152.657 131.219 154.075 131.219C155.534 131.219 156.412 132.033 156.477 133.082L156.483 133.152H155.293L155.287 133.111C155.211 132.572 154.789 132.197 154.075 132.197C153.395 132.197 152.967 132.52 152.967 133.012V133.018C152.967 133.398 153.219 133.656 153.881 133.814L154.883 134.043C156.143 134.336 156.623 134.834 156.623 135.719V135.725C156.623 136.85 155.569 137.623 154.116 137.623ZM158.413 130.387C158.003 130.387 157.675 130.059 157.675 129.66C157.675 129.256 158.003 128.928 158.413 128.928C158.829 128.928 159.152 129.256 159.152 129.66C159.152 130.059 158.829 130.387 158.413 130.387ZM157.781 137.5V131.336H159.046V137.5H157.781ZM163.121 137.623C161.352 137.623 160.197 136.398 160.197 134.418V134.406C160.197 132.438 161.363 131.219 163.115 131.219C164.873 131.219 166.045 132.432 166.045 134.406V134.418C166.045 136.404 164.885 137.623 163.121 137.623ZM163.127 136.562C164.117 136.562 164.75 135.777 164.75 134.418V134.406C164.75 133.059 164.106 132.279 163.115 132.279C162.143 132.279 161.492 133.059 161.492 134.406V134.418C161.492 135.783 162.137 136.562 163.127 136.562ZM167.144 137.5V131.336H168.409V132.268H168.439C168.761 131.641 169.394 131.219 170.325 131.219C171.679 131.219 172.458 132.092 172.458 133.51V137.5H171.187V133.75C171.187 132.824 170.753 132.303 169.874 132.303C168.983 132.303 168.409 132.947 168.409 133.908V137.5H167.144ZM178.528 137.5V130.346H178.499L176.29 131.869V130.627L178.516 129.045H179.811V137.5H178.528Z" fill="#381C59" fill-opacity="0.5" style="fill:#381C59;fill:color(display-p3 0.2196 0.1098 0.3490);fill-opacity:0.5;"/>
<path d="M182.169 50.0342V41.5791H185.316C186.974 41.5791 188.123 42.6924 188.123 44.3506V44.3623C188.123 46.0146 186.974 47.1455 185.316 47.1455H183.482V50.0342H182.169ZM184.988 42.6865H183.482V46.0439H184.988C186.13 46.0439 186.787 45.4287 186.787 44.3682V44.3564C186.787 43.3018 186.13 42.6865 184.988 42.6865ZM189.391 50.0342V41.5791H192.672C194.401 41.5791 195.491 42.5811 195.491 44.1689V44.1807C195.491 45.3291 194.864 46.2432 193.85 46.5889L195.743 50.0342H194.231L192.508 46.7881H190.703V50.0342H189.391ZM190.703 45.71H192.543C193.557 45.71 194.137 45.1533 194.137 44.1924V44.1807C194.137 43.2432 193.516 42.6807 192.508 42.6807H190.703V45.71ZM196.882 50.0342V41.5791H200.029C201.687 41.5791 202.835 42.6924 202.835 44.3506V44.3623C202.835 46.0146 201.687 47.1455 200.029 47.1455H198.195V50.0342H196.882ZM199.7 42.6865H198.195V46.0439H199.7C200.843 46.0439 201.499 45.4287 201.499 44.3682V44.3564C201.499 43.3018 200.843 42.6865 199.7 42.6865ZM184.267 64.0342V56.71H181.677V55.5791H188.164V56.71H185.58V64.0342H184.267ZM188.055 64.0342V57.8701H189.321V58.9248H189.35C189.549 58.2041 190.065 57.7529 190.768 57.7529C190.95 57.7529 191.108 57.7822 191.207 57.7998V58.9775C191.108 58.9365 190.885 58.9072 190.639 58.9072C189.825 58.9072 189.321 59.4404 189.321 60.3604V64.0342H188.055ZM194.474 64.1572C192.663 64.1572 191.568 62.9209 191.568 60.9756V60.9697C191.568 59.042 192.681 57.7529 194.409 57.7529C196.138 57.7529 197.198 58.9951 197.198 60.8467V61.2744H192.833C192.857 62.4404 193.495 63.1201 194.503 63.1201C195.253 63.1201 195.751 62.7334 195.909 62.2705L195.927 62.2236H197.128L197.116 62.2881C196.917 63.2666 195.968 64.1572 194.474 64.1572ZM194.415 58.79C193.595 58.79 192.962 59.3467 192.851 60.3779H195.945C195.839 59.3115 195.241 58.79 194.415 58.79ZM200.113 64.1455C198.883 64.1455 198.057 63.3896 198.057 62.2822V62.2705C198.057 61.1982 198.889 60.542 200.348 60.4541L202.024 60.3545V59.8916C202.024 59.2119 201.584 58.8018 200.799 58.8018C200.067 58.8018 199.615 59.1475 199.51 59.6396L199.498 59.6924H198.303L198.309 59.6279C198.397 58.5674 199.317 57.7529 200.834 57.7529C202.34 57.7529 203.295 58.5498 203.295 59.7861V64.0342H202.024V63.0615H202C201.643 63.7236 200.928 64.1455 200.113 64.1455ZM199.334 62.2529C199.334 62.792 199.779 63.1318 200.459 63.1318C201.35 63.1318 202.024 62.5283 202.024 61.7256V61.2451L200.518 61.3389C199.756 61.3857 199.334 61.7197 199.334 62.2412V62.2529ZM206.808 64.1572C205.589 64.1572 205.003 63.6416 205.003 62.4111V58.8779H204.118V57.8701H205.003V56.2646H206.298V57.8701H207.452V58.8779H206.298V62.335C206.298 62.9619 206.579 63.1494 207.112 63.1494C207.247 63.1494 207.358 63.1377 207.452 63.126V64.1045C207.306 64.1279 207.065 64.1572 206.808 64.1572ZM208.621 64.0342V57.8701H209.887V58.8252H209.916C210.18 58.1807 210.807 57.7529 211.615 57.7529C212.465 57.7529 213.086 58.1924 213.332 58.9658H213.361C213.678 58.2158 214.404 57.7529 215.283 57.7529C216.502 57.7529 217.299 58.5615 217.299 59.7979V64.0342H216.027V60.1025C216.027 59.2998 215.6 58.8369 214.85 58.8369C214.1 58.8369 213.578 59.3994 213.578 60.1787V64.0342H212.336V60.0088C212.336 59.2939 211.885 58.8369 211.17 58.8369C210.42 58.8369 209.887 59.4287 209.887 60.2256V64.0342H208.621ZM221.274 64.1572C219.464 64.1572 218.368 62.9209 218.368 60.9756V60.9697C218.368 59.042 219.481 57.7529 221.21 57.7529C222.938 57.7529 223.999 58.9951 223.999 60.8467V61.2744H219.634C219.657 62.4404 220.296 63.1201 221.303 63.1201C222.053 63.1201 222.552 62.7334 222.71 62.2705L222.727 62.2236H223.928L223.917 62.2881C223.718 63.2666 222.768 64.1572 221.274 64.1572ZM221.216 58.79C220.395 58.79 219.762 59.3467 219.651 60.3779H222.745C222.639 59.3115 222.042 58.79 221.216 58.79ZM225.103 64.0342V57.8701H226.369V58.8018H226.398C226.72 58.1748 227.353 57.7529 228.285 57.7529C229.638 57.7529 230.418 58.626 230.418 60.0439V64.0342H229.146V60.2842C229.146 59.3584 228.713 58.8369 227.834 58.8369C226.943 58.8369 226.369 59.4814 226.369 60.4424V64.0342H225.103ZM233.924 64.1572C232.706 64.1572 232.12 63.6416 232.12 62.4111V58.8779H231.235V57.8701H232.12V56.2646H233.415V57.8701H234.569V58.8779H233.415V62.335C233.415 62.9619 233.696 63.1494 234.229 63.1494C234.364 63.1494 234.475 63.1377 234.569 63.126V64.1045C234.422 64.1279 234.182 64.1572 233.924 64.1572Z" fill="#381C59" fill-opacity="0.5" style="fill:#381C59;fill:color(display-p3 0.2196 0.1098 0.3490);fill-opacity:0.5;"/>
<path d="M255.609 100.641C253.804 100.641 252.626 99.6562 252.509 98.2793L252.503 98.2031H253.763L253.769 98.2676C253.851 99.0176 254.56 99.5449 255.609 99.5449C256.64 99.5449 257.337 98.9707 257.337 98.1504V98.1387C257.337 97.1836 256.646 96.6504 255.515 96.6504H254.49V95.6309H255.48C256.447 95.6309 257.103 95.0625 257.103 94.2773V94.2656C257.103 93.4512 256.552 92.9766 255.597 92.9766C254.66 92.9766 254.003 93.4688 253.921 94.2539L253.916 94.3066H252.685L252.691 94.248C252.82 92.8359 253.945 91.9043 255.597 91.9043C257.279 91.9043 258.38 92.7949 258.38 94.0957V94.1074C258.38 95.1562 257.63 95.8594 256.599 96.0762V96.1055C257.841 96.2168 258.673 96.9668 258.673 98.1504V98.1621C258.673 99.6094 257.402 100.641 255.609 100.641ZM260.1 97.6406V96.498H263.868V97.6406H260.1ZM265.488 100.5V92.0449H267.005L269.741 98.7949H269.777L272.519 92.0449H274.031V100.5H272.835V94.2598H272.794L270.245 100.5H269.273L266.724 94.2598H266.683V100.5H265.488ZM278.205 100.623C276.436 100.623 275.281 99.3984 275.281 97.418V97.4062C275.281 95.4375 276.447 94.2188 278.199 94.2188C279.957 94.2188 281.129 95.4316 281.129 97.4062V97.418C281.129 99.4043 279.969 100.623 278.205 100.623ZM278.211 99.5625C279.201 99.5625 279.834 98.7773 279.834 97.418V97.4062C279.834 96.0586 279.19 95.2793 278.199 95.2793C277.227 95.2793 276.576 96.0586 276.576 97.4062V97.418C276.576 98.7832 277.221 99.5625 278.211 99.5625ZM282.228 100.5V94.3359H283.493V95.2676H283.522C283.845 94.6406 284.478 94.2188 285.409 94.2188C286.763 94.2188 287.542 95.0918 287.542 96.5098V100.5H286.271V96.75C286.271 95.8242 285.837 95.3027 284.958 95.3027C284.067 95.3027 283.493 95.9473 283.493 96.9082V100.5H282.228ZM291.049 100.623C289.83 100.623 289.244 100.107 289.244 98.877V95.3438H288.359V94.3359H289.244V92.7305H290.539V94.3359H291.693V95.3438H290.539V98.8008C290.539 99.4277 290.82 99.6152 291.353 99.6152C291.488 99.6152 291.6 99.6035 291.693 99.5918V100.57C291.547 100.594 291.307 100.623 291.049 100.623ZM292.909 100.5V92.0449H294.175V95.3496H294.204C294.532 94.6348 295.194 94.2188 296.114 94.2188C297.432 94.2188 298.3 95.2031 298.3 96.6914V100.5H297.034V96.9316C297.034 95.9121 296.518 95.3027 295.628 95.3027C294.755 95.3027 294.175 95.9707 294.175 96.9316V100.5H292.909ZM256.394 114.641C253.998 114.641 252.474 112.953 252.474 110.27V110.264C252.474 107.58 253.998 105.904 256.394 105.904C258.257 105.904 259.658 107.053 259.921 108.723L259.933 108.775H258.632L258.597 108.658C258.316 107.668 257.531 107.064 256.394 107.064C254.824 107.064 253.816 108.307 253.816 110.264V110.27C253.816 112.227 254.83 113.48 256.394 113.48C257.519 113.48 258.298 112.895 258.615 111.822L258.632 111.77H259.933L259.927 111.828C259.664 113.51 258.263 114.641 256.394 114.641ZM261.137 114.5V106.045H262.403V109.35H262.432C262.76 108.635 263.422 108.219 264.342 108.219C265.661 108.219 266.528 109.203 266.528 110.691V114.5H265.262V110.932C265.262 109.912 264.746 109.303 263.856 109.303C262.983 109.303 262.403 109.971 262.403 110.932V114.5H261.137ZM270.509 114.623C268.698 114.623 267.603 113.387 267.603 111.441V111.436C267.603 109.508 268.716 108.219 270.445 108.219C272.173 108.219 273.234 109.461 273.234 111.312V111.74H268.868C268.892 112.906 269.531 113.586 270.538 113.586C271.288 113.586 271.786 113.199 271.945 112.736L271.962 112.689H273.163L273.152 112.754C272.952 113.732 272.003 114.623 270.509 114.623ZM270.45 109.256C269.63 109.256 268.997 109.812 268.886 110.844H271.98C271.874 109.777 271.277 109.256 270.45 109.256ZM276.986 114.623C275.188 114.623 274.063 113.387 274.063 111.412V111.406C274.063 109.455 275.211 108.219 276.969 108.219C278.557 108.219 279.518 109.238 279.623 110.398L279.629 110.439H278.422L278.41 110.393C278.276 109.789 277.807 109.279 276.981 109.279C275.996 109.279 275.358 110.1 275.358 111.418V111.424C275.358 112.771 276.008 113.562 276.986 113.562C277.766 113.562 278.264 113.111 278.416 112.443L278.422 112.396H279.641L279.635 112.438C279.5 113.674 278.469 114.623 276.986 114.623ZM280.728 114.5V106.045H281.993V110.967H282.022L284.495 108.336H285.983L283.452 110.996L286.083 114.5H284.612L282.521 111.758L281.993 112.279V114.5H280.728ZM288.933 114.623C287.58 114.623 286.807 113.75 286.807 112.332V108.336H288.072V112.086C288.072 113.018 288.506 113.533 289.385 113.533C290.275 113.533 290.85 112.895 290.85 111.934V108.336H292.121V114.5H290.85V113.574H290.82C290.498 114.195 289.871 114.623 288.933 114.623ZM293.495 116.551V108.336H294.761V109.396H294.79C295.159 108.664 295.839 108.219 296.718 108.219C298.288 108.219 299.296 109.449 299.296 111.418V111.424C299.296 113.387 298.282 114.623 296.735 114.623C295.862 114.623 295.153 114.178 294.79 113.463H294.761V116.551H293.495ZM296.389 113.533C297.386 113.533 298.007 112.725 298.007 111.424V111.418C298.007 110.105 297.38 109.303 296.389 109.303C295.428 109.303 294.755 110.135 294.755 111.418V111.424C294.755 112.701 295.434 113.533 296.389 113.533Z" fill="#381C59" fill-opacity="0.5" style="fill:#381C59;fill:color(display-p3 0.2196 0.1098 0.3490);fill-opacity:0.5;"/>
</svg>
